{"glyphs":{"0":{"ha":704,"x_min":-28,"x_max":732,"o":"m 257 0 q 42 70 113 0 q -28 313 -28 140 l -28 660 q 45 903 -28 833 q 257 972 118 972 l 447 972 q 662 900 592 972 q 732 660 732 828 l 732 313 q 699 125 732 193 q 603 28 667 57 q 447 0 540 0 l 257 0 m 28 313 q 51 157 28 213 q 126 78 75 101 q 257 56 176 56 l 447 56 q 577 78 526 56 q 652 156 628 100 q 676 313 676 211 l 676 660 q 653 816 676 760 q 578 894 629 872 q 447 917 528 917 l 257 917 q 127 894 178 917 q 52 817 76 872 q 28 660 28 761 l 28 313 m 324 338 l 324 633 q 353 664 324 664 q 381 633 381 664 l 381 338 q 353 307 381 307 q 324 338 324 307 z "},"1":{"ha":524,"x_min":-28,"x_max":551,"o":"m 294 0 q 168 35 201 0 q 135 160 135 69 l 135 521 q 131 538 135 533 q 113 542 126 542 l 104 542 q 6 576 40 542 q -28 701 -28 611 l -28 813 q 2 938 -28 903 q 104 972 32 972 l 381 972 q 509 931 467 972 q 551 789 551 890 l 551 160 q 518 35 551 69 q 392 0 485 0 l 294 0 m 28 701 q 43 615 28 633 q 104 597 58 597 l 142 597 q 178 585 167 597 q 190 536 190 572 l 190 160 q 197 93 190 115 q 226 63 204 71 q 294 56 249 56 l 392 56 q 460 63 438 56 q 489 93 482 71 q 496 160 496 115 l 496 789 q 471 894 496 868 q 383 921 446 921 l 104 921 q 43 901 58 921 q 28 813 28 882 l 28 701 z "},"2":{"ha":681,"x_min":-28,"x_max":708,"o":"m 368 972 q 550 944 474 972 q 667 847 626 917 q 708 649 708 776 l 708 629 q 682 479 708 539 q 607 383 656 419 q 688 342 667 378 q 708 228 708 307 l 708 160 q 674 38 708 75 q 549 0 639 0 l 132 0 q 7 38 42 0 q -28 160 -28 75 l -28 413 q 7 539 -28 504 q -19 584 -11 554 q -28 656 -28 614 l -28 701 q 3 863 -28 804 q 103 947 35 922 q 285 972 171 972 l 368 972 m 28 160 q 35 93 28 115 q 64 63 42 71 q 132 56 86 56 l 549 56 q 617 63 594 56 q 646 93 639 71 q 653 160 653 115 l 653 226 q 636 310 653 290 q 563 331 619 331 l 371 331 q 340 358 340 331 q 371 386 340 386 l 424 386 q 596 442 539 386 q 653 629 653 499 l 653 646 q 623 813 653 754 q 530 894 593 872 q 368 917 467 917 l 285 917 q 129 899 185 917 q 51 834 74 881 q 28 701 28 788 l 28 657 q 33 597 28 617 q 57 572 38 578 q 118 567 76 567 l 206 567 q 276 572 254 567 q 303 597 297 578 q 308 657 308 617 l 308 676 q 336 707 308 707 q 364 676 364 707 l 364 657 q 331 542 364 574 q 211 511 297 511 l 118 511 q 57 505 76 511 q 33 477 38 499 q 28 407 28 456 l 28 160 z "},"3":{"ha":631,"x_min":-28,"x_max":658,"o":"m 132 0 q 5 35 38 0 q -28 160 -28 71 l -28 235 q -19 316 -28 283 q 10 367 -11 349 q -19 418 -11 386 q -28 499 -28 450 q -19 581 -28 547 q 10 632 -11 614 q -19 681 -11 650 q -28 760 -28 713 l -28 813 q 5 935 -28 899 q 132 972 38 972 l 346 972 q 585 896 511 972 q 658 638 658 819 q 653 565 658 603 q 622 503 649 526 q 658 381 658 472 l 658 307 q 584 71 658 142 q 360 0 510 0 l 132 0 m 28 160 q 35 93 28 115 q 64 63 42 71 q 132 56 86 56 l 360 56 q 544 112 486 56 q 603 307 603 168 l 603 371 q 598 441 603 419 q 574 469 593 463 q 513 475 556 475 l 460 475 q 429 503 429 475 q 460 531 429 531 l 513 531 q 574 537 556 531 q 598 565 593 543 q 603 636 603 588 q 578 804 603 743 q 497 891 553 865 q 346 917 440 917 l 132 917 q 64 909 86 917 q 35 879 42 901 q 28 813 28 857 l 28 764 q 33 694 28 717 q 57 666 38 672 q 118 660 76 660 l 240 660 q 271 632 271 660 q 240 604 271 604 l 118 604 q 57 598 76 604 q 33 569 38 592 q 28 499 28 547 q 33 429 28 451 q 57 401 38 407 q 118 394 76 394 l 240 394 q 271 367 271 394 q 240 339 271 339 l 118 339 q 57 333 76 339 q 33 305 38 326 q 28 235 28 283 l 28 160 z "},"4":{"ha":760,"x_min":-28,"x_max":788,"o":"m 438 0 q 313 35 347 0 q 278 160 278 69 l 278 178 q 273 199 278 193 q 249 204 268 204 l 132 204 q 7 241 42 204 q -28 364 -28 278 l -28 646 q 52 889 -28 806 q 285 972 132 972 l 493 972 q 618 935 583 972 q 653 813 653 897 l 653 635 q 657 616 653 621 q 675 611 661 611 l 683 611 q 757 576 726 611 q 788 451 788 542 l 788 381 q 757 256 788 290 q 683 221 726 221 l 675 221 q 657 216 661 221 q 653 196 653 211 l 653 160 q 618 35 653 69 q 493 0 583 0 l 438 0 m 28 364 q 35 297 28 319 q 64 267 42 275 q 132 260 86 260 l 286 260 q 333 215 333 260 l 333 160 q 340 93 333 115 q 369 63 347 71 q 438 56 392 56 l 493 56 q 561 63 539 56 q 590 93 583 71 q 597 160 597 115 l 597 215 q 609 263 597 249 q 646 276 621 276 l 683 276 q 720 294 708 276 q 732 381 732 313 l 732 451 q 720 538 732 521 q 683 556 708 556 l 654 556 q 610 569 624 556 q 597 617 597 583 l 597 813 q 590 879 597 857 q 561 909 583 901 q 493 917 539 917 l 285 917 q 28 646 28 917 l 28 364 m 301 478 l 301 590 q 329 622 301 622 q 358 590 358 622 l 358 478 q 329 446 358 446 q 301 478 301 446 z "},"5":{"ha":681,"x_min":-28,"x_max":708,"o":"m 285 0 q 103 25 171 0 q 3 110 35 50 q -28 271 -28 169 l -28 317 q -19 388 -28 358 q 7 433 -11 418 q -28 560 -28 468 l -28 813 q 7 935 -28 897 q 132 972 42 972 l 549 972 q 674 935 639 972 q 708 813 708 897 l 708 744 q 688 631 708 665 q 607 589 667 596 q 682 494 656 554 q 708 343 708 433 l 708 324 q 667 126 708 197 q 550 28 626 56 q 368 0 474 0 l 285 0 m 28 271 q 51 139 28 186 q 129 74 74 92 q 285 56 185 56 l 368 56 q 530 78 467 56 q 623 160 593 101 q 653 326 653 218 l 653 343 q 596 531 653 475 q 424 586 539 586 l 371 586 q 340 614 340 586 q 371 642 340 642 l 563 642 q 636 662 619 642 q 653 746 653 682 l 653 813 q 646 879 653 857 q 617 909 639 901 q 549 917 594 917 l 132 917 q 64 909 86 917 q 35 879 42 901 q 28 813 28 857 l 28 565 q 33 496 28 518 q 57 467 38 474 q 118 461 76 461 l 211 461 q 331 430 297 461 q 364 315 364 399 l 364 296 q 336 265 364 265 q 308 296 308 265 l 308 315 q 303 375 308 356 q 276 400 297 394 q 206 406 254 406 l 118 406 q 57 400 76 406 q 33 376 38 394 q 28 315 28 357 l 28 271 z "},"6":{"ha":681,"x_min":-28,"x_max":708,"o":"m 549 972 q 676 938 643 972 q 708 813 708 904 l 708 731 q 701 651 708 683 q 674 600 694 619 q 701 549 694 582 q 708 468 708 517 l 708 326 q 632 74 708 147 q 396 0 556 0 l 285 0 q 49 75 125 0 q -28 326 -28 150 l -28 646 q 49 898 -28 824 q 285 972 125 972 l 549 972 m 28 326 q 87 116 28 176 q 285 56 146 56 l 396 56 q 544 81 488 56 q 626 166 600 107 q 653 326 653 225 l 653 468 q 648 538 653 517 q 624 566 643 560 q 563 572 606 572 l 351 572 q 321 600 321 572 q 351 628 321 628 l 563 628 q 624 634 606 628 q 648 662 643 640 q 653 731 653 683 l 653 813 q 646 879 653 857 q 617 909 639 901 q 549 917 594 917 l 285 917 q 88 857 147 917 q 28 646 28 797 l 28 326 m 311 368 l 311 439 q 339 471 311 471 q 368 439 368 471 l 368 368 q 339 336 368 336 q 311 368 311 336 z "},"7":{"ha":611,"x_min":-28,"x_max":639,"o":"m 129 0 q 5 35 38 0 q -28 160 -28 71 l -28 317 q 6 470 -28 408 q 90 568 39 532 q -3 610 21 574 q -28 726 -28 646 l -28 813 q 7 937 -28 901 q 132 972 42 972 l 479 972 q 604 938 569 972 q 639 813 639 903 l 639 464 q 618 344 639 388 q 559 285 597 301 q 468 268 521 268 l 435 268 q 408 264 414 268 q 403 246 403 260 l 403 160 q 372 35 403 71 q 253 0 342 0 l 129 0 m 28 160 q 35 93 28 115 q 64 63 42 71 q 132 56 86 56 l 243 56 q 311 63 289 56 q 340 93 333 71 q 347 160 347 115 l 347 268 q 399 319 347 319 l 471 319 q 553 349 524 319 q 583 465 583 378 l 583 813 q 576 879 583 857 q 547 909 569 901 q 479 917 525 917 l 132 917 q 64 909 86 917 q 35 879 42 901 q 28 813 28 857 l 28 726 q 33 657 28 679 q 57 628 38 635 q 118 622 76 622 l 296 622 q 326 594 326 622 q 296 567 326 567 l 271 567 q 150 540 206 567 q 61 453 94 513 q 28 296 28 394 l 28 160 z "},"8":{"ha":726,"x_min":-28,"x_max":754,"o":"m 271 0 q 106 28 172 0 q 6 128 39 57 q -28 326 -28 200 l -28 385 q 10 517 -28 483 q -22 577 -17 540 q -28 649 -28 614 q 6 842 -28 771 q 105 942 39 913 q 271 972 171 972 l 456 972 q 622 942 556 972 q 721 842 688 913 q 754 649 754 771 q 747 566 754 597 q 717 517 739 535 q 746 467 738 499 q 754 385 754 436 l 754 326 q 720 128 754 200 q 620 28 686 57 q 456 0 554 0 l 271 0 m 28 326 q 53 160 28 218 q 133 78 79 101 q 271 56 188 56 l 456 56 q 592 78 539 56 q 672 160 646 101 q 699 326 699 218 l 699 385 q 694 455 699 433 q 670 483 689 476 q 608 489 651 489 l 556 489 q 525 517 525 489 q 556 544 525 544 l 608 544 q 670 551 651 544 q 694 578 689 557 q 699 647 699 600 q 673 813 699 754 q 594 894 647 871 q 456 917 540 917 l 271 917 q 133 894 188 917 q 53 813 79 871 q 28 647 28 754 q 33 578 28 600 q 57 551 38 557 q 118 544 76 544 l 171 544 q 201 517 201 544 q 171 489 201 489 l 118 489 q 57 483 76 489 q 33 455 38 476 q 28 385 28 433 l 28 326 m 335 297 l 335 382 q 364 414 335 414 q 392 382 392 414 l 392 297 q 364 265 392 265 q 335 297 335 265 m 335 589 l 335 674 q 364 706 335 706 q 392 674 392 706 l 392 589 q 364 557 392 557 q 335 589 335 557 z "},"9":{"ha":681,"x_min":-28,"x_max":708,"o":"m 132 0 q 6 34 39 0 q -28 160 -28 68 l -28 242 q -21 322 -28 290 q 7 372 -14 354 q -21 424 -14 392 q -28 504 -28 456 l -28 646 q 49 899 -28 825 q 285 972 125 972 l 396 972 q 632 898 556 972 q 708 646 708 824 l 708 326 q 632 74 708 149 q 396 0 556 0 l 132 0 m 28 160 q 35 93 28 115 q 64 63 42 71 q 132 56 86 56 l 396 56 q 593 115 533 56 q 653 326 653 175 l 653 646 q 594 856 653 796 q 396 917 536 917 l 285 917 q 137 891 193 917 q 54 806 81 865 q 28 646 28 747 l 28 504 q 33 435 28 457 q 57 406 38 413 q 118 400 76 400 l 329 400 q 360 372 360 400 q 329 344 360 344 l 118 344 q 57 338 76 344 q 33 310 38 332 q 28 242 28 289 l 28 160 m 313 533 l 313 604 q 342 636 313 636 q 369 604 369 636 l 369 533 q 342 501 369 501 q 313 533 313 501 z "}," ":{"ha":326,"x_min":0,"x_max":0,"o":""},"A":{"ha":778,"x_min":-28,"x_max":806,"o":"m 132 0 q 7 35 42 0 q -28 160 -28 71 l -28 618 q 52 889 -28 806 q 313 972 132 972 l 649 972 q 772 936 739 972 q 806 813 806 900 l 806 160 q 771 35 806 71 q 646 0 736 0 l 521 0 q 389 43 422 0 q 257 0 356 0 l 132 0 m 28 160 q 35 93 28 115 q 64 63 42 71 q 132 56 86 56 l 257 56 q 325 63 303 56 q 354 92 347 69 q 361 160 361 115 l 361 294 q 389 329 361 329 q 417 294 417 329 l 417 160 q 424 92 417 115 q 453 63 431 69 q 521 56 475 56 l 646 56 q 714 63 692 56 q 743 93 736 71 q 750 160 750 115 l 750 813 q 744 879 750 857 q 716 909 738 901 q 649 917 694 917 l 313 917 q 144 887 207 917 q 55 791 82 857 q 28 618 28 725 l 28 160 m 364 519 l 364 633 q 393 664 364 664 q 421 633 421 664 l 421 519 q 393 488 421 488 q 364 519 364 488 z "},"Á":{"ha":778,"x_min":-28,"x_max":806,"o":"m 132 0 q 7 35 42 0 q -28 160 -28 71 l -28 618 q 30 863 -28 779 q 218 965 88 946 q 204 1025 204 989 q 231 1108 204 1076 q 338 1171 258 1139 l 431 1208 q 557 1216 508 1240 q 606 1126 606 1192 l 606 1039 q 596 972 606 996 l 649 972 q 772 936 739 972 q 806 813 806 900 l 806 160 q 771 35 806 71 q 646 0 736 0 l 521 0 q 389 43 422 0 q 257 0 356 0 l 132 0 m 28 160 q 35 93 28 115 q 64 63 42 71 q 132 56 86 56 l 257 56 q 325 63 303 56 q 354 92 347 69 q 361 160 361 115 l 361 294 q 389 329 361 329 q 417 294 417 329 l 417 160 q 424 92 417 115 q 453 63 431 69 q 521 56 475 56 l 646 56 q 714 63 692 56 q 743 93 736 71 q 750 160 750 115 l 750 813 q 744 879 750 857 q 716 909 738 901 q 649 917 694 917 l 313 917 q 144 887 207 917 q 55 791 82 857 q 28 618 28 725 l 28 160 m 260 1031 q 277 986 260 1000 q 344 972 294 972 l 463 972 q 533 986 515 972 q 550 1039 550 1000 l 550 1113 q 526 1169 550 1156 q 443 1158 503 1183 l 347 1118 q 278 1078 296 1096 q 260 1031 260 1061 m 364 519 l 364 633 q 393 664 364 664 q 421 633 421 664 l 421 519 q 393 488 421 488 q 364 519 364 488 z "},"Ă":{"ha":778,"x_min":-28,"x_max":806,"o":"m 132 0 q 7 35 42 0 q -28 160 -28 71 l -28 618 q 27 858 -28 775 q 204 964 82 942 q 135 1038 161 992 q 110 1157 110 1085 q 137 1244 110 1217 q 236 1272 164 1272 l 283 1272 q 411 1231 378 1272 q 540 1272 444 1272 l 586 1272 q 686 1244 660 1272 q 713 1157 713 1217 q 691 1046 713 1092 q 631 972 669 1000 l 649 972 q 772 936 739 972 q 806 813 806 900 l 806 160 q 771 35 806 71 q 646 0 736 0 l 521 0 q 389 43 422 0 q 257 0 356 0 l 132 0 m 28 160 q 35 93 28 115 q 64 63 42 71 q 132 56 86 56 l 257 56 q 325 63 303 56 q 354 92 347 69 q 361 160 361 115 l 361 294 q 389 329 361 329 q 417 294 417 329 l 417 160 q 424 92 417 115 q 453 63 431 69 q 521 56 475 56 l 646 56 q 714 63 692 56 q 743 93 736 71 q 750 160 750 115 l 750 813 q 744 879 750 857 q 716 909 738 901 q 649 917 694 917 l 313 917 q 144 887 207 917 q 55 791 82 857 q 28 618 28 725 l 28 160 m 165 1163 q 231 1012 165 1051 q 411 972 296 972 q 592 1012 526 972 q 657 1163 657 1051 q 646 1208 657 1199 q 586 1217 635 1217 l 543 1217 q 475 1211 497 1217 q 446 1189 453 1206 q 439 1140 439 1172 l 439 1111 q 411 1081 439 1081 q 383 1111 383 1081 l 383 1140 q 366 1203 383 1189 q 282 1217 349 1217 l 236 1217 q 177 1208 189 1217 q 165 1163 165 1199 m 364 519 l 364 633 q 393 664 364 664 q 421 633 421 664 l 421 519 q 393 488 421 488 q 364 519 364 488 z "},"Â":{"ha":778,"x_min":-28,"x_max":806,"o":"m 132 0 q 7 35 42 0 q -28 160 -28 71 l -28 618 q 8 824 -28 746 q 122 939 44 903 q 107 999 107 958 q 140 1093 107 1058 l 282 1239 q 313 1262 297 1254 q 353 1269 329 1269 l 469 1269 q 509 1262 493 1269 q 540 1239 525 1254 l 682 1093 q 715 999 715 1058 q 715 981 715 989 q 713 967 714 974 q 785 919 765 956 q 806 813 806 882 l 806 160 q 771 35 806 71 q 646 0 736 0 l 521 0 q 389 43 422 0 q 257 0 356 0 l 132 0 m 28 160 q 35 93 28 115 q 64 63 42 71 q 132 56 86 56 l 257 56 q 325 63 303 56 q 354 92 347 69 q 361 160 361 115 l 361 294 q 389 329 361 329 q 417 294 417 329 l 417 160 q 424 92 417 115 q 453 63 431 69 q 521 56 475 56 l 646 56 q 714 63 692 56 q 743 93 736 71 q 750 160 750 115 l 750 813 q 744 879 750 857 q 716 909 738 901 q 649 917 694 917 l 313 917 q 144 887 207 917 q 55 791 82 857 q 28 618 28 725 l 28 160 m 164 1010 q 169 980 164 988 q 190 972 175 972 l 300 972 q 365 989 346 972 q 383 1056 383 1006 q 411 1094 383 1094 q 439 1056 439 1094 q 458 989 439 1006 q 522 972 476 972 l 632 972 q 653 980 647 972 q 658 1010 658 988 q 644 1051 658 1036 l 510 1189 q 457 1214 486 1214 l 365 1214 q 311 1190 335 1214 l 175 1050 q 164 1010 164 1038 m 364 519 l 364 633 q 393 664 364 664 q 421 633 421 664 l 421 519 q 393 488 421 488 q 364 519 364 488 z "},"Ä":{"ha":778,"x_min":-28,"x_max":806,"o":"m 132 0 q 7 35 42 0 q -28 160 -28 71 l -28 618 q 7 822 -28 744 q 118 936 42 900 q 83 982 92 953 q 75 1056 75 1011 q 103 1163 75 1132 q 221 1193 132 1193 l 293 1193 q 411 1163 382 1193 q 529 1193 442 1193 l 601 1193 q 692 1181 661 1193 q 735 1138 724 1168 q 747 1054 747 1107 q 744 1001 747 1024 q 731 961 740 978 q 789 911 772 947 q 806 813 806 875 l 806 160 q 771 35 806 71 q 646 0 736 0 l 521 0 q 389 43 422 0 q 257 0 356 0 l 132 0 m 28 160 q 35 93 28 115 q 64 63 42 71 q 132 56 86 56 l 257 56 q 325 63 303 56 q 354 92 347 69 q 361 160 361 115 l 361 294 q 389 329 361 329 q 417 294 417 329 l 417 160 q 424 92 417 115 q 453 63 431 69 q 521 56 475 56 l 646 56 q 714 63 692 56 q 743 93 736 71 q 750 160 750 115 l 750 813 q 744 879 750 857 q 716 909 738 901 q 649 917 694 917 l 313 917 q 144 887 207 917 q 55 791 82 857 q 28 618 28 725 l 28 160 m 131 1056 q 135 1001 131 1018 q 160 978 140 983 q 221 972 179 972 l 293 972 q 355 978 336 972 q 378 1001 374 983 q 383 1056 383 1018 q 378 1110 383 1093 q 355 1133 374 1128 q 293 1138 336 1138 l 221 1138 q 160 1133 179 1138 q 135 1110 140 1128 q 131 1056 131 1093 m 364 519 l 364 633 q 393 664 364 664 q 421 633 421 664 l 421 519 q 393 488 421 488 q 364 519 364 488 m 439 1056 q 444 1001 439 1018 q 468 978 449 983 q 529 972 488 972 l 601 972 q 663 978 644 972 q 687 1001 682 983 q 692 1056 692 1018 q 687 1110 692 1093 q 663 1133 682 1128 q 601 1138 644 1138 l 529 1138 q 468 1133 488 1138 q 444 1110 449 1128 q 439 1056 439 1093 z "},"À":{"ha":778,"x_min":-28,"x_max":806,"o":"m 132 0 q 7 35 42 0 q -28 160 -28 71 l -28 618 q 31 863 -28 779 q 221 967 90 947 q 208 1039 208 994 l 208 1126 q 257 1216 208 1192 q 383 1208 306 1240 l 476 1171 q 583 1108 556 1139 q 610 1025 610 1076 q 600 972 610 992 l 649 972 q 772 936 739 972 q 806 813 806 900 l 806 160 q 771 35 806 71 q 646 0 736 0 l 521 0 q 389 43 422 0 q 257 0 356 0 l 132 0 m 28 160 q 35 93 28 115 q 64 63 42 71 q 132 56 86 56 l 257 56 q 325 63 303 56 q 354 92 347 69 q 361 160 361 115 l 361 294 q 389 329 361 329 q 417 294 417 329 l 417 160 q 424 92 417 115 q 453 63 431 69 q 521 56 475 56 l 646 56 q 714 63 692 56 q 743 93 736 71 q 750 160 750 115 l 750 813 q 744 879 750 857 q 716 909 738 901 q 649 917 694 917 l 313 917 q 144 887 207 917 q 55 791 82 857 q 28 618 28 725 l 28 160 m 264 1039 q 282 986 264 1000 q 351 972 300 972 l 469 972 q 537 986 519 972 q 554 1031 554 1000 q 536 1078 554 1061 q 467 1118 518 1096 l 371 1158 q 288 1169 311 1183 q 264 1113 264 1156 l 264 1039 m 364 519 l 364 633 q 393 664 364 664 q 421 633 421 664 l 421 519 q 393 488 421 488 q 364 519 364 488 z "},"Ā":{"ha":778,"x_min":-28,"x_max":806,"o":"m 132 0 q 7 35 42 0 q -28 160 -28 71 l -28 618 q 22 849 -28 767 q 179 958 71 932 q 164 999 168 975 q 160 1056 160 1024 q 188 1163 160 1132 q 306 1193 217 1193 l 517 1193 q 608 1181 576 1193 q 651 1138 639 1168 q 663 1054 663 1107 q 660 1008 663 1028 q 651 972 658 988 q 772 935 739 972 q 806 813 806 899 l 806 160 q 771 35 806 71 q 646 0 736 0 l 521 0 q 389 43 422 0 q 257 0 356 0 l 132 0 m 28 160 q 35 93 28 115 q 64 63 42 71 q 132 56 86 56 l 257 56 q 325 63 303 56 q 354 92 347 69 q 361 160 361 115 l 361 294 q 389 329 361 329 q 417 294 417 329 l 417 160 q 424 92 417 115 q 453 63 431 69 q 521 56 475 56 l 646 56 q 714 63 692 56 q 743 93 736 71 q 750 160 750 115 l 750 813 q 744 879 750 857 q 716 909 738 901 q 649 917 694 917 l 313 917 q 144 887 207 917 q 55 791 82 857 q 28 618 28 725 l 28 160 m 215 1056 q 220 1001 215 1018 q 244 978 225 983 q 306 972 264 972 l 517 972 q 578 978 560 972 q 602 1001 597 983 q 607 1056 607 1018 q 602 1110 607 1093 q 578 1133 597 1128 q 517 1138 560 1138 l 306 1138 q 244 1133 264 1138 q 220 1110 225 1128 q 215 1056 215 1093 m 364 519 l 364 633 q 393 664 364 664 q 421 633 421 664 l 421 519 q 393 488 421 488 q 364 519 364 488 z "},"Ą":{"ha":778,"x_min":-28,"x_max":806,"o":"m 640 -228 q 501 -206 551 -247 q 451 -78 451 -164 l 451 6 q 389 43 410 14 q 257 0 356 0 l 132 0 q 7 35 42 0 q -28 160 -28 71 l -28 618 q 52 889 -28 806 q 313 972 132 972 l 649 972 q 772 936 739 972 q 806 813 806 900 l 806 160 q 775 40 806 79 q 806 -60 806 15 q 783 -168 806 -135 q 708 -212 761 -201 l 640 -228 m 28 160 q 35 93 28 115 q 64 63 42 71 q 132 56 86 56 l 257 56 q 325 63 303 56 q 354 92 347 69 q 361 160 361 115 l 361 294 q 389 329 361 329 q 417 294 417 329 l 417 160 q 431 75 417 94 q 468 56 444 56 q 504 13 504 56 l 504 -67 q 538 -162 504 -135 q 635 -174 571 -189 l 703 -157 q 740 -133 729 -150 q 750 -71 750 -117 q 743 -13 750 -26 q 717 0 736 0 l 657 -1 q 617 28 617 -1 q 625 49 617 43 q 656 56 633 56 l 669 56 q 720 63 703 56 q 744 92 738 69 q 750 160 750 114 l 750 813 q 744 879 750 857 q 716 909 738 901 q 649 917 694 917 l 313 917 q 144 887 207 917 q 55 791 82 857 q 28 618 28 725 l 28 160 m 364 519 l 364 633 q 393 664 364 664 q 421 633 421 664 l 421 519 q 393 488 421 488 q 364 519 364 488 z "},"Å":{"ha":778,"x_min":-28,"x_max":806,"o":"m 132 0 q 7 35 42 0 q -28 160 -28 71 l -28 618 q 21 848 -28 765 q 176 957 69 931 q 135 1018 147 981 q 122 1111 122 1056 q 142 1222 122 1179 q 213 1284 163 1264 q 351 1304 263 1304 l 465 1304 q 646 1260 597 1304 q 694 1110 694 1215 q 686 1030 694 1064 q 658 972 678 996 q 774 935 742 971 q 806 813 806 899 l 806 160 q 771 35 806 71 q 646 0 736 0 l 521 0 q 389 43 422 0 q 257 0 356 0 l 132 0 m 28 160 q 35 93 28 115 q 64 63 42 71 q 132 56 86 56 l 257 56 q 325 63 303 56 q 354 92 347 69 q 361 160 361 115 l 361 294 q 389 329 361 329 q 417 294 417 329 l 417 160 q 424 92 417 115 q 453 63 431 69 q 521 56 475 56 l 646 56 q 714 63 692 56 q 743 93 736 71 q 750 160 750 115 l 750 813 q 744 879 750 857 q 716 909 738 901 q 649 917 694 917 l 313 917 q 144 887 207 917 q 55 791 82 857 q 28 618 28 725 l 28 160 m 178 1111 q 192 1029 178 1060 q 244 985 206 999 q 351 972 282 972 l 465 972 q 574 985 536 972 q 625 1029 611 999 q 639 1111 639 1060 q 625 1192 639 1163 q 574 1235 611 1222 q 465 1249 536 1249 l 351 1249 q 244 1235 282 1249 q 192 1192 206 1222 q 178 1111 178 1163 m 349 1110 q 381 1139 349 1139 l 436 1139 q 468 1110 468 1139 q 436 1082 468 1082 l 381 1082 q 349 1110 349 1082 m 364 519 l 364 633 q 393 664 364 664 q 421 633 421 664 l 421 519 q 393 488 421 488 q 364 519 364 488 z "},"Ã":{"ha":778,"x_min":-28,"x_max":806,"o":"m 132 0 q 7 35 42 0 q -28 160 -28 71 l -28 618 q 15 838 -28 757 q 150 950 57 918 q 75 1143 75 996 q 103 1253 75 1222 q 213 1283 131 1283 q 317 1243 286 1283 q 386 1275 340 1265 q 508 1285 432 1285 q 647 1265 594 1285 q 723 1195 699 1244 q 747 1058 747 1146 q 744 1002 747 1026 q 729 963 740 978 q 789 913 772 949 q 806 813 806 876 l 806 160 q 771 35 806 71 q 646 0 736 0 l 521 0 q 389 43 422 0 q 257 0 356 0 l 132 0 m 28 160 q 35 93 28 115 q 64 63 42 71 q 132 56 86 56 l 257 56 q 325 63 303 56 q 354 92 347 69 q 361 160 361 115 l 361 294 q 389 329 361 329 q 417 294 417 329 l 417 160 q 424 92 417 115 q 453 63 431 69 q 521 56 475 56 l 646 56 q 714 63 692 56 q 743 93 736 71 q 750 160 750 115 l 750 813 q 744 879 750 857 q 716 909 738 901 q 649 917 694 917 l 313 917 q 144 887 207 917 q 55 791 82 857 q 28 618 28 725 l 28 160 m 131 1143 q 147 1038 131 1075 q 203 986 163 1000 q 314 972 243 972 q 422 980 386 974 q 469 1006 457 986 q 481 1067 481 1026 q 488 1101 481 1093 q 508 1110 494 1110 q 530 1101 524 1110 q 536 1067 536 1093 q 542 1005 536 1025 q 563 979 547 985 q 610 974 579 974 q 665 978 649 974 q 687 1001 682 983 q 692 1058 692 1019 q 676 1165 692 1128 q 620 1215 660 1201 q 508 1229 581 1229 q 401 1222 438 1229 q 353 1196 365 1215 q 342 1135 342 1176 q 335 1100 342 1108 q 314 1092 329 1092 q 293 1100 300 1092 q 286 1135 286 1108 q 281 1197 286 1178 q 259 1222 275 1217 q 213 1228 243 1228 q 157 1223 174 1228 q 135 1200 140 1218 q 131 1143 131 1182 m 364 519 l 364 633 q 393 664 364 664 q 421 633 421 664 l 421 519 q 393 488 421 488 q 364 519 364 488 z "},"Æ":{"ha":1061,"x_min":-28,"x_max":1089,"o":"m 132 0 q 7 35 42 0 q -28 160 -28 71 l -28 618 q 7 828 -28 750 q 117 939 42 906 q 313 972 192 972 l 929 972 q 1056 936 1024 972 q 1089 813 1089 900 l 1089 763 q 1081 682 1089 714 q 1053 632 1074 650 q 1081 581 1074 614 q 1089 499 1089 547 q 1081 418 1089 450 q 1053 367 1074 386 q 1081 316 1074 349 q 1089 235 1089 283 l 1089 160 q 1056 36 1089 72 q 929 0 1024 0 l 536 0 q 403 43 436 0 q 271 0 369 0 l 132 0 m 28 160 q 35 93 28 115 q 64 63 42 71 q 132 56 86 56 l 271 56 q 339 63 317 56 q 368 92 361 69 q 375 160 375 115 l 375 294 q 403 329 375 329 q 431 294 431 329 l 431 160 q 438 92 431 115 q 468 63 446 69 q 536 56 490 56 l 929 56 q 997 63 975 56 q 1026 93 1019 71 q 1033 160 1033 115 l 1033 235 q 1028 305 1033 283 q 1005 333 1024 326 q 943 339 986 339 l 804 339 q 776 367 776 339 q 804 394 776 394 l 943 394 q 1005 401 986 394 q 1028 429 1024 407 q 1033 499 1033 451 q 1028 569 1033 547 q 1005 598 1024 592 q 943 604 986 604 l 804 604 q 776 632 776 604 q 804 660 776 660 l 943 660 q 1005 666 986 660 q 1028 694 1024 672 q 1033 764 1033 717 l 1033 813 q 1026 879 1033 857 q 997 909 1019 901 q 929 917 975 917 l 313 917 q 144 890 207 917 q 55 797 82 863 q 28 618 28 732 l 28 160 m 378 519 l 378 633 q 407 664 378 664 q 435 633 435 664 l 435 519 q 407 488 435 488 q 378 519 378 488 z "},"B":{"ha":783,"x_min":-28,"x_max":811,"o":"m 132 0 q 6 37 39 0 q -28 160 -28 74 l -28 813 q 7 935 -28 897 q 132 972 42 972 l 510 972 q 740 895 668 972 q 811 647 811 818 q 806 579 811 617 q 774 517 801 542 q 811 394 811 483 l 811 326 q 735 74 811 147 q 500 0 658 0 l 132 0 m 28 160 q 35 93 28 115 q 64 63 42 71 q 132 56 86 56 l 485 56 q 640 80 581 56 q 728 164 700 104 q 756 326 756 224 l 756 385 q 751 455 756 433 q 727 483 746 476 q 665 489 708 489 l 613 489 q 582 517 582 489 q 613 544 582 544 l 665 544 q 727 551 708 544 q 751 578 746 557 q 756 647 756 600 q 728 807 756 749 q 642 891 701 865 q 485 917 583 917 l 132 917 q 64 909 86 917 q 35 879 42 901 q 28 813 28 857 l 28 160 m 364 297 l 364 410 q 393 442 364 442 q 421 410 421 442 l 421 297 q 393 265 421 265 q 364 297 364 265 m 364 561 l 364 674 q 393 706 364 706 q 421 674 421 706 l 421 561 q 393 529 421 529 q 364 561 364 529 z "},"C":{"ha":783,"x_min":-28,"x_max":811,"o":"m 299 0 q 53 77 133 0 q -28 326 -28 154 l -28 646 q 49 892 -28 811 q 299 972 126 972 l 651 972 q 778 935 744 972 q 811 813 811 899 l 811 610 q 803 532 811 563 q 775 483 794 501 q 803 435 796 465 q 811 360 811 406 l 811 160 q 776 38 811 75 q 651 0 742 0 l 299 0 m 28 326 q 92 119 28 182 q 299 56 156 56 l 651 56 q 719 63 697 56 q 749 93 742 71 q 756 160 756 115 l 756 351 q 751 422 756 400 q 727 449 746 443 q 665 456 708 456 l 511 456 q 450 449 469 456 q 426 422 431 443 q 421 351 421 400 l 421 294 q 393 265 421 265 q 365 294 365 265 l 365 676 q 393 706 365 706 q 421 676 421 706 l 421 615 q 426 546 421 568 q 450 517 431 524 q 511 511 469 511 l 665 511 q 727 517 708 511 q 751 546 746 524 q 756 615 756 568 l 756 813 q 749 879 756 857 q 719 909 742 901 q 651 917 697 917 l 299 917 q 91 853 154 917 q 28 646 28 789 l 28 326 z "},"Ć":{"ha":783,"x_min":-28,"x_max":811,"o":"m 299 0 q 53 77 133 0 q -28 326 -28 154 l -28 646 q 28 866 -28 786 q 206 965 83 946 q 192 1025 192 988 q 219 1108 192 1076 q 325 1171 246 1139 l 418 1208 q 544 1216 496 1240 q 593 1126 593 1192 l 593 1039 q 583 972 593 996 l 651 972 q 778 935 744 972 q 811 813 811 899 l 811 610 q 803 532 811 563 q 775 483 794 501 q 803 435 796 465 q 811 360 811 406 l 811 160 q 776 38 811 75 q 651 0 742 0 l 299 0 m 28 326 q 92 119 28 182 q 299 56 156 56 l 651 56 q 719 63 697 56 q 749 93 742 71 q 756 160 756 115 l 756 351 q 751 422 756 400 q 727 449 746 443 q 665 456 708 456 l 511 456 q 450 449 469 456 q 426 422 431 443 q 421 351 421 400 l 421 294 q 393 265 421 265 q 365 294 365 265 l 365 676 q 393 706 365 706 q 421 676 421 706 l 421 615 q 426 546 421 568 q 450 517 431 524 q 511 511 469 511 l 665 511 q 727 517 708 511 q 751 546 746 524 q 756 615 756 568 l 756 813 q 749 879 756 857 q 719 909 742 901 q 651 917 697 917 l 299 917 q 91 853 154 917 q 28 646 28 789 l 28 326 m 247 1031 q 265 986 247 1000 q 332 972 282 972 l 450 972 q 520 986 503 972 q 538 1039 538 1000 l 538 1113 q 514 1169 538 1156 q 431 1158 490 1183 l 335 1118 q 265 1078 283 1096 q 247 1031 247 1061 z "},"Č":{"ha":783,"x_min":-28,"x_max":811,"o":"m 299 0 q 53 77 133 0 q -28 326 -28 154 l -28 646 q 37 878 -28 799 q 244 969 101 958 l 125 1093 q 92 1188 92 1128 q 110 1250 92 1231 q 172 1269 128 1269 l 290 1269 q 396 1232 365 1269 q 501 1269 428 1269 l 619 1269 q 682 1250 664 1269 q 700 1188 700 1231 q 667 1093 700 1128 l 549 972 l 651 972 q 778 935 744 972 q 811 813 811 899 l 811 610 q 803 532 811 563 q 775 483 794 501 q 803 435 796 465 q 811 360 811 406 l 811 160 q 776 38 811 75 q 651 0 742 0 l 299 0 m 28 326 q 92 119 28 182 q 299 56 156 56 l 651 56 q 719 63 697 56 q 749 93 742 71 q 756 160 756 115 l 756 351 q 751 422 756 400 q 727 449 746 443 q 665 456 708 456 l 511 456 q 450 449 469 456 q 426 422 431 443 q 421 351 421 400 l 421 294 q 393 265 421 265 q 365 294 365 265 l 365 676 q 393 706 365 706 q 421 676 421 706 l 421 615 q 426 546 421 568 q 450 517 431 524 q 511 511 469 511 l 665 511 q 727 517 708 511 q 751 546 746 524 q 756 615 756 568 l 756 813 q 749 879 756 857 q 719 909 742 901 q 651 917 697 917 l 299 917 q 91 853 154 917 q 28 646 28 789 l 28 326 m 149 1176 q 163 1135 149 1150 l 297 997 q 350 972 321 972 l 442 972 q 496 996 472 972 l 632 1136 q 643 1176 643 1149 q 638 1207 643 1200 q 617 1214 632 1214 l 507 1214 q 442 1197 461 1214 q 424 1131 424 1181 q 396 1092 424 1092 q 368 1131 368 1092 q 349 1197 368 1181 q 285 1214 331 1214 l 175 1214 q 154 1207 160 1214 q 149 1176 149 1200 z "},"Ç":{"ha":783,"x_min":-28,"x_max":811,"o":"m 268 -332 q 163 -306 192 -332 q 135 -217 135 -281 q 151 -142 135 -168 q 207 -107 168 -115 q 194 -66 197 -92 q 190 3 190 -40 l 190 10 q 28 108 85 32 q -28 326 -28 185 l -28 646 q 49 892 -28 813 q 299 972 126 972 l 651 972 q 778 935 744 972 q 811 813 811 899 l 811 610 q 803 532 811 563 q 775 483 794 501 q 803 435 796 465 q 811 360 811 406 l 811 160 q 781 42 811 79 q 669 0 750 4 q 711 -136 711 -46 q 651 -283 711 -235 q 446 -332 590 -332 l 268 -332 m 28 326 q 74 141 28 203 q 213 63 119 79 q 247 22 247 57 l 247 -17 q 256 -75 247 -61 q 296 -89 265 -89 l 415 -89 q 449 -117 449 -89 q 415 -144 449 -144 l 260 -144 q 206 -160 221 -144 q 190 -217 190 -176 q 205 -263 190 -250 q 268 -276 219 -276 l 446 -276 q 610 -244 565 -276 q 656 -136 656 -212 q 620 -29 656 -58 q 500 0 585 0 l 449 0 q 417 28 417 0 q 449 56 417 56 l 651 56 q 719 63 697 56 q 749 93 742 71 q 756 160 756 115 l 756 351 q 751 422 756 400 q 727 449 746 443 q 665 456 708 456 l 511 456 q 450 449 469 456 q 426 422 431 443 q 421 351 421 400 l 421 294 q 393 265 421 265 q 365 294 365 265 l 365 676 q 393 706 365 706 q 421 676 421 706 l 421 615 q 426 546 421 568 q 450 517 431 524 q 511 511 469 511 l 665 511 q 727 517 708 511 q 751 546 746 524 q 756 615 756 568 l 756 813 q 749 879 756 857 q 719 909 742 901 q 651 917 697 917 l 299 917 q 91 853 154 917 q 28 646 28 790 l 28 326 z "},"Ċ":{"ha":783,"x_min":-28,"x_max":811,"o":"m 299 0 q 53 77 133 0 q -28 326 -28 154 l -28 646 q 31 870 -28 790 q 219 967 90 950 q 210 1032 210 990 l 210 1076 q 238 1165 210 1138 q 356 1193 267 1193 l 442 1193 q 560 1166 532 1193 q 588 1076 588 1139 l 588 1033 q 579 972 588 997 l 651 972 q 778 935 744 972 q 811 813 811 899 l 811 610 q 803 532 811 563 q 775 483 794 501 q 803 435 796 465 q 811 360 811 406 l 811 160 q 776 38 811 75 q 651 0 742 0 l 299 0 m 28 326 q 92 119 28 182 q 299 56 156 56 l 651 56 q 719 63 697 56 q 749 93 742 71 q 756 160 756 115 l 756 351 q 751 422 756 400 q 727 449 746 443 q 665 456 708 456 l 511 456 q 450 449 469 456 q 426 422 431 443 q 421 351 421 400 l 421 294 q 393 265 421 265 q 365 294 365 265 l 365 676 q 393 706 365 706 q 421 676 421 706 l 421 615 q 426 546 421 568 q 450 517 431 524 q 511 511 469 511 l 665 511 q 727 517 708 511 q 751 546 746 524 q 756 615 756 568 l 756 813 q 749 879 756 857 q 719 909 742 901 q 651 917 697 917 l 299 917 q 91 853 154 917 q 28 646 28 789 l 28 326 m 265 1056 q 270 1001 265 1018 q 294 978 275 983 q 356 972 314 972 l 442 972 q 503 978 485 972 q 527 1001 522 983 q 532 1056 532 1018 q 527 1110 532 1093 q 503 1133 522 1128 q 442 1138 485 1138 l 356 1138 q 294 1133 314 1138 q 270 1110 275 1128 q 265 1056 265 1093 z "},"D":{"ha":785,"x_min":-28,"x_max":813,"o":"m 132 0 q 7 38 42 0 q -28 160 -28 75 l -28 813 q 7 935 -28 897 q 132 972 42 972 l 486 972 q 736 892 660 972 q 813 646 813 811 l 813 326 q 777 134 813 206 q 669 31 742 63 q 486 0 597 0 l 132 0 m 28 160 q 35 93 28 115 q 64 63 42 71 q 132 56 86 56 l 486 56 q 642 80 582 56 q 729 164 701 104 q 757 326 757 224 l 757 646 q 694 853 757 789 q 486 917 632 917 l 132 917 q 64 909 86 917 q 35 879 42 901 q 28 813 28 857 l 28 160 m 364 325 l 364 646 q 393 678 364 678 q 421 646 421 678 l 421 325 q 393 293 421 293 q 364 325 364 293 z "},"Ð":{"ha":915,"x_min":-28,"x_max":943,"o":"m 263 0 q 138 36 172 0 q 103 160 103 72 l 103 321 q 99 341 103 336 q 81 346 96 346 l 69 346 q -1 377 26 346 q -28 478 -28 408 l -28 493 q -1 594 -28 563 q 69 625 26 625 l 81 625 q 99 630 94 625 q 103 649 103 635 l 103 813 q 138 935 103 897 q 263 972 172 972 l 617 972 q 866 892 789 972 q 943 646 943 811 l 943 326 q 863 77 943 154 q 617 0 782 0 l 263 0 m 28 478 q 40 416 28 431 q 76 401 51 401 l 110 401 q 147 388 135 401 q 158 340 158 374 l 158 160 q 165 93 158 115 q 194 63 172 71 q 263 56 217 56 l 617 56 q 824 119 760 56 q 888 326 888 182 l 888 646 q 824 853 888 789 q 617 917 761 917 l 263 917 q 194 909 217 917 q 165 879 172 901 q 158 813 158 857 l 158 631 q 146 583 158 597 q 101 569 133 569 l 76 569 q 40 556 51 569 q 28 493 28 542 l 28 478 m 464 299 l 464 340 q 476 388 464 374 q 513 401 488 401 l 544 401 q 581 416 569 401 q 593 478 593 431 l 593 493 q 581 556 593 542 q 544 569 569 569 l 521 569 q 477 583 490 569 q 464 631 464 597 l 464 674 q 493 706 464 706 q 519 674 519 706 l 519 649 q 524 630 519 635 q 542 625 528 625 l 550 625 q 621 594 593 625 q 649 493 649 563 l 649 478 q 621 377 649 408 q 550 346 593 346 l 542 346 q 524 341 528 346 q 519 321 519 336 l 519 299 q 493 267 519 267 q 464 299 464 267 z "},"Ď":{"ha":785,"x_min":-28,"x_max":813,"o":"m 132 0 q 7 38 42 0 q -28 160 -28 75 l -28 813 q 7 935 -28 897 q 132 972 42 972 l 238 972 l 119 1093 q 86 1188 86 1128 q 104 1250 86 1231 q 167 1269 122 1269 l 285 1269 q 390 1232 360 1269 q 496 1269 422 1269 l 614 1269 q 676 1250 658 1269 q 694 1188 694 1231 q 661 1093 694 1128 l 542 969 q 749 878 685 958 q 813 646 813 799 l 813 326 q 777 134 813 206 q 669 31 742 63 q 486 0 597 0 l 132 0 m 28 160 q 35 93 28 115 q 64 63 42 71 q 132 56 86 56 l 486 56 q 642 80 582 56 q 729 164 701 104 q 757 326 757 224 l 757 646 q 694 853 757 789 q 486 917 632 917 l 132 917 q 64 909 86 917 q 35 879 42 901 q 28 813 28 857 l 28 160 m 143 1176 q 157 1135 143 1150 l 292 997 q 344 972 315 972 l 436 972 q 490 996 467 972 l 626 1136 q 638 1176 638 1149 q 632 1207 638 1200 q 611 1214 626 1214 l 501 1214 q 437 1197 456 1214 q 418 1131 418 1181 q 390 1092 418 1092 q 363 1131 363 1092 q 344 1197 363 1181 q 279 1214 325 1214 l 169 1214 q 149 1207 154 1214 q 143 1176 143 1200 m 364 325 l 364 646 q 393 678 364 678 q 421 646 421 678 l 421 325 q 393 293 421 293 q 364 325 364 293 z "},"Đ":{"ha":915,"x_min":-28,"x_max":943,"o":"m 263 0 q 138 36 172 0 q 103 160 103 72 l 103 321 q 99 341 103 336 q 81 346 96 346 l 69 346 q -1 377 26 346 q -28 478 -28 408 l -28 493 q -1 594 -28 563 q 69 625 26 625 l 81 625 q 99 630 94 625 q 103 649 103 635 l 103 813 q 138 935 103 897 q 263 972 172 972 l 617 972 q 866 892 789 972 q 943 646 943 811 l 943 326 q 863 77 943 154 q 617 0 782 0 l 263 0 m 28 478 q 40 416 28 431 q 76 401 51 401 l 110 401 q 147 388 135 401 q 158 340 158 374 l 158 160 q 165 93 158 115 q 194 63 172 71 q 263 56 217 56 l 617 56 q 824 119 760 56 q 888 326 888 182 l 888 646 q 824 853 888 789 q 617 917 761 917 l 263 917 q 194 909 217 917 q 165 879 172 901 q 158 813 158 857 l 158 631 q 146 583 158 597 q 101 569 133 569 l 76 569 q 40 556 51 569 q 28 493 28 542 l 28 478 m 464 299 l 464 340 q 476 388 464 374 q 513 401 488 401 l 544 401 q 581 416 569 401 q 593 478 593 431 l 593 493 q 581 556 593 542 q 544 569 569 569 l 521 569 q 477 583 490 569 q 464 631 464 597 l 464 674 q 493 706 464 706 q 519 674 519 706 l 519 649 q 524 630 519 635 q 542 625 528 625 l 550 625 q 621 594 593 625 q 649 493 649 563 l 649 478 q 621 377 649 408 q 550 346 593 346 l 542 346 q 524 341 528 346 q 519 321 519 336 l 519 299 q 493 267 519 267 q 464 299 464 267 z "},"E":{"ha":672,"x_min":-28,"x_max":700,"o":"m 132 0 q 6 35 39 0 q -28 160 -28 69 l -28 813 q 7 935 -28 897 q 132 972 42 972 l 540 972 q 667 936 635 972 q 700 813 700 900 l 700 763 q 692 682 700 714 q 664 632 685 650 q 692 581 685 614 q 700 499 700 547 q 692 418 700 450 q 664 367 685 386 q 692 316 685 349 q 700 235 700 283 l 700 160 q 667 36 700 72 q 540 0 635 0 l 132 0 m 28 160 q 35 93 28 115 q 64 63 42 71 q 132 56 86 56 l 540 56 q 608 63 586 56 q 638 93 631 71 q 644 160 644 115 l 644 235 q 640 305 644 283 q 616 333 635 326 q 554 339 597 339 l 360 339 q 332 367 332 339 q 360 394 332 394 l 554 394 q 616 401 597 394 q 640 429 635 407 q 644 499 644 451 q 640 569 644 547 q 616 598 635 592 q 554 604 597 604 l 360 604 q 332 632 332 604 q 360 660 332 660 l 554 660 q 616 666 597 660 q 640 694 635 672 q 644 764 644 717 l 644 813 q 638 879 644 857 q 608 909 631 901 q 540 917 586 917 l 132 917 q 64 909 86 917 q 35 879 42 901 q 28 813 28 857 l 28 160 z "},"É":{"ha":672,"x_min":-28,"x_max":700,"o":"m 132 0 q 6 35 39 0 q -28 160 -28 69 l -28 813 q 7 935 -28 897 q 132 972 42 972 l 139 972 q 129 1025 129 992 q 156 1108 129 1076 q 263 1171 183 1139 l 356 1208 q 482 1216 433 1240 q 531 1126 531 1192 l 531 1039 q 521 972 531 996 l 540 972 q 667 936 635 972 q 700 813 700 900 l 700 763 q 692 682 700 714 q 664 632 685 650 q 692 581 685 614 q 700 499 700 547 q 692 418 700 450 q 664 367 685 386 q 692 316 685 349 q 700 235 700 283 l 700 160 q 667 36 700 72 q 540 0 635 0 l 132 0 m 28 160 q 35 93 28 115 q 64 63 42 71 q 132 56 86 56 l 540 56 q 608 63 586 56 q 638 93 631 71 q 644 160 644 115 l 644 235 q 640 305 644 283 q 616 333 635 326 q 554 339 597 339 l 360 339 q 332 367 332 339 q 360 394 332 394 l 554 394 q 616 401 597 394 q 640 429 635 407 q 644 499 644 451 q 640 569 644 547 q 616 598 635 592 q 554 604 597 604 l 360 604 q 332 632 332 604 q 360 660 332 660 l 554 660 q 616 666 597 660 q 640 694 635 672 q 644 764 644 717 l 644 813 q 638 879 644 857 q 608 909 631 901 q 540 917 586 917 l 132 917 q 64 909 86 917 q 35 879 42 901 q 28 813 28 857 l 28 160 m 185 1031 q 202 986 185 1000 q 269 972 219 972 l 388 972 q 458 986 440 972 q 475 1039 475 1000 l 475 1113 q 451 1169 475 1156 q 368 1158 428 1183 l 272 1118 q 203 1078 221 1096 q 185 1031 185 1061 z "},"Ě":{"ha":672,"x_min":-28,"x_max":700,"o":"m 132 0 q 6 35 39 0 q -28 160 -28 69 l -28 813 q 7 935 -28 897 q 132 972 42 972 l 181 972 l 63 1093 q 29 1188 29 1128 q 47 1250 29 1231 q 110 1269 65 1269 l 228 1269 q 333 1232 303 1269 q 439 1269 365 1269 l 557 1269 q 619 1250 601 1269 q 638 1188 638 1231 q 604 1093 638 1128 l 486 972 l 540 972 q 667 936 635 972 q 700 813 700 900 l 700 763 q 692 682 700 714 q 664 632 685 650 q 692 581 685 614 q 700 499 700 547 q 692 418 700 450 q 664 367 685 386 q 692 316 685 349 q 700 235 700 283 l 700 160 q 667 36 700 72 q 540 0 635 0 l 132 0 m 28 160 q 35 93 28 115 q 64 63 42 71 q 132 56 86 56 l 540 56 q 608 63 586 56 q 638 93 631 71 q 644 160 644 115 l 644 235 q 640 305 644 283 q 616 333 635 326 q 554 339 597 339 l 360 339 q 332 367 332 339 q 360 394 332 394 l 554 394 q 616 401 597 394 q 640 429 635 407 q 644 499 644 451 q 640 569 644 547 q 616 598 635 592 q 554 604 597 604 l 360 604 q 332 632 332 604 q 360 660 332 660 l 554 660 q 616 666 597 660 q 640 694 635 672 q 644 764 644 717 l 644 813 q 638 879 644 857 q 608 909 631 901 q 540 917 586 917 l 132 917 q 64 909 86 917 q 35 879 42 901 q 28 813 28 857 l 28 160 m 86 1176 q 100 1135 86 1150 l 235 997 q 288 972 258 972 l 379 972 q 433 996 410 972 l 569 1136 q 581 1176 581 1149 q 575 1207 581 1200 q 554 1214 569 1214 l 444 1214 q 380 1197 399 1214 q 361 1131 361 1181 q 333 1092 361 1092 q 306 1131 306 1092 q 287 1197 306 1181 q 222 1214 268 1214 l 113 1214 q 92 1207 97 1214 q 86 1176 86 1200 z "},"Ê":{"ha":672,"x_min":-28,"x_max":700,"o":"m 132 0 q 6 35 39 0 q -28 160 -28 69 l -28 813 q -12 905 -28 869 q 38 957 3 940 q 32 999 32 972 q 65 1093 32 1058 l 207 1239 q 238 1262 222 1254 q 278 1269 254 1269 l 394 1269 q 434 1262 418 1269 q 465 1239 450 1254 l 607 1093 q 640 999 640 1058 q 635 958 640 974 q 686 908 672 943 q 700 813 700 872 l 700 763 q 692 682 700 714 q 664 632 685 650 q 692 581 685 614 q 700 499 700 547 q 692 418 700 450 q 664 367 685 386 q 692 316 685 349 q 700 235 700 283 l 700 160 q 667 36 700 72 q 540 0 635 0 l 132 0 m 28 160 q 35 93 28 115 q 64 63 42 71 q 132 56 86 56 l 540 56 q 608 63 586 56 q 638 93 631 71 q 644 160 644 115 l 644 235 q 640 305 644 283 q 616 333 635 326 q 554 339 597 339 l 360 339 q 332 367 332 339 q 360 394 332 394 l 554 394 q 616 401 597 394 q 640 429 635 407 q 644 499 644 451 q 640 569 644 547 q 616 598 635 592 q 554 604 597 604 l 360 604 q 332 632 332 604 q 360 660 332 660 l 554 660 q 616 666 597 660 q 640 694 635 672 q 644 764 644 717 l 644 813 q 638 879 644 857 q 608 909 631 901 q 540 917 586 917 l 132 917 q 64 909 86 917 q 35 879 42 901 q 28 813 28 857 l 28 160 m 89 1010 q 94 980 89 988 q 115 972 100 972 l 225 972 q 290 989 271 972 q 308 1056 308 1006 q 336 1094 308 1094 q 364 1056 364 1094 q 383 989 364 1006 q 447 972 401 972 l 557 972 q 578 980 572 972 q 583 1010 583 988 q 569 1051 583 1036 l 435 1189 q 382 1214 411 1214 l 290 1214 q 236 1190 260 1214 l 100 1050 q 89 1010 89 1038 z "},"Ë":{"ha":672,"x_min":-28,"x_max":700,"o":"m 132 0 q 6 35 39 0 q -28 160 -28 69 l -28 813 q -15 899 -28 865 q 26 950 -3 932 q 6 993 11 967 q 0 1056 0 1019 q 28 1163 0 1132 q 146 1193 57 1193 l 218 1193 q 336 1163 307 1193 q 454 1193 367 1193 l 526 1193 q 617 1181 586 1193 q 660 1138 649 1168 q 672 1054 672 1107 q 667 992 672 1018 q 649 951 663 967 q 689 899 678 933 q 700 813 700 865 l 700 763 q 692 682 700 714 q 664 632 685 650 q 692 581 685 614 q 700 499 700 547 q 692 418 700 450 q 664 367 685 386 q 692 316 685 349 q 700 235 700 283 l 700 160 q 667 36 700 72 q 540 0 635 0 l 132 0 m 28 160 q 35 93 28 115 q 64 63 42 71 q 132 56 86 56 l 540 56 q 608 63 586 56 q 638 93 631 71 q 644 160 644 115 l 644 235 q 640 305 644 283 q 616 333 635 326 q 554 339 597 339 l 360 339 q 332 367 332 339 q 360 394 332 394 l 554 394 q 616 401 597 394 q 640 429 635 407 q 644 499 644 451 q 640 569 644 547 q 616 598 635 592 q 554 604 597 604 l 360 604 q 332 632 332 604 q 360 660 332 660 l 554 660 q 616 666 597 660 q 640 694 635 672 q 644 764 644 717 l 644 813 q 638 879 644 857 q 608 909 631 901 q 540 917 586 917 l 132 917 q 64 909 86 917 q 35 879 42 901 q 28 813 28 857 l 28 160 m 56 1056 q 60 1001 56 1018 q 85 978 65 983 q 146 972 104 972 l 218 972 q 280 978 261 972 q 303 1001 299 983 q 308 1056 308 1018 q 303 1110 308 1093 q 280 1133 299 1128 q 218 1138 261 1138 l 146 1138 q 85 1133 104 1138 q 60 1110 65 1128 q 56 1056 56 1093 m 364 1056 q 369 1001 364 1018 q 393 978 374 983 q 454 972 413 972 l 526 972 q 588 978 569 972 q 612 1001 607 983 q 617 1056 617 1018 q 612 1110 617 1093 q 588 1133 607 1128 q 526 1138 569 1138 l 454 1138 q 393 1133 413 1138 q 369 1110 374 1128 q 364 1056 364 1093 z "},"Ė":{"ha":672,"x_min":-28,"x_max":700,"o":"m 132 0 q 6 35 39 0 q -28 160 -28 69 l -28 813 q 7 935 -28 897 q 132 972 42 972 l 154 972 q 149 999 150 983 q 147 1032 147 1014 l 147 1076 q 176 1165 147 1138 q 293 1193 204 1193 l 379 1193 q 497 1166 469 1193 q 525 1076 525 1139 l 525 1033 q 517 972 525 997 l 540 972 q 667 936 635 972 q 700 813 700 900 l 700 763 q 692 682 700 714 q 664 632 685 650 q 692 581 685 614 q 700 499 700 547 q 692 418 700 450 q 664 367 685 386 q 692 316 685 349 q 700 235 700 283 l 700 160 q 667 36 700 72 q 540 0 635 0 l 132 0 m 28 160 q 35 93 28 115 q 64 63 42 71 q 132 56 86 56 l 540 56 q 608 63 586 56 q 638 93 631 71 q 644 160 644 115 l 644 235 q 640 305 644 283 q 616 333 635 326 q 554 339 597 339 l 360 339 q 332 367 332 339 q 360 394 332 394 l 554 394 q 616 401 597 394 q 640 429 635 407 q 644 499 644 451 q 640 569 644 547 q 616 598 635 592 q 554 604 597 604 l 360 604 q 332 632 332 604 q 360 660 332 660 l 554 660 q 616 666 597 660 q 640 694 635 672 q 644 764 644 717 l 644 813 q 638 879 644 857 q 608 909 631 901 q 540 917 586 917 l 132 917 q 64 909 86 917 q 35 879 42 901 q 28 813 28 857 l 28 160 m 203 1056 q 208 1001 203 1018 q 232 978 213 983 q 293 972 251 972 l 379 972 q 441 978 422 972 q 465 1001 460 983 q 469 1056 469 1018 q 465 1110 469 1093 q 441 1133 460 1128 q 379 1138 422 1138 l 293 1138 q 232 1133 251 1138 q 208 1110 213 1128 q 203 1056 203 1093 z "},"È":{"ha":672,"x_min":-28,"x_max":700,"o":"m 132 0 q 6 35 39 0 q -28 160 -28 69 l -28 813 q 7 935 -28 897 q 132 972 42 972 l 143 972 q 133 1039 133 996 l 133 1126 q 182 1216 133 1192 q 308 1208 231 1240 l 401 1171 q 508 1108 481 1139 q 535 1025 535 1076 q 525 972 535 992 l 540 972 q 667 936 635 972 q 700 813 700 900 l 700 763 q 692 682 700 714 q 664 632 685 650 q 692 581 685 614 q 700 499 700 547 q 692 418 700 450 q 664 367 685 386 q 692 316 685 349 q 700 235 700 283 l 700 160 q 667 36 700 72 q 540 0 635 0 l 132 0 m 28 160 q 35 93 28 115 q 64 63 42 71 q 132 56 86 56 l 540 56 q 608 63 586 56 q 638 93 631 71 q 644 160 644 115 l 644 235 q 640 305 644 283 q 616 333 635 326 q 554 339 597 339 l 360 339 q 332 367 332 339 q 360 394 332 394 l 554 394 q 616 401 597 394 q 640 429 635 407 q 644 499 644 451 q 640 569 644 547 q 616 598 635 592 q 554 604 597 604 l 360 604 q 332 632 332 604 q 360 660 332 660 l 554 660 q 616 666 597 660 q 640 694 635 672 q 644 764 644 717 l 644 813 q 638 879 644 857 q 608 909 631 901 q 540 917 586 917 l 132 917 q 64 909 86 917 q 35 879 42 901 q 28 813 28 857 l 28 160 m 189 1039 q 207 986 189 1000 q 276 972 225 972 l 394 972 q 462 986 444 972 q 479 1031 479 1000 q 461 1078 479 1061 q 392 1118 443 1096 l 296 1158 q 213 1169 236 1183 q 189 1113 189 1156 l 189 1039 z "},"Ē":{"ha":672,"x_min":-28,"x_max":700,"o":"m 132 0 q 6 35 39 0 q -28 160 -28 69 l -28 813 q 0 927 -28 889 q 97 971 28 965 q 88 1008 90 986 q 85 1056 85 1029 q 113 1163 85 1132 q 231 1193 142 1193 l 442 1193 q 533 1181 501 1193 q 576 1138 564 1168 q 588 1054 588 1107 q 585 1007 588 1028 q 575 971 582 986 q 674 928 649 965 q 700 813 700 890 l 700 763 q 692 682 700 714 q 664 632 685 650 q 692 581 685 614 q 700 499 700 547 q 692 418 700 450 q 664 367 685 386 q 692 316 685 349 q 700 235 700 283 l 700 160 q 667 36 700 72 q 540 0 635 0 l 132 0 m 28 160 q 35 93 28 115 q 64 63 42 71 q 132 56 86 56 l 540 56 q 608 63 586 56 q 638 93 631 71 q 644 160 644 115 l 644 235 q 640 305 644 283 q 616 333 635 326 q 554 339 597 339 l 360 339 q 332 367 332 339 q 360 394 332 394 l 554 394 q 616 401 597 394 q 640 429 635 407 q 644 499 644 451 q 640 569 644 547 q 616 598 635 592 q 554 604 597 604 l 360 604 q 332 632 332 604 q 360 660 332 660 l 554 660 q 616 666 597 660 q 640 694 635 672 q 644 764 644 717 l 644 813 q 638 879 644 857 q 608 909 631 901 q 540 917 586 917 l 132 917 q 64 909 86 917 q 35 879 42 901 q 28 813 28 857 l 28 160 m 140 1056 q 145 1001 140 1018 q 169 978 150 983 q 231 972 189 972 l 442 972 q 503 978 485 972 q 527 1001 522 983 q 532 1056 532 1018 q 527 1110 532 1093 q 503 1133 522 1128 q 442 1138 485 1138 l 231 1138 q 169 1133 189 1138 q 145 1110 150 1128 q 140 1056 140 1093 z "},"Ę":{"ha":672,"x_min":-28,"x_max":700,"o":"m 524 -228 q 375 -202 428 -244 q 322 -74 322 -160 l 322 0 l 132 0 q 6 36 39 0 q -28 160 -28 72 l -28 813 q 7 935 -28 897 q 132 972 42 972 l 540 972 q 667 936 635 972 q 700 813 700 900 l 700 763 q 692 682 700 714 q 664 632 685 650 q 692 581 685 614 q 700 499 700 547 q 692 418 700 450 q 664 367 685 386 q 692 316 685 349 q 700 235 700 283 l 700 160 q 692 85 700 115 q 664 35 683 54 q 699 -69 699 4 q 674 -173 699 -140 q 597 -215 650 -206 l 524 -228 m 28 160 q 35 93 28 115 q 64 63 42 71 q 132 56 86 56 l 339 56 q 375 13 375 56 l 375 -62 q 518 -172 375 -197 l 592 -160 q 631 -138 619 -154 q 643 -79 643 -122 q 633 -14 643 -28 q 601 0 624 0 l 528 0 q 497 7 506 0 q 488 28 488 14 q 521 56 488 56 l 549 56 q 611 63 590 56 q 638 93 632 71 q 644 160 644 115 l 644 235 q 640 305 644 283 q 616 333 635 326 q 554 339 597 339 l 360 339 q 332 367 332 339 q 360 394 332 394 l 554 394 q 616 401 597 394 q 640 429 635 407 q 644 499 644 451 q 640 569 644 547 q 616 598 635 592 q 554 604 597 604 l 360 604 q 332 632 332 604 q 360 660 332 660 l 554 660 q 616 666 597 660 q 640 694 635 672 q 644 764 644 717 l 644 813 q 638 879 644 857 q 608 909 631 901 q 540 917 586 917 l 132 917 q 64 909 86 917 q 35 879 42 901 q 28 813 28 857 l 28 160 z "},"Ə":{"ha":772,"x_min":-28,"x_max":800,"o":"m 132 0 q 32 17 67 0 q -15 69 -3 33 q -28 160 -28 104 l -28 236 q -19 315 -28 283 q 10 364 -11 346 q -19 414 -11 382 q -28 493 -28 446 l -28 646 q 51 898 -28 824 q 285 972 129 972 l 474 972 q 719 898 639 972 q 800 646 800 824 l 800 326 q 723 78 800 156 q 474 0 646 0 l 132 0 m 28 160 q 35 93 28 115 q 64 63 42 71 q 132 56 86 56 l 474 56 q 681 117 618 56 q 744 326 744 179 l 744 646 q 681 856 744 796 q 474 917 617 917 l 285 917 q 90 856 153 917 q 28 646 28 796 l 28 496 q 35 426 28 449 q 63 398 42 404 q 125 392 83 392 l 360 392 q 388 364 388 392 q 360 336 388 336 l 125 336 q 63 330 83 336 q 35 302 42 324 q 28 232 28 281 l 28 160 m 350 547 l 350 592 q 379 622 350 622 q 407 592 407 622 l 407 547 q 379 515 407 515 q 350 547 350 515 z "},"F":{"ha":681,"x_min":-28,"x_max":708,"o":"m 132 0 q 6 35 39 0 q -28 160 -28 69 l -28 813 q 6 936 -28 900 q 132 972 39 972 l 549 972 q 675 936 642 972 q 708 813 708 900 l 708 713 q 701 631 708 661 q 672 581 693 600 q 701 531 693 563 q 708 450 708 500 l 708 392 q 674 268 708 304 q 549 232 639 232 l 460 232 q 436 226 442 232 q 431 206 431 221 l 431 160 q 397 35 431 71 q 271 0 364 0 l 132 0 m 28 160 q 35 93 28 115 q 64 63 42 71 q 132 56 86 56 l 271 56 q 339 63 317 56 q 368 93 361 71 q 375 160 375 115 l 375 238 q 428 288 375 288 l 549 288 q 615 295 593 288 q 645 325 638 303 q 653 392 653 347 l 653 449 q 648 519 653 497 q 624 547 643 540 q 563 553 606 553 l 368 553 q 340 581 340 553 q 368 608 340 608 l 563 608 q 624 615 606 608 q 648 643 643 621 q 653 713 653 665 l 653 813 q 646 879 653 857 q 617 909 639 901 q 549 917 594 917 l 132 917 q 64 909 86 917 q 35 879 42 901 q 28 813 28 857 l 28 160 z "},"G":{"ha":786,"x_min":-28,"x_max":814,"o":"m 299 0 q 50 77 128 0 q -28 326 -28 154 l -28 646 q 47 892 -28 811 q 299 972 122 972 l 654 972 q 781 935 749 972 q 814 813 814 897 l 814 754 q 806 673 814 706 q 778 622 799 640 q 806 573 799 604 q 814 493 814 542 l 814 146 q 781 35 814 69 q 654 0 747 0 l 299 0 m 28 326 q 90 119 28 182 q 299 56 151 56 l 654 56 q 722 63 700 56 q 751 89 744 69 q 758 146 758 108 l 758 490 q 753 560 758 539 q 730 588 749 582 q 668 594 711 594 l 472 594 q 413 588 432 594 q 388 560 393 582 q 382 489 382 538 l 382 460 q 388 390 382 413 q 413 363 393 368 q 472 357 432 357 l 492 357 q 519 329 519 357 q 492 301 519 301 l 472 301 q 358 335 390 301 q 326 453 326 369 l 326 489 q 357 613 326 576 q 472 650 388 650 l 668 650 q 730 656 711 650 q 753 685 749 663 q 758 754 758 707 l 758 813 q 751 879 758 857 q 722 909 744 901 q 654 917 700 917 l 299 917 q 88 853 149 917 q 28 646 28 789 l 28 326 z "},"Ğ":{"ha":786,"x_min":-28,"x_max":814,"o":"m 299 0 q 50 77 128 0 q -28 326 -28 154 l -28 646 q 24 863 -28 785 q 193 964 75 942 q 124 1038 150 992 q 99 1157 99 1085 q 126 1244 99 1217 q 225 1272 153 1272 l 272 1272 q 400 1231 367 1272 q 529 1272 433 1272 l 575 1272 q 675 1244 649 1272 q 701 1157 701 1217 q 680 1046 701 1092 q 619 972 658 1000 l 654 972 q 781 935 749 972 q 814 813 814 897 l 814 754 q 806 673 814 706 q 778 622 799 640 q 806 573 799 604 q 814 493 814 542 l 814 146 q 781 35 814 69 q 654 0 747 0 l 299 0 m 28 326 q 90 119 28 182 q 299 56 151 56 l 654 56 q 722 63 700 56 q 751 89 744 69 q 758 146 758 108 l 758 490 q 753 560 758 539 q 730 588 749 582 q 668 594 711 594 l 472 594 q 413 588 432 594 q 388 560 393 582 q 382 489 382 538 l 382 460 q 388 390 382 413 q 413 363 393 368 q 472 357 432 357 l 492 357 q 519 329 519 357 q 492 301 519 301 l 472 301 q 358 335 390 301 q 326 453 326 369 l 326 489 q 357 613 326 576 q 472 650 388 650 l 668 650 q 730 656 711 650 q 753 685 749 663 q 758 754 758 707 l 758 813 q 751 879 758 857 q 722 909 744 901 q 654 917 700 917 l 299 917 q 88 853 149 917 q 28 646 28 789 l 28 326 m 154 1163 q 219 1012 154 1051 q 400 972 285 972 q 581 1012 515 972 q 646 1163 646 1051 q 635 1208 646 1199 q 575 1217 624 1217 l 532 1217 q 464 1211 486 1217 q 435 1189 442 1206 q 428 1140 428 1172 l 428 1111 q 400 1081 428 1081 q 372 1111 372 1081 l 372 1140 q 355 1203 372 1189 q 271 1217 338 1217 l 225 1217 q 166 1208 178 1217 q 154 1163 154 1199 z "},"Ģ":{"ha":786,"x_min":-28,"x_max":814,"o":"m 654 56 q 722 63 700 56 q 751 89 744 69 q 758 146 758 108 l 758 490 q 753 560 758 539 q 730 588 749 582 q 668 594 711 594 l 472 594 q 413 588 432 594 q 388 560 393 582 q 382 489 382 538 l 382 460 q 388 390 382 413 q 413 363 393 368 q 472 357 432 357 l 492 357 q 519 329 519 357 q 492 301 519 301 l 472 301 q 358 335 390 301 q 326 453 326 369 l 326 489 q 357 613 326 576 q 472 650 388 650 l 668 650 q 730 656 711 650 q 753 685 749 663 q 758 754 758 707 l 758 813 q 751 879 758 857 q 722 909 744 901 q 654 917 700 917 l 299 917 q 88 853 149 917 q 28 646 28 789 l 28 326 q 90 119 28 182 q 299 56 151 56 l 654 56 m -28 326 l -28 646 q 47 892 -28 811 q 299 972 122 972 l 654 972 q 781 935 749 972 q 814 813 814 897 l 814 754 q 806 673 814 706 q 778 622 799 640 q 806 573 799 604 q 814 493 814 542 l 814 146 q 781 35 814 69 q 654 0 747 0 l 556 0 q 563 -87 571 -31 l 550 -160 q 512 -258 538 -231 q 414 -286 486 -286 l 407 -286 q 309 -258 335 -286 q 271 -160 283 -231 l 258 -87 q 265 1 249 -35 q 42 85 113 8 q -28 326 -28 163 m 313 -87 l 326 -160 q 351 -216 335 -201 q 407 -231 367 -231 l 414 -231 q 473 -217 454 -231 q 497 -160 492 -203 l 508 -87 q 501 -21 515 -42 q 439 0 488 0 l 382 0 q 319 -21 335 0 q 313 -87 304 -42 z "},"Ġ":{"ha":786,"x_min":-28,"x_max":814,"o":"m 299 0 q 50 77 128 0 q -28 326 -28 154 l -28 646 q 29 872 -28 792 q 221 968 86 951 q 211 1032 211 992 l 211 1076 q 240 1165 211 1138 q 357 1193 268 1193 l 443 1193 q 561 1166 533 1193 q 589 1076 589 1139 l 589 1033 q 581 972 589 997 l 654 972 q 781 935 749 972 q 814 813 814 897 l 814 754 q 806 673 814 706 q 778 622 799 640 q 806 573 799 604 q 814 493 814 542 l 814 146 q 781 35 814 69 q 654 0 747 0 l 299 0 m 28 326 q 90 119 28 182 q 299 56 151 56 l 654 56 q 722 63 700 56 q 751 89 744 69 q 758 146 758 108 l 758 490 q 753 560 758 539 q 730 588 749 582 q 668 594 711 594 l 472 594 q 413 588 432 594 q 388 560 393 582 q 382 489 382 538 l 382 460 q 388 390 382 413 q 413 363 393 368 q 472 357 432 357 l 492 357 q 519 329 519 357 q 492 301 519 301 l 472 301 q 358 335 390 301 q 326 453 326 369 l 326 489 q 357 613 326 576 q 472 650 388 650 l 668 650 q 730 656 711 650 q 753 685 749 663 q 758 754 758 707 l 758 813 q 751 879 758 857 q 722 909 744 901 q 654 917 700 917 l 299 917 q 88 853 149 917 q 28 646 28 789 l 28 326 m 267 1056 q 272 1001 267 1018 q 296 978 276 983 q 357 972 315 972 l 443 972 q 505 978 486 972 q 528 1001 524 983 q 533 1056 533 1018 q 528 1110 533 1093 q 505 1133 524 1128 q 443 1138 486 1138 l 357 1138 q 296 1133 315 1138 q 272 1110 276 1128 q 267 1056 267 1093 z "},"H":{"ha":778,"x_min":-28,"x_max":806,"o":"m 132 0 q 6 38 39 0 q -28 160 -28 75 l -28 813 q 6 936 -28 900 q 132 972 39 972 l 257 972 q 389 928 354 972 q 521 972 424 972 l 646 972 q 771 936 736 972 q 806 813 806 900 l 806 160 q 772 36 806 72 q 646 0 738 0 l 521 0 q 389 44 424 0 q 257 0 354 0 l 132 0 m 28 160 q 35 93 28 115 q 64 63 42 71 q 132 56 86 56 l 257 56 q 325 63 303 56 q 354 93 347 71 q 361 160 361 115 l 361 326 q 389 358 361 358 q 417 326 417 358 l 417 160 q 424 93 417 115 q 453 63 431 71 q 521 56 475 56 l 646 56 q 714 63 692 56 q 743 93 736 71 q 750 160 750 115 l 750 813 q 743 879 750 857 q 714 909 736 901 q 646 917 692 917 l 521 917 q 453 909 475 917 q 424 879 431 901 q 417 813 417 857 l 417 607 q 389 576 417 576 q 361 607 361 576 l 361 813 q 354 879 361 857 q 325 909 347 901 q 257 917 303 917 l 132 917 q 64 909 86 917 q 35 879 42 901 q 28 813 28 857 l 28 160 z "},"Ħ":{"ha":1039,"x_min":-28,"x_max":1067,"o":"m 263 0 q 136 35 169 0 q 103 160 103 71 l 103 446 q 99 466 103 461 q 81 471 96 471 l 71 471 q 0 502 28 471 q -28 603 -28 533 l -28 646 q 0 747 -28 715 q 71 778 28 778 l 81 778 q 99 783 94 778 q 103 801 103 788 l 103 813 q 136 936 103 900 q 263 972 169 972 l 388 972 q 519 928 485 972 q 651 972 554 972 l 776 972 q 901 936 867 972 q 936 813 936 900 l 936 801 q 940 783 936 788 q 958 778 944 778 l 968 778 q 1039 747 1011 778 q 1067 646 1067 715 l 1067 603 q 1039 502 1067 533 q 968 471 1011 471 l 958 471 q 940 466 944 471 q 936 446 936 461 l 936 160 q 902 34 936 68 q 776 0 868 0 l 651 0 q 519 44 554 0 q 388 0 485 0 l 263 0 m 28 603 q 40 541 28 556 q 76 526 51 526 l 110 526 q 147 513 135 526 q 158 465 158 499 l 158 160 q 165 93 158 115 q 194 63 172 71 q 263 56 217 56 l 388 56 q 456 63 433 56 q 485 93 478 71 q 492 160 492 115 l 492 271 q 519 303 492 303 q 547 271 547 303 l 547 160 q 554 93 547 115 q 583 63 561 71 q 651 56 606 56 l 776 56 q 844 63 822 56 q 874 93 867 71 q 881 160 881 115 l 881 465 q 892 513 881 499 q 929 526 904 526 l 963 526 q 999 541 988 526 q 1011 603 1011 556 l 1011 646 q 999 708 1011 694 q 963 722 988 722 l 938 722 q 894 736 907 722 q 881 783 881 750 l 881 813 q 874 879 881 857 q 844 909 867 901 q 776 917 822 917 l 651 917 q 583 909 606 917 q 554 879 561 901 q 547 813 547 857 l 547 774 q 519 743 547 743 q 492 774 492 743 l 492 813 q 485 879 492 857 q 456 909 478 901 q 388 917 433 917 l 263 917 q 194 909 217 917 q 165 879 172 901 q 158 813 158 857 l 158 783 q 146 736 158 750 q 101 722 133 722 l 76 722 q 40 708 51 722 q 28 646 28 694 l 28 603 m 489 464 l 489 508 q 518 539 489 539 q 546 508 546 539 l 546 464 q 518 432 546 432 q 489 464 489 432 z "},"I":{"ha":406,"x_min":-28,"x_max":433,"o":"m 119 0 q 6 36 40 0 q -28 153 -28 72 l -28 819 q 6 933 -28 894 q 119 972 40 972 l 286 972 q 399 933 365 972 q 433 819 433 894 l 433 153 q 399 38 433 76 q 286 0 365 0 l 119 0 m 28 153 q 48 78 28 101 q 119 56 68 56 l 286 56 q 354 78 331 56 q 378 153 378 101 l 378 819 q 359 896 378 875 q 286 917 340 917 l 119 917 q 47 896 65 917 q 28 819 28 875 l 28 153 z "},"Ĳ":{"ha":1156,"x_min":-28,"x_max":1183,"o":"m 119 0 q 6 36 40 0 q -28 153 -28 72 l -28 819 q 6 933 -28 894 q 119 972 40 972 l 286 972 q 399 933 365 972 q 433 819 433 894 l 433 647 q 538 667 468 667 l 635 667 q 739 646 701 667 l 739 813 q 774 936 739 900 q 899 972 808 972 l 1024 972 q 1149 936 1114 972 q 1183 813 1183 900 l 1183 326 q 1149 125 1183 196 q 1042 27 1114 54 q 857 0 969 0 l 704 0 q 533 24 601 0 q 429 103 465 49 q 385 26 419 51 q 286 0 351 0 l 119 0 m 28 153 q 48 78 28 101 q 119 56 68 56 l 286 56 q 354 78 331 56 q 378 153 378 101 l 378 819 q 359 896 378 875 q 286 917 340 917 l 119 917 q 47 896 65 917 q 28 819 28 875 l 28 153 m 433 326 q 460 165 433 225 q 545 81 486 106 q 704 56 604 56 l 857 56 q 1015 78 956 56 q 1101 158 1075 100 q 1128 326 1128 217 l 1128 813 q 1121 879 1128 857 q 1092 909 1114 901 q 1024 917 1069 917 l 899 917 q 831 909 853 917 q 801 879 808 901 q 794 813 794 857 l 794 288 q 767 257 794 257 q 739 288 739 257 l 739 507 q 732 574 739 551 q 703 603 725 596 q 635 611 681 611 l 538 611 q 469 603 492 611 q 440 574 447 596 q 433 507 433 551 l 433 326 z "},"Í":{"ha":406,"x_min":-28,"x_max":433,"o":"m 119 0 q 6 36 40 0 q -28 153 -28 72 l -28 819 q 28 951 -28 918 q 0 1040 0 982 q 31 1133 0 1101 q 150 1188 61 1165 l 224 1206 q 354 1200 310 1226 q 399 1104 399 1174 l 399 1053 q 374 953 399 983 q 419 902 406 936 q 433 819 433 868 l 433 153 q 399 38 433 76 q 286 0 365 0 l 119 0 m 28 153 q 48 78 28 101 q 119 56 68 56 l 286 56 q 354 78 331 56 q 378 153 378 101 l 378 819 q 359 896 378 875 q 286 917 340 917 l 119 917 q 47 896 65 917 q 28 819 28 875 l 28 153 m 56 1040 q 76 987 56 1001 q 151 972 96 972 l 238 972 q 322 988 300 972 q 343 1053 343 1003 l 343 1090 q 318 1154 343 1139 q 224 1150 293 1169 l 150 1131 q 75 1099 94 1117 q 56 1040 56 1081 z "},"Î":{"ha":406,"x_min":-28,"x_max":433,"o":"m 119 0 q 6 36 40 0 q -28 153 -28 72 l -28 819 q 15 943 -28 904 q 1 999 1 961 q 25 1107 1 1064 l 89 1226 q 115 1259 100 1249 q 157 1269 131 1269 l 246 1269 q 288 1259 274 1269 q 314 1226 303 1249 l 378 1107 q 401 1003 401 1064 q 386 944 401 965 q 433 819 433 910 l 433 153 q 399 38 433 76 q 286 0 365 0 l 119 0 m 28 153 q 48 78 28 101 q 119 56 68 56 l 286 56 q 354 78 331 56 q 378 153 378 101 l 378 819 q 359 896 378 875 q 286 917 340 917 l 119 917 q 47 896 65 917 q 28 819 28 875 l 28 153 m 58 1007 q 65 979 58 986 q 89 972 71 972 l 117 972 q 158 981 143 972 q 174 1028 174 989 q 201 1067 174 1067 q 229 1028 229 1067 q 244 980 229 988 q 286 972 260 972 l 314 972 q 338 979 332 972 q 344 1007 344 986 q 342 1040 344 1026 q 332 1071 340 1054 l 275 1182 q 255 1207 265 1200 q 217 1214 244 1214 l 186 1214 q 148 1207 160 1214 q 128 1182 136 1200 l 74 1072 q 61 1040 64 1054 q 58 1007 58 1026 z "},"Ï":{"ha":406,"x_min":-28,"x_max":433,"o":"m 119 0 q 6 36 40 0 q -28 153 -28 72 l -28 819 q 21 947 -28 911 q -1 1054 -1 978 q 23 1162 -1 1132 q 111 1192 47 1192 l 114 1192 q 203 1165 178 1192 q 289 1192 228 1192 l 292 1192 q 381 1163 357 1192 q 404 1054 404 1135 q 383 947 404 978 q 422 897 410 929 q 433 819 433 864 l 433 153 q 399 38 433 76 q 286 0 365 0 l 119 0 m 28 153 q 48 78 28 101 q 119 56 68 56 l 286 56 q 354 78 331 56 q 378 153 378 101 l 378 819 q 363 890 378 868 q 308 915 349 913 l 292 915 l 289 915 q 275 915 282 915 q 261 917 268 915 l 144 917 q 130 915 138 915 q 114 915 122 915 l 111 915 l 96 915 q 42 890 57 913 q 28 819 28 868 l 28 153 m 54 1054 q 61 989 54 1004 q 96 971 68 974 q 108 972 101 972 q 119 972 114 972 l 140 972 q 168 992 163 975 q 174 1054 174 1010 q 164 1123 174 1110 q 114 1136 154 1136 l 111 1136 q 63 1123 72 1136 q 54 1054 54 1110 m 229 1054 q 235 992 229 1010 q 263 972 240 975 l 286 972 q 298 972 293 972 q 308 971 303 972 q 342 990 336 974 q 349 1054 349 1006 q 340 1123 349 1110 q 292 1136 331 1136 l 289 1136 q 239 1123 249 1136 q 229 1054 229 1110 z "},"İ":{"ha":406,"x_min":-28,"x_max":433,"o":"m 119 0 q 6 36 40 0 q -28 153 -28 72 l -28 819 q 31 953 -28 918 q 17 986 21 967 q 14 1032 14 1006 l 14 1076 q 42 1165 14 1138 q 160 1193 71 1193 l 246 1193 q 364 1166 336 1193 q 392 1076 392 1139 l 392 1033 q 388 988 392 1007 q 374 954 385 968 q 433 819 433 921 l 433 153 q 399 38 433 76 q 286 0 365 0 l 119 0 m 28 153 q 48 78 28 101 q 119 56 68 56 l 286 56 q 354 78 331 56 q 378 153 378 101 l 378 819 q 359 896 378 875 q 286 917 340 917 l 119 917 q 47 896 65 917 q 28 819 28 875 l 28 153 m 69 1056 q 74 1001 69 1018 q 99 978 79 983 q 160 972 118 972 l 246 972 q 308 978 289 972 q 331 1001 326 983 q 336 1056 336 1018 q 331 1110 336 1093 q 308 1133 326 1128 q 246 1138 289 1138 l 160 1138 q 99 1133 118 1138 q 74 1110 79 1128 q 69 1056 69 1093 z "},"Ì":{"ha":406,"x_min":-28,"x_max":433,"o":"m 119 0 q 6 36 40 0 q -28 153 -28 72 l -28 819 q 28 951 -28 915 q 6 992 13 967 q 0 1053 0 1017 l 0 1104 q 45 1200 0 1174 q 175 1206 90 1226 l 249 1188 q 368 1133 338 1165 q 399 1040 399 1101 q 374 954 399 982 q 433 819 433 921 l 433 153 q 399 38 433 76 q 286 0 365 0 l 119 0 m 28 153 q 48 78 28 101 q 119 56 68 56 l 286 56 q 354 78 331 56 q 378 153 378 101 l 378 819 q 359 896 378 875 q 286 917 340 917 l 119 917 q 47 896 65 917 q 28 819 28 875 l 28 153 m 56 1053 q 77 988 56 1003 q 161 972 99 972 l 247 972 q 323 987 303 972 q 343 1040 343 1001 q 324 1099 343 1081 q 249 1131 306 1117 l 175 1150 q 81 1154 106 1169 q 56 1090 56 1139 l 56 1053 z "},"Ī":{"ha":406,"x_min":-49,"x_max":454,"o":"m 119 0 q 6 36 40 0 q -28 153 -28 72 l -28 819 q 4 932 -28 894 q -38 978 -28 947 q -49 1056 -49 1008 q -20 1163 -49 1132 q 97 1193 8 1193 l 308 1193 q 399 1181 368 1193 q 442 1138 431 1168 q 454 1054 454 1107 q 444 974 454 1003 q 401 931 433 944 q 433 819 433 893 l 433 153 q 399 38 433 76 q 286 0 365 0 l 119 0 m 7 1056 q 12 1001 7 1018 q 36 978 17 983 q 97 972 56 972 l 308 972 q 370 978 351 972 q 394 1001 389 983 q 399 1056 399 1018 q 394 1110 399 1093 q 370 1133 389 1128 q 308 1138 351 1138 l 97 1138 q 36 1133 56 1138 q 12 1110 17 1128 q 7 1056 7 1093 m 28 153 q 48 78 28 101 q 119 56 68 56 l 286 56 q 354 78 331 56 q 378 153 378 101 l 378 819 q 359 896 378 875 q 286 917 340 917 l 119 917 q 47 896 65 917 q 28 819 28 875 l 28 153 z "},"Į":{"ha":406,"x_min":-28,"x_max":433,"o":"m 231 -233 q 104 -213 151 -247 q 57 -100 57 -179 l 57 7 q -7 52 14 18 q -28 153 -28 86 l -28 819 q 6 935 -28 899 q 119 972 40 972 l 286 972 q 399 935 365 972 q 433 819 433 899 l 433 153 q 424 85 433 115 q 396 36 415 56 q 433 -69 433 7 q 409 -173 433 -140 q 332 -215 385 -206 l 231 -233 m 28 153 q 40 76 28 96 q 74 56 51 57 q 110 13 110 56 l 110 -89 q 142 -167 110 -149 q 239 -175 174 -186 l 326 -160 q 366 -138 354 -154 q 378 -79 378 -122 q 368 -14 378 -28 q 336 0 358 0 l 263 0 q 231 7 240 0 q 222 28 222 14 q 256 56 222 56 l 290 56 q 354 78 331 56 q 378 153 378 101 l 378 819 q 359 896 378 875 q 286 917 340 917 l 119 917 q 47 896 65 917 q 28 819 28 875 l 28 153 z "},"J":{"ha":750,"x_min":-28,"x_max":778,"o":"m 299 0 q 108 33 181 0 q 4 137 36 65 q -28 326 -28 208 l -28 507 q 7 631 -28 594 q 132 667 42 667 l 229 667 q 333 646 296 667 l 333 813 q 368 936 333 900 q 493 972 403 972 l 618 972 q 743 936 708 972 q 778 813 778 900 l 778 326 q 743 125 778 196 q 636 27 708 54 q 451 0 564 0 l 299 0 m 28 326 q 54 165 28 225 q 140 81 81 106 q 299 56 199 56 l 451 56 q 610 78 550 56 q 696 158 669 100 q 722 326 722 217 l 722 813 q 715 879 722 857 q 686 909 708 901 q 618 917 664 917 l 493 917 q 425 909 447 917 q 396 879 403 901 q 389 813 389 857 l 389 288 q 361 257 389 257 q 333 288 333 257 l 333 507 q 326 574 333 551 q 297 603 319 596 q 229 611 275 611 l 132 611 q 64 603 86 611 q 35 574 42 596 q 28 507 28 551 l 28 326 z "},"K":{"ha":764,"x_min":-28,"x_max":792,"o":"m 132 0 q 7 35 42 0 q -28 160 -28 71 l -28 813 q 7 937 -28 901 q 132 972 42 972 l 257 972 q 389 928 354 972 q 521 972 424 972 l 632 972 q 757 937 722 972 q 792 813 792 901 l 792 671 q 784 590 792 622 q 756 539 776 557 q 784 490 776 521 q 792 411 792 458 l 792 160 q 757 35 792 71 q 632 0 722 0 l 521 0 q 389 44 424 0 q 257 0 354 0 l 132 0 m 28 160 q 35 93 28 115 q 64 63 42 71 q 132 56 86 56 l 257 56 q 325 63 303 56 q 354 93 347 71 q 361 160 361 115 l 361 321 q 389 351 361 351 q 417 321 417 351 l 417 160 q 424 93 417 115 q 453 63 431 71 q 521 56 475 56 l 632 56 q 700 63 678 56 q 729 93 722 71 q 736 160 736 115 l 736 407 q 731 477 736 456 q 708 505 726 499 q 646 511 689 511 l 597 511 q 567 539 567 511 q 597 567 567 567 l 646 567 q 708 573 689 567 q 731 601 726 579 q 736 671 736 624 l 736 813 q 729 879 736 857 q 700 909 722 901 q 632 917 678 917 l 521 917 q 453 909 475 917 q 424 879 431 901 q 417 813 417 857 l 417 579 q 389 549 417 549 q 361 579 361 549 l 361 813 q 354 879 361 857 q 325 909 347 901 q 257 917 303 917 l 132 917 q 64 909 86 917 q 35 879 42 901 q 28 813 28 857 l 28 160 z "},"Ķ":{"ha":764,"x_min":-28,"x_max":792,"o":"m 132 0 q 7 35 42 0 q -28 160 -28 71 l -28 813 q 7 937 -28 901 q 132 972 42 972 l 257 972 q 389 928 354 972 q 521 972 424 972 l 632 972 q 757 937 722 972 q 792 813 792 901 l 792 671 q 784 590 792 622 q 756 539 776 557 q 784 490 776 521 q 792 411 792 458 l 792 160 q 757 35 792 71 q 632 0 722 0 l 532 0 q 539 -87 547 -31 l 526 -160 q 488 -258 514 -231 q 390 -286 463 -286 l 383 -286 q 285 -258 311 -286 q 247 -160 260 -231 l 235 -87 q 242 0 226 -31 l 132 0 m 28 160 q 35 93 28 115 q 64 63 42 71 q 132 56 86 56 l 257 56 q 325 63 303 56 q 354 93 347 71 q 361 160 361 115 l 361 321 q 389 351 361 351 q 417 321 417 351 l 417 160 q 424 93 417 115 q 453 63 431 71 q 521 56 475 56 l 632 56 q 700 63 678 56 q 729 93 722 71 q 736 160 736 115 l 736 407 q 731 477 736 456 q 708 505 726 499 q 646 511 689 511 l 597 511 q 567 539 567 511 q 597 567 567 567 l 646 567 q 708 573 689 567 q 731 601 726 579 q 736 671 736 624 l 736 813 q 729 879 736 857 q 700 909 722 901 q 632 917 678 917 l 521 917 q 453 909 475 917 q 424 879 431 901 q 417 813 417 857 l 417 579 q 389 549 417 549 q 361 579 361 549 l 361 813 q 354 879 361 857 q 325 909 347 901 q 257 917 303 917 l 132 917 q 64 909 86 917 q 35 879 42 901 q 28 813 28 857 l 28 160 m 289 -87 l 303 -160 q 327 -216 311 -201 q 383 -231 343 -231 l 390 -231 q 449 -217 431 -231 q 474 -160 468 -203 l 485 -87 q 478 -21 492 -42 q 415 0 464 0 l 358 0 q 296 -21 311 0 q 289 -87 281 -42 z "},"L":{"ha":750,"x_min":-28,"x_max":778,"o":"m 132 0 q 6 37 39 0 q -28 160 -28 74 l -28 813 q 7 936 -28 900 q 132 972 42 972 l 257 972 q 382 936 347 972 q 417 813 417 900 l 417 646 q 521 667 454 667 l 618 667 q 743 630 708 667 q 778 507 778 593 l 778 160 q 744 36 778 72 q 618 0 711 0 l 132 0 m 28 160 q 35 93 28 115 q 64 63 42 71 q 132 56 86 56 l 618 56 q 686 63 664 56 q 715 93 708 71 q 722 160 722 115 l 722 507 q 715 574 722 551 q 686 603 708 596 q 618 611 664 611 l 521 611 q 453 603 475 611 q 424 574 431 596 q 417 507 417 551 l 417 315 q 389 285 417 285 q 361 315 361 285 l 361 813 q 354 879 361 857 q 325 909 347 901 q 257 917 303 917 l 132 917 q 64 909 86 917 q 35 879 42 901 q 28 813 28 857 l 28 160 z "},"Ĺ":{"ha":750,"x_min":-28,"x_max":778,"o":"m 132 0 q 6 37 39 0 q -28 160 -28 74 l -28 813 q -17 895 -28 863 q 18 946 -7 928 q -11 1025 -11 974 q 16 1108 -11 1076 q 122 1171 43 1139 l 215 1208 q 342 1216 293 1240 q 390 1126 390 1192 l 390 1039 q 367 949 390 976 q 406 898 394 931 q 417 813 417 865 l 417 646 q 521 667 454 667 l 618 667 q 743 630 708 667 q 778 507 778 593 l 778 160 q 744 36 778 72 q 618 0 711 0 l 132 0 m 28 160 q 35 93 28 115 q 64 63 42 71 q 132 56 86 56 l 618 56 q 686 63 664 56 q 715 93 708 71 q 722 160 722 115 l 722 507 q 715 574 722 551 q 686 603 708 596 q 618 611 664 611 l 521 611 q 453 603 475 611 q 424 574 431 596 q 417 507 417 551 l 417 315 q 389 285 417 285 q 361 315 361 285 l 361 813 q 354 879 361 857 q 325 909 347 901 q 257 917 303 917 l 132 917 q 64 909 86 917 q 35 879 42 901 q 28 813 28 857 l 28 160 m 44 1031 q 62 986 44 1000 q 129 972 79 972 l 247 972 q 317 986 300 972 q 335 1039 335 1000 l 335 1113 q 311 1169 335 1156 q 228 1158 288 1183 l 132 1118 q 63 1078 81 1096 q 44 1031 44 1061 z "},"Ľ":{"ha":750,"x_min":-28,"x_max":778,"o":"m 132 0 q 6 37 39 0 q -28 160 -28 74 l -28 813 q 7 936 -28 900 q 132 972 42 972 l 257 972 q 365 950 329 972 q 406 1027 372 1004 q 513 1050 440 1050 l 542 1050 q 666 1012 633 1050 q 688 879 699 974 l 676 779 q 667 713 672 740 q 651 665 661 685 q 750 622 722 660 q 778 507 778 585 l 778 160 q 744 36 778 72 q 618 0 711 0 l 132 0 m 28 160 q 35 93 28 115 q 64 63 42 71 q 132 56 86 56 l 618 56 q 686 63 664 56 q 715 93 708 71 q 722 160 722 115 l 722 507 q 715 574 722 551 q 686 603 708 596 q 618 611 664 611 l 521 611 q 453 603 475 611 q 424 574 431 596 q 417 507 417 551 l 417 315 q 389 285 417 285 q 361 315 361 285 l 361 813 q 354 879 361 857 q 325 909 347 901 q 257 917 303 917 l 132 917 q 64 909 86 917 q 35 879 42 901 q 28 813 28 857 l 28 160 m 422 879 l 433 779 q 447 706 439 731 q 472 674 456 682 q 517 667 489 667 l 539 667 q 583 674 567 667 q 607 706 599 682 q 621 779 615 731 l 632 879 q 623 973 640 951 q 542 994 606 994 l 513 994 q 431 973 449 994 q 422 879 414 951 z "},"Ļ":{"ha":750,"x_min":-28,"x_max":778,"o":"m 132 0 q 6 37 39 0 q -28 160 -28 74 l -28 813 q 7 936 -28 900 q 132 972 42 972 l 257 972 q 382 936 347 972 q 417 813 417 900 l 417 646 q 521 667 454 667 l 618 667 q 743 630 708 667 q 778 507 778 593 l 778 160 q 744 36 778 72 q 618 0 711 0 l 519 0 q 526 -87 535 -31 l 514 -160 q 476 -258 501 -231 q 378 -286 450 -286 l 371 -286 q 273 -258 299 -286 q 235 -160 247 -231 l 222 -87 q 229 0 214 -31 l 132 0 m 28 160 q 35 93 28 115 q 64 63 42 71 q 132 56 86 56 l 618 56 q 686 63 664 56 q 715 93 708 71 q 722 160 722 115 l 722 507 q 715 574 722 551 q 686 603 708 596 q 618 611 664 611 l 521 611 q 453 603 475 611 q 424 574 431 596 q 417 507 417 551 l 417 315 q 389 285 417 285 q 361 315 361 285 l 361 813 q 354 879 361 857 q 325 909 347 901 q 257 917 303 917 l 132 917 q 64 909 86 917 q 35 879 42 901 q 28 813 28 857 l 28 160 m 276 -87 l 290 -160 q 315 -216 299 -201 q 371 -231 331 -231 l 378 -231 q 437 -217 418 -231 q 461 -160 456 -203 l 472 -87 q 465 -21 479 -42 q 403 0 451 0 l 346 0 q 283 -21 299 0 q 276 -87 268 -42 z "},"Ł":{"ha":882,"x_min":-28,"x_max":910,"o":"m 292 0 q 189 15 224 0 q 143 65 154 31 q 132 160 132 100 l 132 363 l 111 358 q 7 372 42 344 q -28 464 -28 400 l -28 540 q 2 642 -28 606 q 111 694 32 678 l 132 699 l 132 813 q 167 936 132 900 q 292 972 201 972 l 417 972 q 514 958 479 972 q 563 903 549 943 q 578 783 578 863 l 611 789 q 750 674 750 814 l 750 604 q 710 500 750 532 l 750 500 q 875 463 840 500 q 910 340 910 426 l 910 160 q 876 35 910 69 q 750 0 843 0 l 292 0 m 28 467 q 47 418 28 428 q 111 417 65 408 l 133 421 q 188 376 188 432 l 188 160 q 194 93 188 115 q 224 63 201 71 q 292 56 246 56 l 750 56 q 817 63 794 56 q 847 93 839 71 q 854 160 854 115 l 854 340 q 847 407 854 385 q 818 437 840 429 q 750 444 796 444 l 681 444 q 613 437 635 444 q 583 407 590 429 q 576 340 576 385 l 576 315 q 549 285 576 285 q 521 315 521 285 l 521 461 q 554 500 521 494 l 597 508 q 675 539 656 519 q 694 601 694 558 l 694 671 q 677 727 694 715 q 611 731 660 739 l 558 721 q 521 743 521 715 q 514 863 521 826 q 485 908 507 899 q 417 917 463 917 l 292 917 q 224 909 246 917 q 194 879 201 901 q 188 813 188 857 l 188 685 q 156 646 188 653 l 111 636 q 42 606 56 624 q 28 543 28 588 l 28 467 z "},"M":{"ha":944,"x_min":-28,"x_max":972,"o":"m 132 0 q 7 36 42 0 q -28 160 -28 72 l -28 813 q 7 936 -28 900 q 132 972 42 972 l 340 972 q 472 928 439 972 q 604 972 506 972 l 813 972 q 938 936 903 972 q 972 813 972 900 l 972 160 q 938 36 972 72 q 813 0 903 0 l 746 0 q 625 43 660 0 q 503 0 593 0 l 451 0 q 319 44 353 0 q 188 0 286 0 l 132 0 m 28 160 q 35 93 28 115 q 64 63 42 71 q 132 56 86 56 l 188 56 q 256 63 233 56 q 285 93 278 71 q 292 160 292 115 l 292 439 q 319 469 292 469 q 347 439 347 469 l 347 160 q 354 93 347 115 q 383 63 361 71 q 451 56 406 56 l 493 56 q 561 63 539 56 q 590 93 583 71 q 597 160 597 115 l 597 439 q 625 469 597 469 q 653 439 653 469 l 653 160 q 660 93 653 115 q 689 63 667 71 q 757 56 711 56 l 813 56 q 881 63 858 56 q 910 93 903 71 q 917 160 917 115 l 917 813 q 910 879 917 857 q 881 909 903 901 q 813 917 858 917 l 604 917 q 536 909 558 917 q 507 879 514 901 q 500 813 500 857 l 500 704 q 472 674 500 674 q 444 704 444 674 l 444 813 q 438 879 444 857 q 408 909 431 901 q 340 917 386 917 l 132 917 q 64 909 86 917 q 35 879 42 901 q 28 813 28 857 l 28 160 z "},"N":{"ha":889,"x_min":-28,"x_max":917,"o":"m 132 0 q 6 36 39 0 q -28 160 -28 72 l -28 813 q 6 937 -28 901 q 132 972 39 972 l 424 972 q 556 928 521 972 q 688 972 590 972 l 757 972 q 884 937 851 972 q 917 813 917 901 l 917 160 q 884 36 917 72 q 757 0 851 0 l 438 0 q 306 44 340 0 q 174 0 271 0 l 132 0 m 28 160 q 35 93 28 115 q 64 63 42 71 q 132 56 86 56 l 174 56 q 242 63 219 56 q 271 93 264 71 q 278 160 278 115 l 278 564 q 306 594 278 594 q 333 564 333 594 l 333 160 q 340 93 333 115 q 369 63 347 71 q 438 56 392 56 l 757 56 q 825 63 803 56 q 854 93 847 71 q 861 160 861 115 l 861 813 q 854 879 861 857 q 825 909 847 901 q 757 917 803 917 l 688 917 q 619 909 642 917 q 590 879 597 901 q 583 813 583 857 l 583 385 q 556 354 583 354 q 528 385 528 354 l 528 813 q 521 879 528 857 q 492 909 514 901 q 424 917 469 917 l 132 917 q 64 909 86 917 q 35 879 42 901 q 28 813 28 857 l 28 160 z "},"Ń":{"ha":889,"x_min":-28,"x_max":917,"o":"m 132 0 q 6 36 39 0 q -28 160 -28 72 l -28 813 q 6 937 -28 901 q 132 972 39 972 l 254 972 q 244 1025 244 992 q 272 1108 244 1076 q 378 1171 299 1139 l 471 1208 q 597 1216 549 1240 q 646 1126 646 1192 l 646 1039 q 644 999 646 1017 q 635 968 642 982 q 688 972 658 972 l 757 972 q 884 937 851 972 q 917 813 917 901 l 917 160 q 884 36 917 72 q 757 0 851 0 l 438 0 q 306 44 340 0 q 174 0 271 0 l 132 0 m 28 160 q 35 93 28 115 q 64 63 42 71 q 132 56 86 56 l 174 56 q 242 63 219 56 q 271 93 264 71 q 278 160 278 115 l 278 564 q 306 594 278 594 q 333 564 333 594 l 333 160 q 340 93 333 115 q 369 63 347 71 q 438 56 392 56 l 757 56 q 825 63 803 56 q 854 93 847 71 q 861 160 861 115 l 861 813 q 854 879 861 857 q 825 909 847 901 q 757 917 803 917 l 688 917 q 619 909 642 917 q 590 879 597 901 q 583 813 583 857 l 583 385 q 556 354 583 354 q 528 385 528 354 l 528 813 q 521 879 528 857 q 492 909 514 901 q 424 917 469 917 l 132 917 q 64 909 86 917 q 35 879 42 901 q 28 813 28 857 l 28 160 m 300 1031 q 317 986 300 1000 q 385 972 335 972 l 503 972 q 573 986 556 972 q 590 1039 590 1000 l 590 1113 q 567 1169 590 1156 q 483 1158 543 1183 l 388 1118 q 318 1078 336 1096 q 300 1031 300 1061 z "},"Ň":{"ha":889,"x_min":-28,"x_max":917,"o":"m 132 0 q 6 36 39 0 q -28 160 -28 72 l -28 813 q 6 937 -28 901 q 132 972 39 972 l 296 972 l 178 1093 q 144 1188 144 1128 q 163 1250 144 1231 q 225 1269 181 1269 l 343 1269 q 449 1232 418 1269 q 554 1269 481 1269 l 672 1269 q 735 1250 717 1269 q 753 1188 753 1231 q 719 1093 753 1128 l 581 950 q 688 972 617 972 l 757 972 q 884 937 851 972 q 917 813 917 901 l 917 160 q 884 36 917 72 q 757 0 851 0 l 438 0 q 306 44 340 0 q 174 0 271 0 l 132 0 m 28 160 q 35 93 28 115 q 64 63 42 71 q 132 56 86 56 l 174 56 q 242 63 219 56 q 271 93 264 71 q 278 160 278 115 l 278 564 q 306 594 278 594 q 333 564 333 594 l 333 160 q 340 93 333 115 q 369 63 347 71 q 438 56 392 56 l 757 56 q 825 63 803 56 q 854 93 847 71 q 861 160 861 115 l 861 813 q 854 879 861 857 q 825 909 847 901 q 757 917 803 917 l 688 917 q 619 909 642 917 q 590 879 597 901 q 583 813 583 857 l 583 385 q 556 354 583 354 q 528 385 528 354 l 528 813 q 521 879 528 857 q 492 909 514 901 q 424 917 469 917 l 132 917 q 64 909 86 917 q 35 879 42 901 q 28 813 28 857 l 28 160 m 201 1176 q 215 1135 201 1150 l 350 997 q 403 972 374 972 l 494 972 q 549 996 525 972 l 685 1136 q 696 1176 696 1149 q 690 1207 696 1200 q 669 1214 685 1214 l 560 1214 q 495 1197 514 1214 q 476 1131 476 1181 q 449 1092 476 1092 q 421 1131 421 1092 q 402 1197 421 1181 q 338 1214 383 1214 l 228 1214 q 207 1207 213 1214 q 201 1176 201 1200 m 556 929 l 556 928 q 556 929 556 929 q 557 931 557 929 q 556 929 557 929 q 556 929 556 929 z "},"Ņ":{"ha":889,"x_min":-28,"x_max":917,"o":"m 132 0 q 6 36 39 0 q -28 160 -28 72 l -28 813 q 6 937 -28 901 q 132 972 39 972 l 424 972 q 556 928 521 972 q 688 972 590 972 l 757 972 q 884 937 851 972 q 917 813 917 901 l 917 160 q 884 36 917 72 q 757 0 851 0 l 589 0 q 596 -87 604 -31 l 583 -160 q 545 -258 571 -231 q 447 -286 519 -286 l 440 -286 q 342 -258 368 -286 q 304 -160 317 -231 l 292 -87 q 321 29 278 -7 q 306 44 313 36 q 174 0 271 0 l 132 0 m 28 160 q 35 93 28 115 q 64 63 42 71 q 132 56 86 56 l 174 56 q 242 63 219 56 q 271 93 264 71 q 278 160 278 115 l 278 564 q 306 594 278 594 q 333 564 333 594 l 333 160 q 340 93 333 115 q 369 63 347 71 q 438 56 392 56 l 757 56 q 825 63 803 56 q 854 93 847 71 q 861 160 861 115 l 861 813 q 854 879 861 857 q 825 909 847 901 q 757 917 803 917 l 688 917 q 619 909 642 917 q 590 879 597 901 q 583 813 583 857 l 583 385 q 556 354 583 354 q 528 385 528 354 l 528 813 q 521 879 528 857 q 492 909 514 901 q 424 917 469 917 l 132 917 q 64 909 86 917 q 35 879 42 901 q 28 813 28 857 l 28 160 m 346 -87 l 360 -160 q 384 -216 368 -201 q 440 -231 400 -231 l 447 -231 q 506 -217 488 -231 q 531 -160 525 -203 l 542 -87 q 535 -21 549 -42 q 472 0 521 0 l 415 0 q 353 -21 368 0 q 346 -87 338 -42 z "},"Ñ":{"ha":889,"x_min":-28,"x_max":917,"o":"m 132 0 q 6 36 39 0 q -28 160 -28 72 l -28 813 q 6 937 -28 901 q 132 972 39 972 l 163 972 q 115 1143 115 1024 q 143 1253 115 1222 q 253 1283 171 1283 q 357 1243 326 1283 q 426 1275 381 1265 q 549 1285 472 1285 q 687 1265 635 1285 q 763 1195 739 1244 q 788 1058 788 1146 q 785 1009 788 1031 q 775 972 782 988 q 887 933 857 969 q 917 813 917 897 l 917 160 q 884 36 917 72 q 757 0 851 0 l 438 0 q 306 44 340 0 q 174 0 271 0 l 132 0 m 28 160 q 35 93 28 115 q 64 63 42 71 q 132 56 86 56 l 174 56 q 242 63 219 56 q 271 93 264 71 q 278 160 278 115 l 278 564 q 306 594 278 594 q 333 564 333 594 l 333 160 q 340 93 333 115 q 369 63 347 71 q 438 56 392 56 l 757 56 q 825 63 803 56 q 854 93 847 71 q 861 160 861 115 l 861 813 q 854 879 861 857 q 825 909 847 901 q 757 917 803 917 l 688 917 q 619 909 642 917 q 590 879 597 901 q 583 813 583 857 l 583 385 q 556 354 583 354 q 528 385 528 354 l 528 813 q 521 879 528 857 q 492 909 514 901 q 424 917 469 917 l 132 917 q 64 909 86 917 q 35 879 42 901 q 28 813 28 857 l 28 160 m 171 1143 q 187 1038 171 1075 q 243 986 203 1000 q 354 972 283 972 q 462 980 426 974 q 509 1006 497 986 q 521 1067 521 1026 q 528 1101 521 1093 q 549 1110 535 1110 q 570 1101 564 1110 q 576 1067 576 1093 q 582 1005 576 1025 q 603 979 588 985 q 650 974 619 974 q 706 978 689 974 q 727 1001 722 983 q 732 1058 732 1019 q 716 1165 732 1128 q 660 1215 700 1201 q 549 1229 621 1229 q 442 1222 478 1229 q 394 1196 406 1215 q 382 1135 382 1176 q 376 1100 382 1108 q 354 1092 369 1092 q 333 1100 340 1092 q 326 1135 326 1108 q 321 1197 326 1178 q 299 1222 315 1217 q 253 1228 283 1228 q 198 1223 215 1228 q 176 1200 181 1218 q 171 1143 171 1182 m 533 949 q 556 928 549 939 q 561 934 558 931 q 565 939 564 938 q 546 958 554 947 l 533 949 z "},"O":{"ha":788,"x_min":-28,"x_max":815,"o":"m 299 0 q 50 74 128 0 q -28 326 -28 147 l -28 646 q 53 898 -28 824 q 299 972 133 972 l 489 972 q 735 898 654 972 q 815 646 815 824 l 815 326 q 738 74 815 147 q 489 0 660 0 l 299 0 m 28 326 q 55 165 28 225 q 142 81 82 106 q 299 56 201 56 l 489 56 q 647 81 588 56 q 733 165 706 106 q 760 326 760 225 l 760 646 q 697 856 760 796 q 489 917 633 917 l 299 917 q 91 856 154 917 q 28 646 28 796 l 28 326 m 365 322 l 365 647 q 394 678 365 678 q 422 647 422 678 l 422 322 q 394 293 422 293 q 365 322 365 293 z "},"Ó":{"ha":788,"x_min":-28,"x_max":815,"o":"m 299 0 q 50 74 128 0 q -28 326 -28 147 l -28 646 q 29 870 -28 794 q 201 965 86 946 q 188 1025 188 988 q 215 1108 188 1076 q 321 1171 242 1139 l 414 1208 q 540 1216 492 1240 q 589 1126 589 1192 l 589 1039 q 576 967 589 994 q 756 874 697 949 q 815 646 815 799 l 815 326 q 738 74 815 147 q 489 0 660 0 l 299 0 m 28 326 q 55 165 28 225 q 142 81 82 106 q 299 56 201 56 l 489 56 q 647 81 588 56 q 733 165 706 106 q 760 326 760 225 l 760 646 q 697 856 760 796 q 489 917 633 917 l 299 917 q 91 856 154 917 q 28 646 28 796 l 28 326 m 243 1031 q 260 986 243 1000 q 328 972 278 972 l 446 972 q 516 986 499 972 q 533 1039 533 1000 l 533 1113 q 510 1169 533 1156 q 426 1158 486 1183 l 331 1118 q 261 1078 279 1096 q 243 1031 243 1061 m 365 322 l 365 647 q 394 678 365 678 q 422 647 422 678 l 422 322 q 394 293 422 293 q 365 322 365 293 z "},"Ô":{"ha":788,"x_min":-28,"x_max":815,"o":"m 299 0 q 50 74 128 0 q -28 326 -28 147 l -28 646 q 6 831 -28 761 q 108 936 40 901 q 90 999 90 956 q 124 1093 90 1058 l 265 1239 q 297 1262 281 1254 q 336 1269 313 1269 l 453 1269 q 492 1262 476 1269 q 524 1239 508 1254 l 665 1093 q 699 999 699 1058 q 681 936 699 954 q 782 831 749 901 q 815 646 815 761 l 815 326 q 738 74 815 147 q 489 0 660 0 l 299 0 m 28 326 q 55 165 28 225 q 142 81 82 106 q 299 56 201 56 l 489 56 q 647 81 588 56 q 733 165 706 106 q 760 326 760 225 l 760 646 q 697 856 760 796 q 489 917 633 917 l 299 917 q 91 856 154 917 q 28 646 28 796 l 28 326 m 147 1010 q 153 980 147 988 q 174 972 158 972 l 283 972 q 348 989 329 972 q 367 1056 367 1006 q 394 1094 367 1094 q 422 1056 422 1094 q 441 989 422 1006 q 506 972 460 972 l 615 972 q 636 980 631 972 q 642 1010 642 988 q 628 1051 642 1036 l 493 1189 q 440 1214 469 1214 l 349 1214 q 294 1190 318 1214 l 158 1050 q 147 1010 147 1038 m 365 322 l 365 647 q 394 678 365 678 q 422 647 422 678 l 422 322 q 394 293 422 293 q 365 322 365 293 z "},"Ö":{"ha":788,"x_min":-28,"x_max":815,"o":"m 299 0 q 50 74 128 0 q -28 326 -28 147 l -28 646 q 5 830 -28 760 q 104 935 38 900 q 68 980 78 950 q 58 1056 58 1010 q 87 1163 58 1132 q 204 1193 115 1193 l 276 1193 q 394 1163 365 1193 q 513 1193 425 1193 l 585 1193 q 676 1181 644 1193 q 719 1138 707 1168 q 731 1054 731 1107 q 722 978 731 1007 q 685 933 713 949 q 783 828 750 899 q 815 646 815 758 l 815 326 q 738 74 815 147 q 489 0 660 0 l 299 0 m 28 326 q 55 165 28 225 q 142 81 82 106 q 299 56 201 56 l 489 56 q 647 81 588 56 q 733 165 706 106 q 760 326 760 225 l 760 646 q 697 856 760 796 q 489 917 633 917 l 299 917 q 91 856 154 917 q 28 646 28 796 l 28 326 m 114 1056 q 119 1001 114 1018 q 143 978 124 983 q 204 972 163 972 l 276 972 q 338 978 319 972 q 362 1001 357 983 q 367 1056 367 1018 q 362 1110 367 1093 q 338 1133 357 1128 q 276 1138 319 1138 l 204 1138 q 143 1133 163 1138 q 119 1110 124 1128 q 114 1056 114 1093 m 365 322 l 365 647 q 394 678 365 678 q 422 647 422 678 l 422 322 q 394 293 422 293 q 365 322 365 293 m 422 1056 q 427 1001 422 1018 q 451 978 432 983 q 513 972 471 972 l 585 972 q 647 978 628 972 q 670 1001 665 983 q 675 1056 675 1018 q 670 1110 675 1093 q 647 1133 665 1128 q 585 1138 628 1138 l 513 1138 q 451 1133 471 1138 q 427 1110 432 1128 q 422 1056 422 1093 z "},"Ò":{"ha":788,"x_min":-28,"x_max":815,"o":"m 299 0 q 50 74 128 0 q -28 326 -28 147 l -28 646 q 29 872 -28 796 q 204 965 86 947 q 192 1039 192 993 l 192 1126 q 240 1216 192 1192 q 367 1208 289 1240 l 460 1171 q 566 1108 539 1139 q 593 1025 593 1076 q 581 967 593 990 q 758 873 700 949 q 815 646 815 797 l 815 326 q 738 74 815 147 q 489 0 660 0 l 299 0 m 28 326 q 55 165 28 225 q 142 81 82 106 q 299 56 201 56 l 489 56 q 647 81 588 56 q 733 165 706 106 q 760 326 760 225 l 760 646 q 697 856 760 796 q 489 917 633 917 l 299 917 q 91 856 154 917 q 28 646 28 796 l 28 326 m 247 1039 q 265 986 247 1000 q 335 972 283 972 l 453 972 q 520 986 503 972 q 538 1031 538 1000 q 519 1078 538 1061 q 450 1118 501 1096 l 354 1158 q 271 1169 294 1183 q 247 1113 247 1156 l 247 1039 m 365 322 l 365 647 q 394 678 365 678 q 422 647 422 678 l 422 322 q 394 293 422 293 q 365 322 365 293 z "},"Ő":{"ha":788,"x_min":-28,"x_max":815,"o":"m 299 0 q 50 74 128 0 q -28 326 -28 147 l -28 646 q 3 824 -28 754 q 94 929 33 893 q 28 1031 28 951 q 58 1118 28 1088 q 169 1179 89 1149 l 250 1210 q 362 1214 315 1235 q 418 1133 408 1193 q 457 1155 435 1144 q 508 1175 479 1165 l 590 1206 q 710 1207 663 1233 q 758 1106 758 1181 l 758 1053 q 745 972 758 1001 q 693 929 732 942 q 785 824 754 893 q 815 646 815 756 l 815 326 q 738 74 815 147 q 489 0 660 0 l 299 0 m 28 326 q 55 165 28 225 q 142 81 82 106 q 299 56 201 56 l 489 56 q 647 81 588 56 q 733 165 706 106 q 760 326 760 225 l 760 646 q 697 856 760 796 q 489 917 633 917 l 299 917 q 91 856 154 917 q 28 646 28 796 l 28 326 m 83 1031 q 104 986 83 1000 q 196 972 125 972 l 250 972 q 344 988 324 972 q 365 1053 365 1003 l 365 1097 q 338 1162 365 1146 q 250 1154 310 1178 l 169 1122 q 101 1084 118 1101 q 83 1031 83 1067 m 365 322 l 365 647 q 394 678 365 678 q 422 647 422 678 l 422 322 q 394 293 422 293 q 365 322 365 293 m 421 1031 q 442 986 421 1000 q 533 972 463 972 l 588 972 q 682 988 661 972 q 703 1053 703 1003 l 703 1097 q 676 1160 703 1146 q 589 1150 650 1174 l 508 1118 q 439 1082 457 1099 q 421 1031 421 1065 z "},"Ō":{"ha":788,"x_min":-28,"x_max":815,"o":"m 299 0 q 50 74 128 0 q -28 326 -28 147 l -28 646 q 19 856 -28 782 q 164 957 67 931 q 147 999 151 974 q 143 1056 143 1024 q 172 1163 143 1132 q 289 1193 200 1193 l 500 1193 q 591 1181 560 1193 q 634 1138 622 1168 q 646 1054 646 1107 q 642 997 646 1021 q 626 957 638 972 q 769 856 722 931 q 815 646 815 782 l 815 326 q 738 74 815 147 q 489 0 660 0 l 299 0 m 28 326 q 55 165 28 225 q 142 81 82 106 q 299 56 201 56 l 489 56 q 647 81 588 56 q 733 165 706 106 q 760 326 760 225 l 760 646 q 697 856 760 796 q 489 917 633 917 l 299 917 q 91 856 154 917 q 28 646 28 796 l 28 326 m 199 1056 q 203 1001 199 1018 q 228 978 208 983 q 289 972 247 972 l 500 972 q 562 978 543 972 q 585 1001 581 983 q 590 1056 590 1018 q 585 1110 590 1093 q 562 1133 581 1128 q 500 1138 543 1138 l 289 1138 q 228 1133 247 1138 q 203 1110 208 1128 q 199 1056 199 1093 m 365 322 l 365 647 q 394 678 365 678 q 422 647 422 678 l 422 322 q 394 293 422 293 q 365 322 365 293 z "},"Ø":{"ha":801,"x_min":-28,"x_max":829,"o":"m 135 -126 q 51 -97 76 -126 q 47 7 26 -67 l 58 47 q -4 147 19 79 q -28 325 -28 215 l -28 646 q 47 900 -28 828 q 278 972 122 972 l 376 972 q 428 1067 393 1038 q 536 1097 463 1097 l 671 1097 q 748 1063 725 1097 q 750 951 771 1028 l 742 924 q 806 825 782 893 q 829 646 829 757 l 829 325 q 755 72 829 144 q 524 -1 681 -1 l 424 -1 q 372 -99 406 -72 q 265 -126 338 -126 l 135 -126 m 28 325 q 49 166 28 224 q 104 81 69 108 q 117 64 115 72 q 114 36 119 56 l 103 0 q 102 -55 90 -39 q 156 -71 114 -71 l 282 -71 q 339 -55 322 -71 q 367 6 356 -39 l 372 28 q 385 49 376 43 q 408 54 393 54 l 524 54 q 667 78 613 54 q 748 163 722 103 q 774 325 774 222 l 774 646 q 753 805 774 747 q 697 890 733 863 q 685 908 688 899 q 688 935 682 917 l 694 958 q 698 1022 708 1003 q 650 1042 688 1042 l 519 1042 q 465 1024 479 1042 q 432 951 450 1006 l 429 943 q 416 922 424 928 q 393 917 408 917 l 278 917 q 135 892 190 917 q 53 809 79 868 q 28 646 28 750 l 28 325 m 372 311 l 372 368 q 400 400 372 400 q 429 368 429 400 l 429 311 q 400 279 429 279 q 372 311 372 279 m 372 603 l 372 660 q 401 692 372 692 q 429 660 429 692 l 429 603 q 401 571 429 571 q 372 603 372 571 z "},"Õ":{"ha":788,"x_min":-28,"x_max":815,"o":"m 299 0 q 50 74 128 0 q -28 326 -28 147 l -28 646 q 13 845 -28 772 q 136 949 53 918 q 58 1143 58 994 q 86 1253 58 1222 q 196 1283 114 1283 q 300 1243 269 1283 q 369 1275 324 1265 q 492 1285 415 1285 q 630 1265 578 1285 q 706 1195 682 1244 q 731 1058 731 1146 q 721 978 731 1008 q 683 935 711 949 q 783 829 750 900 q 815 646 815 758 l 815 326 q 738 74 815 147 q 489 0 660 0 l 299 0 m 28 326 q 55 165 28 225 q 142 81 82 106 q 299 56 201 56 l 489 56 q 647 81 588 56 q 733 165 706 106 q 760 326 760 225 l 760 646 q 697 856 760 796 q 489 917 633 917 l 299 917 q 91 856 154 917 q 28 646 28 796 l 28 326 m 114 1143 q 130 1038 114 1075 q 186 986 146 1000 q 297 972 226 972 q 405 980 369 974 q 452 1006 440 986 q 464 1067 464 1026 q 471 1101 464 1093 q 492 1110 478 1110 q 513 1101 507 1110 q 519 1067 519 1093 q 525 1005 519 1025 q 547 979 531 985 q 593 974 563 974 q 649 978 632 974 q 670 1001 665 983 q 675 1058 675 1019 q 659 1165 675 1128 q 603 1215 643 1201 q 492 1229 564 1229 q 385 1222 421 1229 q 337 1196 349 1215 q 325 1135 325 1176 q 319 1100 325 1108 q 297 1092 313 1092 q 276 1100 283 1092 q 269 1135 269 1108 q 264 1197 269 1178 q 242 1222 258 1217 q 196 1228 226 1228 q 141 1223 158 1228 q 119 1200 124 1218 q 114 1143 114 1182 m 365 322 l 365 647 q 394 678 365 678 q 422 647 422 678 l 422 322 q 394 293 422 293 q 365 322 365 293 z "},"Œ":{"ha":1061,"x_min":-28,"x_max":1089,"o":"m 313 0 q 52 76 132 0 q -28 326 -28 153 l -28 646 q 54 898 -28 824 q 313 972 136 972 l 929 972 q 1056 936 1024 972 q 1089 813 1089 900 l 1089 763 q 1081 682 1089 714 q 1053 632 1074 650 q 1081 581 1074 614 q 1089 499 1089 547 q 1081 418 1089 450 q 1053 367 1074 386 q 1081 316 1074 349 q 1089 235 1089 283 l 1089 160 q 1056 36 1089 72 q 929 0 1024 0 l 313 0 m 28 326 q 92 117 28 179 q 313 56 157 56 l 929 56 q 997 63 975 56 q 1026 93 1019 71 q 1033 160 1033 115 l 1033 235 q 1028 305 1033 283 q 1005 333 1024 326 q 943 339 986 339 l 790 339 q 763 367 763 339 q 790 394 763 394 l 943 394 q 1005 401 986 394 q 1028 429 1024 407 q 1033 499 1033 451 q 1028 569 1033 547 q 1005 598 1024 592 q 943 604 986 604 l 790 604 q 763 632 763 604 q 790 660 763 660 l 943 660 q 1005 666 986 660 q 1028 694 1024 672 q 1033 764 1033 717 l 1033 813 q 1026 879 1033 857 q 997 909 1019 901 q 929 917 975 917 l 313 917 q 94 856 160 917 q 28 646 28 796 l 28 326 m 365 350 l 365 619 q 394 650 365 650 q 422 619 422 650 l 422 350 q 394 321 422 321 q 365 350 365 321 z "},"P":{"ha":736,"x_min":-28,"x_max":764,"o":"m 132 0 q 7 36 42 0 q -28 160 -28 72 l -28 813 q 7 936 -28 900 q 132 972 42 972 l 438 972 q 683 892 601 972 q 764 646 764 811 l 764 392 q 729 269 764 307 q 604 232 694 232 l 456 232 q 435 227 440 232 q 431 207 431 222 l 431 160 q 396 36 431 72 q 271 0 361 0 l 132 0 m 28 160 q 35 93 28 115 q 64 63 42 71 q 132 56 86 56 l 271 56 q 339 63 317 56 q 368 93 361 71 q 375 160 375 115 l 375 243 q 422 288 375 288 l 604 288 q 672 295 650 288 q 701 325 694 303 q 708 392 708 347 l 708 646 q 643 853 708 789 q 438 917 578 917 l 132 917 q 64 909 86 917 q 35 879 42 901 q 28 813 28 857 l 28 160 m 350 517 l 350 676 q 379 706 350 706 q 407 676 407 706 l 407 517 q 379 488 407 488 q 358 496 367 488 q 350 517 350 504 z "},"Þ":{"ha":764,"x_min":-28,"x_max":792,"o":"m 132 0 q 7 36 42 0 q -28 160 -28 72 l -28 947 q 7 1071 -28 1035 q 132 1107 42 1107 l 271 1107 q 396 1071 361 1107 q 431 947 431 1035 l 431 914 q 435 894 431 900 q 456 889 440 889 l 522 889 q 722 809 651 889 q 792 576 792 729 l 792 544 q 721 311 792 390 q 521 232 650 232 l 456 232 q 435 227 440 232 q 431 207 431 222 l 431 160 q 396 36 431 72 q 271 0 361 0 l 132 0 m 28 160 q 35 93 28 115 q 64 63 42 71 q 132 56 86 56 l 271 56 q 339 63 317 56 q 368 93 361 71 q 375 160 375 115 l 375 243 q 422 288 375 288 l 507 288 q 736 544 736 288 l 736 576 q 507 833 736 833 l 422 833 q 375 878 375 833 l 375 947 q 368 1014 375 992 q 339 1044 361 1036 q 271 1051 317 1051 l 132 1051 q 64 1044 86 1051 q 35 1014 42 1036 q 28 947 28 992 l 28 160 m 350 489 l 350 632 q 358 653 350 644 q 379 661 367 661 q 407 632 407 661 l 407 489 q 379 460 407 460 q 358 468 367 460 q 350 489 350 476 z "},"Q":{"ha":788,"x_min":-28,"x_max":815,"o":"m 517 -139 q 390 -106 424 -139 q 357 -17 357 -74 q 339 0 357 0 l 283 0 q 47 83 122 0 q -28 326 -28 167 l -28 646 q 53 893 -28 814 q 299 972 135 972 l 489 972 q 737 890 658 972 q 815 646 815 807 l 815 336 q 808 253 815 285 q 781 206 800 222 q 808 158 800 189 q 815 76 815 126 l 815 -7 q 783 -106 815 -74 q 656 -139 750 -139 l 517 -139 m 28 326 q 92 122 28 189 q 299 54 156 54 l 363 54 q 399 44 389 54 q 410 6 410 33 l 410 0 q 417 -53 410 -35 q 448 -77 425 -71 q 517 -83 471 -83 l 656 -83 q 742 -68 725 -83 q 760 -7 760 -53 l 760 74 q 755 144 760 122 q 731 172 750 165 q 669 178 713 178 l 590 178 q 558 206 558 178 q 590 233 558 233 l 669 233 q 731 240 713 233 q 755 268 750 246 q 760 338 760 290 l 760 646 q 696 850 760 783 q 489 917 632 917 l 299 917 q 92 851 157 917 q 28 646 28 786 l 28 326 m 364 364 l 364 649 q 393 678 364 678 q 421 649 421 678 l 421 364 q 393 335 421 335 q 364 364 364 335 z "},"R":{"ha":778,"x_min":-28,"x_max":806,"o":"m 132 0 q 6 38 39 0 q -28 160 -28 75 l -28 813 q 7 936 -28 900 q 132 972 42 972 l 479 972 q 727 892 649 972 q 806 646 806 811 l 806 614 q 798 535 806 567 q 769 483 790 503 q 798 434 790 465 q 806 354 806 403 l 806 160 q 771 37 806 74 q 646 0 736 0 l 521 0 q 389 44 424 0 q 257 0 354 0 l 132 0 m 28 160 q 35 92 28 114 q 64 63 42 69 q 132 56 86 56 l 257 56 q 325 63 303 56 q 354 92 347 69 q 361 160 361 114 l 361 300 q 389 331 361 331 q 417 300 417 331 l 417 160 q 424 92 417 114 q 453 63 431 69 q 521 56 475 56 l 646 56 q 714 63 692 56 q 743 92 736 69 q 750 160 750 114 l 750 351 q 745 422 750 400 q 722 449 740 443 q 660 456 703 456 l 593 456 q 563 483 563 456 q 593 511 563 511 l 660 511 q 722 517 703 511 q 745 546 740 524 q 750 615 750 568 l 750 646 q 687 853 750 789 q 479 917 624 917 l 132 917 q 64 909 86 917 q 35 879 42 901 q 28 813 28 857 l 28 160 m 364 506 l 364 646 q 393 678 364 678 q 421 646 421 678 l 421 506 q 393 474 421 474 q 364 506 364 474 z "},"Ŕ":{"ha":778,"x_min":-28,"x_max":806,"o":"m 132 0 q 6 38 39 0 q -28 160 -28 75 l -28 813 q 7 936 -28 900 q 132 972 42 972 l 192 972 q 182 1025 182 992 q 209 1108 182 1076 q 315 1171 236 1139 l 408 1208 q 535 1216 486 1240 q 583 1126 583 1192 l 583 1039 q 571 965 583 993 q 749 867 692 946 q 806 646 806 788 l 806 614 q 798 535 806 567 q 769 483 790 503 q 798 434 790 465 q 806 354 806 403 l 806 160 q 771 37 806 74 q 646 0 736 0 l 521 0 q 389 44 424 0 q 257 0 354 0 l 132 0 m 28 160 q 35 92 28 114 q 64 63 42 69 q 132 56 86 56 l 257 56 q 325 63 303 56 q 354 92 347 69 q 361 160 361 114 l 361 300 q 389 331 361 331 q 417 300 417 331 l 417 160 q 424 92 417 114 q 453 63 431 69 q 521 56 475 56 l 646 56 q 714 63 692 56 q 743 92 736 69 q 750 160 750 114 l 750 351 q 745 422 750 400 q 722 449 740 443 q 660 456 703 456 l 593 456 q 563 483 563 456 q 593 511 563 511 l 660 511 q 722 517 703 511 q 745 546 740 524 q 750 615 750 568 l 750 646 q 687 853 750 789 q 479 917 624 917 l 132 917 q 64 909 86 917 q 35 879 42 901 q 28 813 28 857 l 28 160 m 238 1031 q 255 986 238 1000 q 322 972 272 972 l 440 972 q 510 986 493 972 q 528 1039 528 1000 l 528 1113 q 504 1169 528 1156 q 421 1158 481 1183 l 325 1118 q 256 1078 274 1096 q 238 1031 238 1061 m 364 506 l 364 646 q 393 678 364 678 q 421 646 421 678 l 421 506 q 393 474 421 474 q 364 506 364 474 z "},"Ř":{"ha":778,"x_min":-28,"x_max":806,"o":"m 132 0 q 6 38 39 0 q -28 160 -28 75 l -28 813 q 7 936 -28 900 q 132 972 42 972 l 233 972 l 115 1093 q 82 1188 82 1128 q 100 1250 82 1231 q 163 1269 118 1269 l 281 1269 q 386 1232 356 1269 q 492 1269 418 1269 l 610 1269 q 672 1250 654 1269 q 690 1188 690 1231 q 657 1093 690 1128 l 538 969 q 741 877 676 957 q 806 646 806 797 l 806 614 q 798 535 806 567 q 769 483 790 503 q 798 434 790 465 q 806 354 806 403 l 806 160 q 771 37 806 74 q 646 0 736 0 l 521 0 q 389 44 424 0 q 257 0 354 0 l 132 0 m 28 160 q 35 92 28 114 q 64 63 42 69 q 132 56 86 56 l 257 56 q 325 63 303 56 q 354 92 347 69 q 361 160 361 114 l 361 300 q 389 331 361 331 q 417 300 417 331 l 417 160 q 424 92 417 114 q 453 63 431 69 q 521 56 475 56 l 646 56 q 714 63 692 56 q 743 92 736 69 q 750 160 750 114 l 750 351 q 745 422 750 400 q 722 449 740 443 q 660 456 703 456 l 593 456 q 563 483 563 456 q 593 511 563 511 l 660 511 q 722 517 703 511 q 745 546 740 524 q 750 615 750 568 l 750 646 q 687 853 750 789 q 479 917 624 917 l 132 917 q 64 909 86 917 q 35 879 42 901 q 28 813 28 857 l 28 160 m 139 1176 q 153 1135 139 1150 l 288 997 q 340 972 311 972 l 432 972 q 486 996 463 972 l 622 1136 q 633 1176 633 1149 q 628 1207 633 1200 q 607 1214 622 1214 l 497 1214 q 433 1197 451 1214 q 414 1131 414 1181 q 386 1092 414 1092 q 358 1131 358 1092 q 340 1197 358 1181 q 275 1214 321 1214 l 165 1214 q 144 1207 150 1214 q 139 1176 139 1200 m 364 506 l 364 646 q 393 678 364 678 q 421 646 421 678 l 421 506 q 393 474 421 474 q 364 506 364 474 z "},"Ŗ":{"ha":778,"x_min":-28,"x_max":806,"o":"m 132 0 q 6 38 39 0 q -28 160 -28 75 l -28 813 q 7 936 -28 900 q 132 972 42 972 l 479 972 q 727 892 649 972 q 806 646 806 811 l 806 614 q 798 535 806 567 q 769 483 790 503 q 798 434 790 465 q 806 354 806 403 l 806 160 q 771 37 806 74 q 646 0 736 0 l 533 0 q 540 -87 549 -31 l 528 -160 q 490 -258 515 -231 q 392 -286 464 -286 l 385 -286 q 287 -258 313 -286 q 249 -160 261 -231 l 236 -87 q 243 0 228 -31 l 132 0 m 28 160 q 35 92 28 114 q 64 63 42 69 q 132 56 86 56 l 257 56 q 325 63 303 56 q 354 92 347 69 q 361 160 361 114 l 361 300 q 389 331 361 331 q 417 300 417 331 l 417 160 q 424 92 417 114 q 453 63 431 69 q 521 56 475 56 l 646 56 q 714 63 692 56 q 743 92 736 69 q 750 160 750 114 l 750 351 q 745 422 750 400 q 722 449 740 443 q 660 456 703 456 l 593 456 q 563 483 563 456 q 593 511 563 511 l 660 511 q 722 517 703 511 q 745 546 740 524 q 750 615 750 568 l 750 646 q 687 853 750 789 q 479 917 624 917 l 132 917 q 64 909 86 917 q 35 879 42 901 q 28 813 28 857 l 28 160 m 290 -87 l 304 -160 q 328 -216 313 -201 q 385 -231 344 -231 l 392 -231 q 451 -217 432 -231 q 475 -160 469 -203 l 486 -87 q 479 -21 493 -42 q 417 0 465 0 l 360 0 q 297 -21 313 0 q 290 -87 282 -42 m 364 506 l 364 646 q 393 678 364 678 q 421 646 421 678 l 421 506 q 393 474 421 474 q 364 506 364 474 z "},"S":{"ha":708,"x_min":-28,"x_max":736,"o":"m 132 0 q 6 35 39 0 q -28 160 -28 71 l -28 242 q -20 322 -28 290 q 8 372 -12 354 q -20 423 -12 392 q -28 504 -28 454 l -28 646 q 53 897 -28 822 q 299 972 133 972 l 576 972 q 701 937 667 972 q 736 813 736 901 l 736 731 q 728 651 736 683 q 700 600 721 619 q 728 550 721 582 q 736 469 736 518 l 736 326 q 656 75 736 150 q 410 0 575 0 l 132 0 m 28 160 q 35 93 28 115 q 64 63 42 71 q 132 56 86 56 l 410 56 q 617 116 553 56 q 681 326 681 176 l 681 468 q 676 538 681 517 q 652 566 671 560 q 590 572 633 572 l 322 572 q 292 600 292 572 q 322 628 292 628 l 590 628 q 652 634 633 628 q 676 663 671 640 q 681 732 681 685 l 681 813 q 674 879 681 857 q 644 909 667 901 q 576 917 622 917 l 299 917 q 92 856 156 917 q 28 646 28 796 l 28 504 q 33 435 28 457 q 57 406 38 413 q 118 400 76 400 l 344 400 q 375 372 375 400 q 344 344 375 344 l 118 344 q 57 338 76 344 q 33 310 38 332 q 28 240 28 289 l 28 160 z "},"Ś":{"ha":708,"x_min":-28,"x_max":736,"o":"m 132 0 q 6 35 39 0 q -28 160 -28 71 l -28 242 q -20 322 -28 290 q 8 372 -12 354 q -20 423 -12 392 q -28 504 -28 454 l -28 646 q 22 860 -28 785 q 172 958 71 935 q 154 1025 154 982 q 181 1108 154 1076 q 288 1171 208 1139 l 381 1208 q 507 1216 458 1240 q 556 1126 556 1192 l 556 1039 q 546 972 556 996 l 576 972 q 701 937 667 972 q 736 813 736 901 l 736 731 q 728 651 736 683 q 700 600 721 619 q 728 550 721 582 q 736 469 736 518 l 736 326 q 656 75 736 150 q 410 0 575 0 l 132 0 m 28 160 q 35 93 28 115 q 64 63 42 71 q 132 56 86 56 l 410 56 q 617 116 553 56 q 681 326 681 176 l 681 468 q 676 538 681 517 q 652 566 671 560 q 590 572 633 572 l 322 572 q 292 600 292 572 q 322 628 292 628 l 590 628 q 652 634 633 628 q 676 663 671 640 q 681 732 681 685 l 681 813 q 674 879 681 857 q 644 909 667 901 q 576 917 622 917 l 299 917 q 92 856 156 917 q 28 646 28 796 l 28 504 q 33 435 28 457 q 57 406 38 413 q 118 400 76 400 l 344 400 q 375 372 375 400 q 344 344 375 344 l 118 344 q 57 338 76 344 q 33 310 38 332 q 28 240 28 289 l 28 160 m 210 1031 q 227 986 210 1000 q 294 972 244 972 l 413 972 q 483 986 465 972 q 500 1039 500 1000 l 500 1113 q 476 1169 500 1156 q 393 1158 453 1183 l 297 1118 q 228 1078 246 1096 q 210 1031 210 1061 z "},"Š":{"ha":708,"x_min":-28,"x_max":736,"o":"m 132 0 q 6 35 39 0 q -28 160 -28 71 l -28 242 q -20 322 -28 290 q 8 372 -12 354 q -20 423 -12 392 q -28 504 -28 454 l -28 646 q 31 873 -28 797 q 211 967 90 949 l 88 1093 q 54 1188 54 1128 q 72 1250 54 1231 q 135 1269 90 1269 l 253 1269 q 358 1232 328 1269 q 464 1269 390 1269 l 582 1269 q 644 1250 626 1269 q 663 1188 663 1231 q 629 1093 663 1128 l 511 972 l 576 972 q 701 937 667 972 q 736 813 736 901 l 736 731 q 728 651 736 683 q 700 600 721 619 q 728 550 721 582 q 736 469 736 518 l 736 326 q 656 75 736 150 q 410 0 575 0 l 132 0 m 28 160 q 35 93 28 115 q 64 63 42 71 q 132 56 86 56 l 410 56 q 617 116 553 56 q 681 326 681 176 l 681 468 q 676 538 681 517 q 652 566 671 560 q 590 572 633 572 l 322 572 q 292 600 292 572 q 322 628 292 628 l 590 628 q 652 634 633 628 q 676 663 671 640 q 681 732 681 685 l 681 813 q 674 879 681 857 q 644 909 667 901 q 576 917 622 917 l 299 917 q 92 856 156 917 q 28 646 28 796 l 28 504 q 33 435 28 457 q 57 406 38 413 q 118 400 76 400 l 344 400 q 375 372 375 400 q 344 344 375 344 l 118 344 q 57 338 76 344 q 33 310 38 332 q 28 240 28 289 l 28 160 m 111 1176 q 125 1135 111 1150 l 260 997 q 313 972 283 972 l 404 972 q 458 996 435 972 l 594 1136 q 606 1176 606 1149 q 600 1207 606 1200 q 579 1214 594 1214 l 469 1214 q 405 1197 424 1214 q 386 1131 386 1181 q 358 1092 386 1092 q 331 1131 331 1092 q 312 1197 331 1181 q 247 1214 293 1214 l 138 1214 q 117 1207 122 1214 q 111 1176 111 1200 z "},"Ş":{"ha":708,"x_min":-28,"x_max":736,"o":"m 189 -331 q 99 -307 126 -331 q 72 -215 72 -283 q 88 -142 72 -168 q 139 -107 103 -115 q 124 -64 126 -90 q 121 -1 121 -37 q 6 31 40 -3 q -28 160 -28 64 l -28 242 q -20 322 -28 290 q 8 372 -12 354 q -20 423 -12 392 q -28 504 -28 454 l -28 646 q 53 897 -28 822 q 299 972 133 972 l 576 972 q 701 937 667 972 q 736 813 736 901 l 736 731 q 728 651 736 683 q 700 600 721 619 q 728 550 721 582 q 736 469 736 518 l 736 326 q 693 128 736 201 q 565 24 650 56 q 635 -135 635 -22 q 574 -283 635 -235 q 369 -331 514 -331 l 189 -331 m 28 160 q 35 93 28 115 q 64 63 42 71 q 132 56 86 56 l 135 56 q 178 13 178 56 l 178 -17 q 187 -74 178 -60 q 226 -87 196 -87 l 353 -87 q 385 -115 385 -87 q 353 -143 385 -143 l 197 -143 q 143 -159 158 -143 q 128 -215 128 -175 q 140 -265 128 -254 q 189 -275 153 -275 l 369 -275 q 534 -243 489 -275 q 579 -135 579 -211 q 544 -28 579 -57 q 424 0 508 0 l 360 0 q 328 28 328 0 q 360 56 328 56 l 431 56 q 617 116 554 56 q 681 326 681 176 l 681 468 q 676 538 681 517 q 652 566 671 560 q 590 572 633 572 l 315 572 q 285 600 285 572 q 315 628 285 628 l 590 628 q 652 634 633 628 q 676 663 671 640 q 681 732 681 685 l 681 813 q 674 879 681 857 q 644 909 667 901 q 576 917 622 917 l 299 917 q 92 856 156 917 q 28 646 28 796 l 28 504 q 33 435 28 457 q 57 406 38 413 q 118 400 76 400 l 351 400 q 382 372 382 400 q 351 344 382 344 l 118 344 q 57 338 76 344 q 33 310 38 332 q 28 240 28 289 l 28 160 z "},"Ș":{"ha":708,"x_min":-28,"x_max":736,"o":"m 132 0 q 6 35 39 0 q -28 160 -28 71 l -28 242 q -20 322 -28 290 q 8 372 -12 354 q -20 423 -12 392 q -28 504 -28 454 l -28 646 q 53 897 -28 822 q 299 972 133 972 l 576 972 q 701 937 667 972 q 736 813 736 901 l 736 731 q 728 651 736 683 q 700 600 721 619 q 728 550 721 582 q 736 469 736 518 l 736 326 q 676 99 736 175 q 496 6 617 24 q 506 -87 517 -28 l 493 -160 q 455 -258 481 -231 q 357 -286 429 -286 l 350 -286 q 252 -258 278 -286 q 214 -160 226 -231 l 201 -87 q 208 0 193 -31 l 132 0 m 28 160 q 35 93 28 115 q 64 63 42 71 q 132 56 86 56 l 410 56 q 617 116 553 56 q 681 326 681 176 l 681 468 q 676 538 681 517 q 652 566 671 560 q 590 572 633 572 l 322 572 q 292 600 292 572 q 322 628 292 628 l 590 628 q 652 634 633 628 q 676 663 671 640 q 681 732 681 685 l 681 813 q 674 879 681 857 q 644 909 667 901 q 576 917 622 917 l 299 917 q 92 856 156 917 q 28 646 28 796 l 28 504 q 33 435 28 457 q 57 406 38 413 q 118 400 76 400 l 344 400 q 375 372 375 400 q 344 344 375 344 l 118 344 q 57 338 76 344 q 33 310 38 332 q 28 240 28 289 l 28 160 m 256 -87 l 269 -160 q 294 -216 278 -201 q 350 -231 310 -231 l 357 -231 q 416 -217 397 -231 q 440 -160 435 -203 l 451 -87 q 444 -21 458 -42 q 382 0 431 0 l 325 0 q 263 -21 278 0 q 256 -87 247 -42 z "},"ẞ":{"ha":913,"x_min":-28,"x_max":940,"o":"m 132 0 q 7 36 42 0 q -28 160 -28 72 l -28 664 q 53 902 -28 832 q 292 972 135 972 l 651 972 q 828 915 782 972 q 858 750 875 858 l 843 653 q 807 556 832 589 q 940 381 940 547 l 940 313 q 910 120 940 188 q 810 26 879 53 q 628 0 742 0 l 506 0 q 422 8 454 0 q 372 38 390 15 q 243 0 339 0 l 132 0 m 28 160 q 35 93 28 115 q 64 63 42 71 q 132 56 86 56 l 243 56 q 311 63 289 56 q 340 93 333 71 q 347 160 347 115 l 347 504 q 373 619 347 588 q 479 650 399 650 l 489 650 q 521 622 521 650 q 489 594 521 594 l 479 594 q 428 589 444 594 q 407 565 411 583 q 403 504 403 546 l 403 476 q 408 413 403 436 q 432 381 413 390 q 493 372 451 372 l 531 372 q 563 344 563 372 q 531 317 563 317 l 493 317 q 432 310 451 317 q 408 283 413 304 q 403 213 403 261 l 403 146 q 409 85 403 104 q 438 60 415 65 q 507 56 460 56 l 628 56 q 784 75 728 56 q 863 149 840 94 q 885 313 885 204 l 885 371 q 865 474 885 447 q 794 500 844 500 l 675 500 q 644 528 644 500 q 675 556 644 556 l 678 556 q 752 575 726 556 q 788 653 778 594 l 803 750 q 786 878 817 839 q 651 917 756 917 l 292 917 q 90 858 153 917 q 28 646 28 799 l 28 160 z "},"T":{"ha":931,"x_min":-28,"x_max":958,"o":"m 410 0 q 283 35 315 0 q 250 160 250 71 l 250 297 q 146 278 215 278 l 132 278 q 6 315 39 278 q -28 438 -28 351 l -28 813 q 6 935 -28 899 q 132 972 39 972 l 799 972 q 925 935 892 972 q 958 813 958 899 l 958 438 q 925 315 958 351 q 799 278 892 278 l 788 278 q 681 297 714 278 l 681 160 q 649 37 681 74 q 521 0 617 0 l 410 0 m 28 438 q 35 371 28 393 q 64 341 42 349 q 132 333 86 333 l 146 333 q 214 341 192 333 q 243 371 236 349 q 250 438 250 393 l 250 618 q 278 650 250 650 q 306 618 306 650 l 306 160 q 313 93 306 115 q 342 63 319 71 q 410 56 364 56 l 521 56 q 589 63 567 56 q 618 93 611 71 q 625 160 625 115 l 625 618 q 653 650 625 650 q 681 618 681 650 l 681 438 q 688 371 681 393 q 717 341 694 349 q 785 333 739 333 l 799 333 q 867 341 844 333 q 896 371 889 349 q 903 438 903 393 l 903 813 q 896 879 903 857 q 867 909 889 901 q 799 917 844 917 l 132 917 q 64 909 86 917 q 35 879 42 901 q 28 813 28 857 l 28 438 z "},"Ť":{"ha":931,"x_min":-28,"x_max":958,"o":"m 410 0 q 283 35 315 0 q 250 160 250 71 l 250 297 q 146 278 215 278 l 132 278 q 6 315 39 278 q -28 438 -28 351 l -28 813 q 6 935 -28 899 q 132 972 39 972 l 310 972 l 192 1093 q 158 1188 158 1128 q 176 1250 158 1231 q 239 1269 194 1269 l 357 1269 q 463 1232 432 1269 q 568 1269 494 1269 l 686 1269 q 749 1250 731 1269 q 767 1188 767 1231 q 733 1093 767 1128 l 615 972 l 799 972 q 925 935 892 972 q 958 813 958 899 l 958 438 q 925 315 958 351 q 799 278 892 278 l 788 278 q 681 297 714 278 l 681 160 q 649 37 681 74 q 521 0 617 0 l 410 0 m 28 438 q 35 371 28 393 q 64 341 42 349 q 132 333 86 333 l 146 333 q 214 341 192 333 q 243 371 236 349 q 250 438 250 393 l 250 618 q 278 650 250 650 q 306 618 306 650 l 306 160 q 313 93 306 115 q 342 63 319 71 q 410 56 364 56 l 521 56 q 589 63 567 56 q 618 93 611 71 q 625 160 625 115 l 625 618 q 653 650 625 650 q 681 618 681 650 l 681 438 q 688 371 681 393 q 717 341 694 349 q 785 333 739 333 l 799 333 q 867 341 844 333 q 896 371 889 349 q 903 438 903 393 l 903 813 q 896 879 903 857 q 867 909 889 901 q 799 917 844 917 l 132 917 q 64 909 86 917 q 35 879 42 901 q 28 813 28 857 l 28 438 m 215 1176 q 229 1135 215 1150 l 364 997 q 417 972 388 972 l 508 972 q 563 996 539 972 l 699 1136 q 710 1176 710 1149 q 704 1207 710 1200 q 683 1214 699 1214 l 574 1214 q 509 1197 528 1214 q 490 1131 490 1181 q 463 1092 490 1092 q 435 1131 435 1092 q 416 1197 435 1181 q 351 1214 397 1214 l 242 1214 q 221 1207 226 1214 q 215 1176 215 1200 z "},"Ţ":{"ha":931,"x_min":-28,"x_max":958,"o":"m 397 -329 q 308 -306 335 -329 q 281 -215 281 -282 q 299 -137 281 -164 q 360 -106 317 -111 q 347 -64 350 -90 q 343 4 343 -37 l 343 10 q 273 57 296 22 q 250 160 250 92 l 250 297 q 146 278 215 278 l 132 278 q 6 315 39 278 q -28 438 -28 351 l -28 813 q 6 935 -28 899 q 132 972 39 972 l 799 972 q 925 935 892 972 q 958 813 958 899 l 958 438 q 925 315 958 351 q 799 278 892 278 l 788 278 q 681 297 711 278 l 681 160 q 676 99 681 125 q 660 54 671 74 q 765 5 729 47 q 801 -135 801 -37 q 743 -281 801 -233 q 550 -329 685 -329 l 397 -329 m 28 438 q 35 371 28 393 q 64 341 42 349 q 132 333 86 333 l 146 333 q 214 341 192 333 q 243 371 236 349 q 250 438 250 393 l 250 632 q 278 664 250 664 q 306 632 306 664 l 306 160 q 324 81 306 101 q 378 58 342 61 q 394 49 389 57 q 400 18 400 42 l 400 -15 q 409 -74 400 -60 q 449 -87 418 -87 l 547 -87 q 579 -115 579 -87 q 547 -143 579 -143 l 406 -143 q 351 -159 367 -143 q 336 -215 336 -175 q 349 -263 336 -253 q 397 -274 361 -274 l 550 -274 q 703 -242 660 -274 q 746 -135 746 -211 q 715 -28 746 -57 q 632 0 685 0 l 546 0 q 514 28 514 0 q 546 56 514 56 l 549 56 q 611 74 597 56 q 625 160 625 93 l 625 632 q 653 664 625 664 q 681 632 681 664 l 681 438 q 688 371 681 393 q 717 341 694 349 q 785 333 739 333 l 799 333 q 867 341 844 333 q 896 371 889 349 q 903 438 903 393 l 903 813 q 896 879 903 857 q 867 909 889 901 q 799 917 844 917 l 132 917 q 64 909 86 917 q 35 879 42 901 q 28 813 28 857 l 28 438 z "},"Ț":{"ha":931,"x_min":-28,"x_max":958,"o":"m 521 56 q 589 63 567 56 q 618 93 611 71 q 625 160 625 115 l 625 618 q 653 650 625 650 q 681 618 681 650 l 681 438 q 688 371 681 393 q 717 341 694 349 q 785 333 739 333 l 799 333 q 867 341 844 333 q 896 371 889 349 q 903 438 903 393 l 903 813 q 896 879 903 857 q 867 909 889 901 q 799 917 844 917 l 132 917 q 64 909 86 917 q 35 879 42 901 q 28 813 28 857 l 28 438 q 35 371 28 393 q 64 341 42 349 q 132 333 86 333 l 146 333 q 214 341 192 333 q 243 371 236 349 q 250 438 250 393 l 250 618 q 278 650 250 650 q 306 618 306 650 l 306 160 q 313 93 306 115 q 342 63 319 71 q 410 56 364 56 l 521 56 m -28 438 l -28 813 q 6 935 -28 899 q 132 972 39 972 l 799 972 q 925 935 892 972 q 958 813 958 899 l 958 438 q 925 315 958 351 q 799 278 892 278 l 788 278 q 681 297 714 278 l 681 160 q 665 60 681 96 q 604 10 649 25 q 617 -87 628 -24 l 604 -160 q 566 -258 592 -231 q 468 -286 540 -286 l 461 -286 q 363 -258 389 -286 q 325 -160 338 -231 l 313 -87 q 325 11 301 -25 q 266 60 282 25 q 250 160 250 96 l 250 297 q 146 278 215 278 l 132 278 q 6 315 39 278 q -28 438 -28 351 m 367 -87 l 381 -160 q 405 -216 389 -201 q 461 -231 421 -231 l 468 -231 q 527 -217 508 -231 q 551 -160 546 -203 l 563 -87 q 556 -21 569 -42 q 493 0 542 0 l 436 0 q 374 -21 389 0 q 367 -87 358 -42 z "},"U":{"ha":778,"x_min":-28,"x_max":806,"o":"m 299 0 q 49 73 126 0 q -28 317 -28 146 l -28 813 q 6 935 -28 899 q 132 972 39 972 l 257 972 q 389 928 354 972 q 521 972 424 972 l 646 972 q 772 935 739 972 q 806 813 806 899 l 806 317 q 770 129 806 199 q 663 30 735 60 q 479 0 590 0 l 299 0 m 28 317 q 56 162 28 219 q 143 80 83 104 q 299 56 203 56 l 479 56 q 635 79 575 56 q 722 160 694 103 q 750 317 750 218 l 750 813 q 743 879 750 857 q 714 909 736 901 q 646 917 692 917 l 521 917 q 453 909 475 917 q 424 879 431 901 q 417 813 417 857 l 417 343 q 389 313 417 313 q 361 343 361 313 l 361 813 q 354 879 361 857 q 325 909 347 901 q 257 917 303 917 l 132 917 q 64 909 86 917 q 35 879 42 901 q 28 813 28 857 l 28 317 z "},"Ú":{"ha":778,"x_min":-28,"x_max":806,"o":"m 299 0 q 49 73 126 0 q -28 317 -28 146 l -28 813 q 6 935 -28 899 q 132 972 39 972 l 192 972 q 182 1025 182 992 q 209 1108 182 1076 q 315 1171 236 1139 l 408 1208 q 535 1216 486 1240 q 583 1126 583 1192 l 583 1039 q 574 972 583 996 l 646 972 q 772 935 739 972 q 806 813 806 899 l 806 317 q 770 129 806 199 q 663 30 735 60 q 479 0 590 0 l 299 0 m 28 317 q 56 162 28 219 q 143 80 83 104 q 299 56 203 56 l 479 56 q 635 79 575 56 q 722 160 694 103 q 750 317 750 218 l 750 813 q 743 879 750 857 q 714 909 736 901 q 646 917 692 917 l 521 917 q 453 909 475 917 q 424 879 431 901 q 417 813 417 857 l 417 343 q 389 313 417 313 q 361 343 361 313 l 361 813 q 354 879 361 857 q 325 909 347 901 q 257 917 303 917 l 132 917 q 64 909 86 917 q 35 879 42 901 q 28 813 28 857 l 28 317 m 238 1031 q 255 986 238 1000 q 322 972 272 972 l 440 972 q 510 986 493 972 q 528 1039 528 1000 l 528 1113 q 504 1169 528 1156 q 421 1158 481 1183 l 325 1118 q 256 1078 274 1096 q 238 1031 238 1061 z "},"Û":{"ha":778,"x_min":-28,"x_max":806,"o":"m 299 0 q 49 73 126 0 q -28 317 -28 146 l -28 813 q -3 925 -28 888 q 88 969 22 963 q 85 983 86 976 q 85 999 85 990 q 118 1093 85 1058 l 260 1239 q 291 1262 275 1254 q 331 1269 307 1269 l 447 1269 q 487 1262 471 1269 q 518 1239 503 1254 l 660 1093 q 693 999 693 1058 q 692 983 693 990 q 690 969 692 976 q 781 925 756 963 q 806 813 806 888 l 806 317 q 770 129 806 199 q 663 30 735 60 q 479 0 590 0 l 299 0 m 28 317 q 56 162 28 219 q 143 80 83 104 q 299 56 203 56 l 479 56 q 635 79 575 56 q 722 160 694 103 q 750 317 750 218 l 750 813 q 743 879 750 857 q 714 909 736 901 q 646 917 692 917 l 521 917 q 453 909 475 917 q 424 879 431 901 q 417 813 417 857 l 417 343 q 389 313 417 313 q 361 343 361 313 l 361 813 q 354 879 361 857 q 325 909 347 901 q 257 917 303 917 l 132 917 q 64 909 86 917 q 35 879 42 901 q 28 813 28 857 l 28 317 m 142 1010 q 147 980 142 988 q 168 972 153 972 l 278 972 q 342 989 324 972 q 361 1056 361 1006 q 389 1094 361 1094 q 417 1056 417 1094 q 435 989 417 1006 q 500 972 454 972 l 610 972 q 631 980 625 972 q 636 1010 636 988 q 622 1051 636 1036 l 488 1189 q 435 1214 464 1214 l 343 1214 q 289 1190 313 1214 l 153 1050 q 142 1010 142 1038 m 376 942 q 383 935 379 939 q 389 928 386 932 q 395 935 392 932 q 401 942 399 939 l 389 954 q 383 948 386 951 q 376 942 379 944 z "},"Ü":{"ha":778,"x_min":-28,"x_max":806,"o":"m 299 0 q 49 73 126 0 q -28 317 -28 146 l -28 813 q -7 919 -28 882 q 68 967 14 956 q 53 1056 53 997 q 81 1163 53 1132 q 199 1193 110 1193 l 271 1193 q 389 1163 360 1193 q 507 1193 419 1193 l 579 1193 q 670 1181 639 1193 q 713 1138 701 1168 q 725 1054 725 1107 q 711 967 725 996 q 785 919 765 956 q 806 813 806 882 l 806 317 q 770 129 806 199 q 663 30 735 60 q 479 0 590 0 l 299 0 m 28 317 q 56 162 28 219 q 143 80 83 104 q 299 56 203 56 l 479 56 q 635 79 575 56 q 722 160 694 103 q 750 317 750 218 l 750 813 q 743 879 750 857 q 714 909 736 901 q 646 917 692 917 l 521 917 q 453 909 475 917 q 424 879 431 901 q 417 813 417 857 l 417 343 q 389 313 417 313 q 361 343 361 313 l 361 813 q 354 879 361 857 q 325 909 347 901 q 257 917 303 917 l 132 917 q 64 909 86 917 q 35 879 42 901 q 28 813 28 857 l 28 317 m 108 1056 q 113 1001 108 1018 q 138 978 118 983 q 199 972 157 972 l 271 972 q 333 978 314 972 q 356 1001 351 983 q 361 1056 361 1018 q 356 1110 361 1093 q 333 1133 351 1128 q 271 1138 314 1138 l 199 1138 q 138 1133 157 1138 q 113 1110 118 1128 q 108 1056 108 1093 m 379 939 q 389 928 386 932 q 394 934 392 931 q 399 939 397 938 l 389 947 q 379 939 383 942 m 417 1056 q 422 1001 417 1018 q 446 978 426 983 q 507 972 465 972 l 579 972 q 641 978 622 972 q 665 1001 660 983 q 669 1056 669 1018 q 665 1110 669 1093 q 641 1133 660 1128 q 579 1138 622 1138 l 507 1138 q 446 1133 465 1138 q 422 1110 426 1128 q 417 1056 417 1093 z "},"Ù":{"ha":778,"x_min":-28,"x_max":806,"o":"m 299 0 q 49 73 126 0 q -28 317 -28 146 l -28 813 q 6 935 -28 899 q 132 972 39 972 l 196 972 q 186 1039 186 996 l 186 1126 q 235 1216 186 1192 q 361 1208 283 1240 l 454 1171 q 560 1108 533 1139 q 588 1025 588 1076 q 578 972 588 992 l 646 972 q 772 935 739 972 q 806 813 806 899 l 806 317 q 770 129 806 199 q 663 30 735 60 q 479 0 590 0 l 299 0 m 28 317 q 56 162 28 219 q 143 80 83 104 q 299 56 203 56 l 479 56 q 635 79 575 56 q 722 160 694 103 q 750 317 750 218 l 750 813 q 743 879 750 857 q 714 909 736 901 q 646 917 692 917 l 521 917 q 453 909 475 917 q 424 879 431 901 q 417 813 417 857 l 417 343 q 389 313 417 313 q 361 343 361 313 l 361 813 q 354 879 361 857 q 325 909 347 901 q 257 917 303 917 l 132 917 q 64 909 86 917 q 35 879 42 901 q 28 813 28 857 l 28 317 m 242 1039 q 260 986 242 1000 q 329 972 278 972 l 447 972 q 515 986 497 972 q 532 1031 532 1000 q 514 1078 532 1061 q 444 1118 496 1096 l 349 1158 q 265 1169 289 1183 q 242 1113 242 1156 l 242 1039 z "},"Ű":{"ha":778,"x_min":-28,"x_max":806,"o":"m 299 0 q 49 73 126 0 q -28 317 -28 146 l -28 813 q -12 909 -28 874 q 42 960 3 944 q 22 1031 22 986 q 53 1118 22 1088 q 164 1179 83 1149 l 244 1210 q 356 1214 310 1235 q 413 1133 403 1193 q 451 1155 429 1144 q 503 1175 474 1165 l 585 1206 q 705 1207 657 1233 q 753 1106 753 1181 l 753 1053 q 732 960 753 990 q 790 910 774 946 q 806 813 806 874 l 806 317 q 770 129 806 199 q 663 30 735 60 q 479 0 590 0 l 299 0 m 28 317 q 56 162 28 219 q 143 80 83 104 q 299 56 203 56 l 479 56 q 635 79 575 56 q 722 160 694 103 q 750 317 750 218 l 750 813 q 743 879 750 857 q 714 909 736 901 q 646 917 692 917 l 521 917 q 453 909 475 917 q 424 879 431 901 q 417 813 417 857 l 417 343 q 389 313 417 313 q 361 343 361 313 l 361 813 q 354 879 361 857 q 325 909 347 901 q 257 917 303 917 l 132 917 q 64 909 86 917 q 35 879 42 901 q 28 813 28 857 l 28 317 m 78 1031 q 99 986 78 1000 q 190 972 119 972 l 244 972 q 339 988 318 972 q 360 1053 360 1003 l 360 1097 q 332 1162 360 1146 q 244 1154 304 1178 l 164 1122 q 95 1084 113 1101 q 78 1031 78 1067 m 376 942 q 383 935 379 939 q 389 928 386 932 q 400 940 392 932 q 388 950 392 944 q 382 946 385 949 q 376 942 379 943 m 415 1031 q 436 986 415 1000 q 528 972 457 972 l 582 972 q 676 988 656 972 q 697 1053 697 1003 l 697 1097 q 671 1160 697 1146 q 583 1150 644 1174 l 503 1118 q 433 1082 451 1099 q 415 1031 415 1065 z "},"Ū":{"ha":778,"x_min":-28,"x_max":806,"o":"m 299 0 q 49 73 126 0 q -28 317 -28 146 l -28 813 q 6 935 -28 899 q 132 972 39 972 l 150 972 q 140 1008 143 988 q 138 1056 138 1029 q 166 1163 138 1132 q 283 1193 194 1193 l 494 1193 q 585 1181 554 1193 q 628 1138 617 1168 q 640 1054 640 1107 q 638 1008 640 1028 q 629 972 636 988 l 646 972 q 772 935 739 972 q 806 813 806 899 l 806 317 q 770 129 806 199 q 663 30 735 60 q 479 0 590 0 l 299 0 m 28 317 q 56 162 28 219 q 143 80 83 104 q 299 56 203 56 l 479 56 q 635 79 575 56 q 722 160 694 103 q 750 317 750 218 l 750 813 q 743 879 750 857 q 714 909 736 901 q 646 917 692 917 l 521 917 q 453 909 475 917 q 424 879 431 901 q 417 813 417 857 l 417 343 q 389 313 417 313 q 361 343 361 313 l 361 813 q 354 879 361 857 q 325 909 347 901 q 257 917 303 917 l 132 917 q 64 909 86 917 q 35 879 42 901 q 28 813 28 857 l 28 317 m 193 1056 q 198 1001 193 1018 q 222 978 203 983 q 283 972 242 972 l 494 972 q 556 978 538 972 q 580 1001 575 983 q 585 1056 585 1018 q 580 1110 585 1093 q 556 1133 575 1128 q 494 1138 538 1138 l 283 1138 q 222 1133 242 1138 q 198 1110 203 1128 q 193 1056 193 1093 z "},"Ų":{"ha":779,"x_min":-28,"x_max":806,"o":"m 517 -231 q 375 -210 421 -247 q 329 -87 329 -172 l 329 0 l 299 0 q 51 76 129 0 q -28 319 -28 151 l -28 813 q 6 935 -28 899 q 132 972 39 972 l 257 972 q 389 928 354 972 q 521 972 424 972 l 646 972 q 772 935 739 972 q 806 813 806 899 l 806 319 q 771 133 806 203 q 675 32 736 64 q 706 -69 706 1 q 681 -173 706 -140 q 604 -215 657 -206 l 517 -231 m 28 319 q 92 115 28 175 q 299 56 157 56 l 346 56 q 382 13 382 56 l 382 -76 q 411 -164 382 -143 q 511 -174 440 -185 l 599 -160 q 638 -139 626 -156 q 650 -79 650 -122 q 640 -14 650 -28 q 608 0 631 0 l 535 0 q 503 7 513 0 q 494 28 494 14 q 528 56 494 56 l 535 56 q 692 114 633 56 q 750 319 750 172 l 750 813 q 743 879 750 857 q 714 909 736 901 q 646 917 692 917 l 521 917 q 453 909 475 917 q 424 879 431 901 q 417 813 417 857 l 417 357 q 389 326 417 326 q 361 357 361 326 l 361 813 q 354 879 361 857 q 325 909 347 901 q 257 917 303 917 l 132 917 q 64 909 86 917 q 35 879 42 901 q 28 813 28 857 l 28 319 z "},"Ů":{"ha":778,"x_min":-28,"x_max":806,"o":"m 299 0 q 49 73 126 0 q -28 317 -28 146 l -28 813 q 6 935 -28 899 q 132 972 39 972 l 139 972 q 109 1030 118 996 q 100 1111 100 1064 q 120 1222 100 1179 q 190 1284 140 1264 q 329 1304 240 1304 l 443 1304 q 624 1260 575 1304 q 672 1110 672 1215 q 664 1030 672 1064 q 636 972 656 996 l 646 972 q 772 935 739 972 q 806 813 806 899 l 806 317 q 770 129 806 199 q 663 30 735 60 q 479 0 590 0 l 299 0 m 28 317 q 56 162 28 219 q 143 80 83 104 q 299 56 203 56 l 479 56 q 635 79 575 56 q 722 160 694 103 q 750 317 750 218 l 750 813 q 743 879 750 857 q 714 909 736 901 q 646 917 692 917 l 521 917 q 453 909 475 917 q 424 879 431 901 q 417 813 417 857 l 417 343 q 389 313 417 313 q 361 343 361 313 l 361 813 q 354 879 361 857 q 325 909 347 901 q 257 917 303 917 l 132 917 q 64 909 86 917 q 35 879 42 901 q 28 813 28 857 l 28 317 m 156 1111 q 169 1029 156 1060 q 222 985 183 999 q 329 972 260 972 l 443 972 q 551 985 514 972 q 603 1029 589 999 q 617 1111 617 1060 q 603 1192 617 1163 q 551 1235 589 1222 q 443 1249 514 1249 l 329 1249 q 222 1235 260 1249 q 169 1192 183 1222 q 156 1111 156 1163 m 326 1110 q 358 1139 326 1139 l 414 1139 q 446 1110 446 1139 q 414 1082 446 1082 l 358 1082 q 326 1110 326 1082 z "},"V":{"ha":778,"x_min":-28,"x_max":806,"o":"m 129 0 q 5 37 38 0 q -28 160 -28 74 l -28 813 q 7 935 -28 899 q 132 972 42 972 l 257 972 q 389 928 354 972 q 521 972 424 972 l 646 972 q 771 935 736 972 q 806 813 806 899 l 806 354 q 719 83 806 165 q 451 0 633 0 l 129 0 m 28 160 q 34 93 28 115 q 62 63 40 71 q 129 56 83 56 l 451 56 q 680 125 610 56 q 750 354 750 194 l 750 813 q 743 879 750 857 q 714 909 736 901 q 646 917 692 917 l 521 917 q 453 909 475 917 q 424 879 431 901 q 417 813 417 857 l 417 331 q 389 294 417 294 q 361 331 361 294 l 361 813 q 354 879 361 857 q 325 909 347 901 q 257 917 303 917 l 132 917 q 64 909 86 917 q 35 879 42 901 q 28 813 28 857 l 28 160 z "},"W":{"ha":944,"x_min":-28,"x_max":972,"o":"m 813 972 q 938 936 903 972 q 972 813 972 900 l 972 160 q 938 36 972 72 q 813 0 903 0 l 604 0 q 472 44 506 0 q 340 0 439 0 l 132 0 q 7 36 42 0 q -28 160 -28 72 l -28 813 q 7 936 -28 900 q 132 972 42 972 l 199 972 q 319 929 285 972 q 442 972 351 972 l 493 972 q 625 928 592 972 q 757 972 658 972 l 813 972 m 28 160 q 35 93 28 115 q 64 63 42 71 q 132 56 86 56 l 340 56 q 408 63 386 56 q 438 93 431 71 q 444 160 444 115 l 444 268 q 472 299 444 299 q 500 268 500 299 l 500 160 q 507 93 500 115 q 536 63 514 71 q 604 56 558 56 l 813 56 q 881 63 858 56 q 910 93 903 71 q 917 160 917 115 l 917 813 q 910 879 917 857 q 881 909 903 901 q 813 917 858 917 l 757 917 q 689 909 711 917 q 660 879 667 901 q 653 813 653 857 l 653 533 q 625 503 653 503 q 597 533 597 503 l 597 813 q 590 879 597 857 q 561 909 583 901 q 493 917 539 917 l 451 917 q 383 909 406 917 q 354 879 361 901 q 347 813 347 857 l 347 533 q 319 503 347 503 q 292 533 292 503 l 292 813 q 285 879 292 857 q 256 909 278 901 q 188 917 233 917 l 132 917 q 64 909 86 917 q 35 879 42 901 q 28 813 28 857 l 28 160 z "},"Ẃ":{"ha":944,"x_min":-28,"x_max":972,"o":"m 813 972 q 938 936 903 972 q 972 813 972 900 l 972 160 q 938 36 972 72 q 813 0 903 0 l 604 0 q 472 44 506 0 q 340 0 439 0 l 132 0 q 7 36 42 0 q -28 160 -28 72 l -28 813 q 7 936 -28 900 q 132 972 42 972 l 199 972 q 285 956 254 972 q 265 1025 265 982 q 292 1108 265 1076 q 399 1171 319 1139 l 492 1208 q 618 1216 569 1240 q 667 1126 667 1192 l 667 1039 q 657 972 667 997 q 621 933 647 946 l 625 928 q 757 972 658 972 l 813 972 m 28 160 q 35 93 28 115 q 64 63 42 71 q 132 56 86 56 l 340 56 q 408 63 386 56 q 438 93 431 71 q 444 160 444 115 l 444 268 q 472 299 444 299 q 500 268 500 299 l 500 160 q 507 93 500 115 q 536 63 514 71 q 604 56 558 56 l 813 56 q 881 63 858 56 q 910 93 903 71 q 917 160 917 115 l 917 813 q 910 879 917 857 q 881 909 903 901 q 813 917 858 917 l 757 917 q 689 909 711 917 q 660 879 667 901 q 653 813 653 857 l 653 533 q 625 503 653 503 q 597 533 597 503 l 597 813 q 590 879 597 857 q 561 909 583 901 q 493 917 539 917 l 451 917 q 383 909 406 917 q 354 879 361 901 q 347 813 347 857 l 347 533 q 319 503 347 503 q 292 533 292 503 l 292 813 q 285 879 292 857 q 256 909 278 901 q 188 917 233 917 l 132 917 q 64 909 86 917 q 35 879 42 901 q 28 813 28 857 l 28 160 m 317 932 q 319 929 319 929 l 321 931 q 319 931 319 931 q 317 932 318 932 m 321 1031 q 338 986 321 1000 q 406 972 356 972 l 524 972 q 594 986 576 972 q 611 1039 611 1000 l 611 1113 q 588 1169 611 1156 q 504 1158 564 1183 l 408 1118 q 339 1078 357 1096 q 321 1031 321 1061 z "},"Ŵ":{"ha":944,"x_min":-28,"x_max":972,"o":"m 813 972 q 938 936 903 972 q 972 813 972 900 l 972 160 q 938 36 972 72 q 813 0 903 0 l 604 0 q 472 44 506 0 q 340 0 439 0 l 132 0 q 7 36 42 0 q -28 160 -28 72 l -28 813 q 7 936 -28 900 q 132 972 42 972 l 169 972 q 168 985 168 979 q 168 999 168 992 q 201 1093 168 1058 l 343 1239 q 374 1262 358 1254 q 414 1269 390 1269 l 531 1269 q 570 1262 554 1269 q 601 1239 586 1254 l 743 1093 q 776 999 776 1058 q 776 985 776 992 q 775 972 776 979 l 813 972 m 28 160 q 35 93 28 115 q 64 63 42 71 q 132 56 86 56 l 340 56 q 408 63 386 56 q 438 93 431 71 q 444 160 444 115 l 444 268 q 472 299 444 299 q 500 268 500 299 l 500 160 q 507 93 500 115 q 536 63 514 71 q 604 56 558 56 l 813 56 q 881 63 858 56 q 910 93 903 71 q 917 160 917 115 l 917 813 q 910 879 917 857 q 881 909 903 901 q 813 917 858 917 l 757 917 q 689 909 711 917 q 660 879 667 901 q 653 813 653 857 l 653 533 q 625 503 653 503 q 597 533 597 503 l 597 813 q 590 879 597 857 q 561 909 583 901 q 493 917 539 917 l 451 917 q 383 909 406 917 q 354 879 361 901 q 347 813 347 857 l 347 533 q 319 503 347 503 q 292 533 292 503 l 292 813 q 285 879 292 857 q 256 909 278 901 q 188 917 233 917 l 132 917 q 64 909 86 917 q 35 879 42 901 q 28 813 28 857 l 28 160 m 225 1010 q 231 980 225 988 q 251 972 236 972 l 361 972 q 426 989 407 972 q 444 1056 444 1006 q 472 1094 444 1094 q 500 1056 500 1094 q 519 989 500 1006 q 583 972 538 972 l 693 972 q 714 980 708 972 q 719 1010 719 988 q 706 1051 719 1036 l 571 1189 q 518 1214 547 1214 l 426 1214 q 372 1190 396 1214 l 236 1050 q 225 1010 225 1038 z "},"Ẅ":{"ha":944,"x_min":-28,"x_max":972,"o":"m 813 972 q 938 936 903 972 q 972 813 972 900 l 972 160 q 938 36 972 72 q 813 0 903 0 l 604 0 q 472 44 506 0 q 340 0 439 0 l 132 0 q 7 36 42 0 q -28 160 -28 72 l -28 813 q 7 936 -28 900 q 132 972 42 972 l 149 972 q 139 1008 142 988 q 136 1056 136 1029 q 165 1163 136 1132 q 282 1193 193 1193 l 354 1193 q 472 1163 443 1193 q 590 1193 503 1193 l 663 1193 q 753 1181 722 1193 q 797 1138 785 1168 q 808 1054 808 1107 q 806 1008 808 1028 q 797 972 804 988 l 813 972 m 28 160 q 35 93 28 115 q 64 63 42 71 q 132 56 86 56 l 340 56 q 408 63 386 56 q 438 93 431 71 q 444 160 444 115 l 444 268 q 472 299 444 299 q 500 268 500 299 l 500 160 q 507 93 500 115 q 536 63 514 71 q 604 56 558 56 l 813 56 q 881 63 858 56 q 910 93 903 71 q 917 160 917 115 l 917 813 q 910 879 917 857 q 881 909 903 901 q 813 917 858 917 l 757 917 q 689 909 711 917 q 660 879 667 901 q 653 813 653 857 l 653 533 q 625 503 653 503 q 597 533 597 503 l 597 813 q 590 879 597 857 q 561 909 583 901 q 493 917 539 917 l 451 917 q 383 909 406 917 q 354 879 361 901 q 347 813 347 857 l 347 533 q 319 503 347 503 q 292 533 292 503 l 292 813 q 285 879 292 857 q 256 909 278 901 q 188 917 233 917 l 132 917 q 64 909 86 917 q 35 879 42 901 q 28 813 28 857 l 28 160 m 192 1056 q 197 1001 192 1018 q 221 978 201 983 q 282 972 240 972 l 354 972 q 416 978 397 972 q 440 1001 435 983 q 444 1056 444 1018 q 440 1110 444 1093 q 416 1133 435 1128 q 354 1138 397 1138 l 282 1138 q 221 1133 240 1138 q 197 1110 201 1128 q 192 1056 192 1093 m 500 1056 q 505 1001 500 1018 q 529 978 510 983 q 590 972 549 972 l 663 972 q 724 978 706 972 q 748 1001 743 983 q 753 1056 753 1018 q 748 1110 753 1093 q 724 1133 743 1128 q 663 1138 706 1138 l 590 1138 q 529 1133 549 1138 q 505 1110 510 1128 q 500 1056 500 1093 z "},"Ẁ":{"ha":944,"x_min":-28,"x_max":972,"o":"m 813 972 q 938 936 903 972 q 972 813 972 900 l 972 160 q 938 36 972 72 q 813 0 903 0 l 604 0 q 472 44 506 0 q 340 0 439 0 l 132 0 q 7 36 42 0 q -28 160 -28 72 l -28 813 q 7 936 -28 900 q 132 972 42 972 l 199 972 q 290 954 256 972 q 269 1039 269 979 l 269 1126 q 318 1216 269 1192 q 444 1208 367 1240 l 538 1171 q 644 1108 617 1139 q 671 1025 671 1076 q 621 933 671 957 q 625 928 622 931 q 757 972 658 972 l 813 972 m 28 160 q 35 93 28 115 q 64 63 42 71 q 132 56 86 56 l 340 56 q 408 63 386 56 q 438 93 431 71 q 444 160 444 115 l 444 268 q 472 299 444 299 q 500 268 500 299 l 500 160 q 507 93 500 115 q 536 63 514 71 q 604 56 558 56 l 813 56 q 881 63 858 56 q 910 93 903 71 q 917 160 917 115 l 917 813 q 910 879 917 857 q 881 909 903 901 q 813 917 858 917 l 757 917 q 689 909 711 917 q 660 879 667 901 q 653 813 653 857 l 653 533 q 625 503 653 503 q 597 533 597 503 l 597 813 q 590 879 597 857 q 561 909 583 901 q 493 917 539 917 l 451 917 q 383 909 406 917 q 354 879 361 901 q 347 813 347 857 l 347 533 q 319 503 347 503 q 292 533 292 503 l 292 813 q 285 879 292 857 q 256 909 278 901 q 188 917 233 917 l 132 917 q 64 909 86 917 q 35 879 42 901 q 28 813 28 857 l 28 160 m 317 932 q 319 929 317 932 l 321 931 q 319 931 319 931 q 317 932 318 932 m 325 1039 q 343 986 325 1000 q 413 972 361 972 l 531 972 q 598 986 581 972 q 615 1031 615 1000 q 597 1078 615 1061 q 528 1118 579 1096 l 432 1158 q 349 1169 372 1183 q 325 1113 325 1156 l 325 1039 z "},"X":{"ha":778,"x_min":-28,"x_max":806,"o":"m 132 0 q 7 35 42 0 q -28 160 -28 71 l -28 367 q -20 447 -28 415 q 8 497 -12 479 q -20 549 -12 517 q -28 629 -28 581 l -28 813 q 7 937 -28 901 q 132 972 42 972 l 257 972 q 389 928 354 972 q 521 972 424 972 l 646 972 q 771 937 736 972 q 806 813 806 901 l 806 629 q 798 548 806 581 q 769 497 790 515 q 798 448 790 479 q 806 369 806 417 l 806 160 q 771 35 806 71 q 646 0 736 0 l 521 0 q 389 44 424 0 q 257 0 354 0 l 132 0 m 28 160 q 35 93 28 115 q 64 63 42 71 q 132 56 86 56 l 257 56 q 325 63 303 56 q 354 93 347 71 q 361 160 361 115 l 361 285 q 389 317 361 317 q 417 285 417 317 l 417 160 q 424 93 417 115 q 453 63 431 71 q 521 56 475 56 l 646 56 q 714 63 692 56 q 743 93 736 71 q 750 160 750 115 l 750 365 q 745 435 750 414 q 722 463 740 457 q 660 469 703 469 l 621 469 q 590 497 590 469 q 621 525 590 525 l 660 525 q 722 531 703 525 q 745 560 740 538 q 750 629 750 582 l 750 813 q 743 879 750 857 q 714 909 736 901 q 646 917 692 917 l 521 917 q 453 909 475 917 q 424 879 431 901 q 417 813 417 857 l 417 579 q 389 549 417 549 q 361 579 361 549 l 361 813 q 354 879 361 857 q 325 909 347 901 q 257 917 303 917 l 132 917 q 64 909 86 917 q 35 879 42 901 q 28 813 28 857 l 28 629 q 33 560 28 582 q 57 531 38 538 q 118 525 76 525 l 157 525 q 188 497 188 525 q 157 469 188 469 l 118 469 q 57 463 76 469 q 33 435 38 457 q 28 365 28 414 l 28 160 z "},"Y":{"ha":778,"x_min":-28,"x_max":806,"o":"m 310 0 q 197 34 226 0 q 167 140 167 68 l 167 206 q 149 226 167 226 l 136 226 q 51 244 88 226 q -7 304 14 261 q -28 425 -28 347 l -28 813 q 7 935 -28 899 q 132 972 42 972 l 257 972 q 389 928 354 972 q 521 972 424 972 l 646 972 q 771 935 736 972 q 806 813 806 899 l 806 424 q 761 268 806 310 q 642 226 717 226 l 629 226 q 611 206 611 226 l 611 140 q 580 33 611 67 q 461 0 549 0 l 310 0 m 28 424 q 57 306 28 335 q 133 278 86 278 l 174 278 q 222 224 222 278 l 222 160 q 229 93 222 115 q 258 63 236 71 q 326 56 281 56 l 451 56 q 519 63 497 56 q 549 93 542 71 q 556 160 556 115 l 556 224 q 604 278 556 278 l 644 278 q 721 306 692 278 q 750 424 750 335 l 750 813 q 743 879 750 857 q 714 909 736 901 q 646 917 692 917 l 521 917 q 453 909 475 917 q 424 879 431 901 q 417 813 417 857 l 417 550 q 389 510 417 510 q 361 550 361 510 l 361 813 q 354 879 361 857 q 325 909 347 901 q 257 917 303 917 l 132 917 q 64 909 86 917 q 35 879 42 901 q 28 813 28 857 l 28 424 z "},"Ý":{"ha":778,"x_min":-28,"x_max":806,"o":"m 310 0 q 197 34 226 0 q 167 140 167 68 l 167 206 q 149 226 167 226 l 136 226 q 51 244 88 226 q -7 304 14 261 q -28 425 -28 347 l -28 813 q 7 935 -28 899 q 132 972 42 972 l 192 972 q 182 1025 182 992 q 209 1108 182 1076 q 315 1171 236 1139 l 408 1208 q 535 1216 486 1240 q 583 1126 583 1192 l 583 1039 q 574 972 583 996 l 646 972 q 771 935 736 972 q 806 813 806 899 l 806 424 q 761 268 806 310 q 642 226 717 226 l 629 226 q 611 206 611 226 l 611 140 q 580 33 611 67 q 461 0 549 0 l 310 0 m 28 424 q 57 306 28 335 q 133 278 86 278 l 174 278 q 222 224 222 278 l 222 160 q 229 93 222 115 q 258 63 236 71 q 326 56 281 56 l 451 56 q 519 63 497 56 q 549 93 542 71 q 556 160 556 115 l 556 224 q 604 278 556 278 l 644 278 q 721 306 692 278 q 750 424 750 335 l 750 813 q 743 879 750 857 q 714 909 736 901 q 646 917 692 917 l 521 917 q 453 909 475 917 q 424 879 431 901 q 417 813 417 857 l 417 550 q 389 510 417 510 q 361 550 361 510 l 361 813 q 354 879 361 857 q 325 909 347 901 q 257 917 303 917 l 132 917 q 64 909 86 917 q 35 879 42 901 q 28 813 28 857 l 28 424 m 238 1031 q 255 986 238 1000 q 322 972 272 972 l 440 972 q 510 986 493 972 q 528 1039 528 1000 l 528 1113 q 504 1169 528 1156 q 421 1158 481 1183 l 325 1118 q 256 1078 274 1096 q 238 1031 238 1061 z "},"Ŷ":{"ha":778,"x_min":-28,"x_max":806,"o":"m 310 0 q 197 34 226 0 q 167 140 167 68 l 167 206 q 149 226 167 226 l 136 226 q 51 244 88 226 q -7 304 14 261 q -28 425 -28 347 l -28 813 q -2 924 -28 888 q 88 969 24 961 q 85 983 86 976 q 85 999 85 990 q 118 1093 85 1058 l 260 1239 q 291 1262 275 1254 q 331 1269 307 1269 l 447 1269 q 487 1262 471 1269 q 518 1239 503 1254 l 660 1093 q 693 999 693 1058 q 692 983 693 990 q 690 969 692 976 q 781 924 756 961 q 806 813 806 888 l 806 424 q 761 268 806 310 q 642 226 717 226 l 629 226 q 611 206 611 226 l 611 140 q 580 33 611 67 q 461 0 549 0 l 310 0 m 28 424 q 57 306 28 335 q 133 278 86 278 l 174 278 q 222 224 222 278 l 222 160 q 229 93 222 115 q 258 63 236 71 q 326 56 281 56 l 451 56 q 519 63 497 56 q 549 93 542 71 q 556 160 556 115 l 556 224 q 604 278 556 278 l 644 278 q 721 306 692 278 q 750 424 750 335 l 750 813 q 743 879 750 857 q 714 909 736 901 q 646 917 692 917 l 521 917 q 453 909 475 917 q 424 879 431 901 q 417 813 417 857 l 417 550 q 389 510 417 510 q 361 550 361 510 l 361 813 q 354 879 361 857 q 325 909 347 901 q 257 917 303 917 l 132 917 q 64 909 86 917 q 35 879 42 901 q 28 813 28 857 l 28 424 m 142 1010 q 147 980 142 988 q 168 972 153 972 l 278 972 q 342 989 324 972 q 361 1056 361 1006 q 389 1094 361 1094 q 417 1056 417 1094 q 435 989 417 1006 q 500 972 454 972 l 610 972 q 631 980 625 972 q 636 1010 636 988 q 622 1051 636 1036 l 488 1189 q 435 1214 464 1214 l 343 1214 q 289 1190 313 1214 l 153 1050 q 142 1010 142 1038 m 376 942 q 383 935 379 939 q 389 928 386 932 q 395 935 392 932 q 401 942 399 939 l 389 954 q 383 948 386 951 q 376 942 379 944 z "},"Ÿ":{"ha":778,"x_min":-28,"x_max":806,"o":"m 310 0 q 197 34 226 0 q 167 140 167 68 l 167 206 q 149 226 167 226 l 136 226 q 51 244 88 226 q -7 304 14 261 q -28 425 -28 347 l -28 813 q -6 919 -28 882 q 68 967 15 956 q 53 1056 53 997 q 81 1163 53 1132 q 199 1193 110 1193 l 271 1193 q 389 1163 360 1193 q 507 1193 419 1193 l 579 1193 q 670 1181 639 1193 q 713 1138 701 1168 q 725 1054 725 1107 q 711 967 725 996 q 785 918 764 954 q 806 813 806 882 l 806 424 q 761 268 806 310 q 642 226 717 226 l 629 226 q 611 206 611 226 l 611 140 q 580 33 611 67 q 461 0 549 0 l 310 0 m 28 424 q 57 306 28 335 q 133 278 86 278 l 174 278 q 222 224 222 278 l 222 160 q 229 93 222 115 q 258 63 236 71 q 326 56 281 56 l 451 56 q 519 63 497 56 q 549 93 542 71 q 556 160 556 115 l 556 224 q 604 278 556 278 l 644 278 q 721 306 692 278 q 750 424 750 335 l 750 813 q 743 879 750 857 q 714 909 736 901 q 646 917 692 917 l 521 917 q 453 909 475 917 q 424 879 431 901 q 417 813 417 857 l 417 550 q 389 510 417 510 q 361 550 361 510 l 361 813 q 354 879 361 857 q 325 909 347 901 q 257 917 303 917 l 132 917 q 64 909 86 917 q 35 879 42 901 q 28 813 28 857 l 28 424 m 108 1056 q 113 1001 108 1018 q 138 978 118 983 q 199 972 157 972 l 271 972 q 333 978 314 972 q 356 1001 351 983 q 361 1056 361 1018 q 356 1110 361 1093 q 333 1133 351 1128 q 271 1138 314 1138 l 199 1138 q 138 1133 157 1138 q 113 1110 118 1128 q 108 1056 108 1093 m 379 939 q 389 928 386 932 q 394 934 392 931 q 399 939 397 938 l 389 947 q 379 939 383 942 m 417 1056 q 422 1001 417 1018 q 446 978 426 983 q 507 972 465 972 l 579 972 q 641 978 622 972 q 665 1001 660 983 q 669 1056 669 1018 q 665 1110 669 1093 q 641 1133 660 1128 q 579 1138 622 1138 l 507 1138 q 446 1133 465 1138 q 422 1110 426 1128 q 417 1056 417 1093 z "},"Ỳ":{"ha":778,"x_min":-28,"x_max":806,"o":"m 310 0 q 197 34 226 0 q 167 140 167 68 l 167 206 q 149 226 167 226 l 136 226 q 51 244 88 226 q -7 304 14 261 q -28 425 -28 347 l -28 813 q 7 935 -28 899 q 132 972 42 972 l 196 972 q 186 1039 186 996 l 186 1126 q 235 1216 186 1192 q 361 1208 283 1240 l 454 1171 q 560 1108 533 1139 q 588 1025 588 1076 q 578 972 588 992 l 646 972 q 771 935 736 972 q 806 813 806 899 l 806 424 q 761 268 806 310 q 642 226 717 226 l 629 226 q 611 206 611 226 l 611 140 q 580 33 611 67 q 461 0 549 0 l 310 0 m 28 424 q 57 306 28 335 q 133 278 86 278 l 174 278 q 222 224 222 278 l 222 160 q 229 93 222 115 q 258 63 236 71 q 326 56 281 56 l 451 56 q 519 63 497 56 q 549 93 542 71 q 556 160 556 115 l 556 224 q 604 278 556 278 l 644 278 q 721 306 692 278 q 750 424 750 335 l 750 813 q 743 879 750 857 q 714 909 736 901 q 646 917 692 917 l 521 917 q 453 909 475 917 q 424 879 431 901 q 417 813 417 857 l 417 550 q 389 510 417 510 q 361 550 361 510 l 361 813 q 354 879 361 857 q 325 909 347 901 q 257 917 303 917 l 132 917 q 64 909 86 917 q 35 879 42 901 q 28 813 28 857 l 28 424 m 242 1039 q 260 986 242 1000 q 329 972 278 972 l 447 972 q 515 986 497 972 q 532 1031 532 1000 q 514 1078 532 1061 q 444 1118 496 1096 l 349 1158 q 265 1169 289 1183 q 242 1113 242 1156 l 242 1039 z "},"Z":{"ha":710,"x_min":-28,"x_max":738,"o":"m 132 0 q 6 38 39 0 q -28 160 -28 75 l -28 478 q -20 552 -28 522 q 8 600 -12 582 q -20 651 -12 619 q -28 731 -28 683 l -28 813 q 6 935 -28 897 q 132 972 39 972 l 576 972 q 703 935 669 972 q 736 813 736 897 l 738 504 q 730 423 738 456 q 700 372 722 390 q 728 322 721 354 q 736 242 736 290 l 736 160 q 703 38 736 75 q 576 0 669 0 l 132 0 m 28 160 q 35 93 28 115 q 64 63 42 71 q 132 56 86 56 l 576 56 q 644 63 622 56 q 674 93 667 71 q 681 160 681 115 l 681 240 q 676 310 681 289 q 652 338 671 332 q 590 344 633 344 l 378 344 q 347 372 347 344 q 378 400 347 400 l 590 400 q 651 406 632 400 q 675 435 669 413 q 681 504 681 457 l 681 813 q 674 879 681 857 q 644 909 667 901 q 576 917 622 917 l 132 917 q 64 909 86 917 q 35 879 42 901 q 28 813 28 857 l 28 732 q 33 663 28 685 q 57 634 38 640 q 118 628 76 628 l 347 628 q 375 600 375 628 q 347 572 375 572 l 118 572 q 57 566 76 572 q 33 538 38 560 q 28 468 28 517 l 28 160 z "},"Ź":{"ha":710,"x_min":-28,"x_max":738,"o":"m 132 0 q 6 38 39 0 q -28 160 -28 75 l -28 478 q -20 552 -28 522 q 8 600 -12 582 q -20 651 -12 619 q -28 731 -28 683 l -28 813 q 6 935 -28 897 q 132 972 39 972 l 158 972 q 149 1025 149 992 q 176 1108 149 1076 q 282 1171 203 1139 l 375 1208 q 501 1216 453 1240 q 550 1126 550 1192 l 550 1039 q 540 972 550 996 l 576 972 q 703 935 669 972 q 736 813 736 897 l 738 504 q 730 423 738 456 q 700 372 722 390 q 728 322 721 354 q 736 242 736 290 l 736 160 q 703 38 736 75 q 576 0 669 0 l 132 0 m 28 160 q 35 93 28 115 q 64 63 42 71 q 132 56 86 56 l 576 56 q 644 63 622 56 q 674 93 667 71 q 681 160 681 115 l 681 240 q 676 310 681 289 q 652 338 671 332 q 590 344 633 344 l 378 344 q 347 372 347 344 q 378 400 347 400 l 590 400 q 651 406 632 400 q 675 435 669 413 q 681 504 681 457 l 681 813 q 674 879 681 857 q 644 909 667 901 q 576 917 622 917 l 132 917 q 64 909 86 917 q 35 879 42 901 q 28 813 28 857 l 28 732 q 33 663 28 685 q 57 634 38 640 q 118 628 76 628 l 347 628 q 375 600 375 628 q 347 572 375 572 l 118 572 q 57 566 76 572 q 33 538 38 560 q 28 468 28 517 l 28 160 m 204 1031 q 222 986 204 1000 q 289 972 239 972 l 407 972 q 477 986 460 972 q 494 1039 494 1000 l 494 1113 q 471 1169 494 1156 q 388 1158 447 1183 l 292 1118 q 222 1078 240 1096 q 204 1031 204 1061 z "},"Ž":{"ha":710,"x_min":-28,"x_max":738,"o":"m 132 0 q 6 38 39 0 q -28 160 -28 75 l -28 478 q -20 552 -28 522 q 8 600 -12 582 q -20 651 -12 619 q -28 731 -28 683 l -28 813 q 6 935 -28 897 q 132 972 39 972 l 200 972 l 82 1093 q 49 1188 49 1128 q 67 1250 49 1231 q 129 1269 85 1269 l 247 1269 q 353 1232 322 1269 q 458 1269 385 1269 l 576 1269 q 639 1250 621 1269 q 657 1188 657 1231 q 624 1093 657 1128 l 506 972 l 576 972 q 703 935 669 972 q 736 813 736 897 l 738 504 q 730 423 738 456 q 700 372 722 390 q 728 322 721 354 q 736 242 736 290 l 736 160 q 703 38 736 75 q 576 0 669 0 l 132 0 m 28 160 q 35 93 28 115 q 64 63 42 71 q 132 56 86 56 l 576 56 q 644 63 622 56 q 674 93 667 71 q 681 160 681 115 l 681 240 q 676 310 681 289 q 652 338 671 332 q 590 344 633 344 l 378 344 q 347 372 347 344 q 378 400 347 400 l 590 400 q 651 406 632 400 q 675 435 669 413 q 681 504 681 457 l 681 813 q 674 879 681 857 q 644 909 667 901 q 576 917 622 917 l 132 917 q 64 909 86 917 q 35 879 42 901 q 28 813 28 857 l 28 732 q 33 663 28 685 q 57 634 38 640 q 118 628 76 628 l 347 628 q 375 600 375 628 q 347 572 375 572 l 118 572 q 57 566 76 572 q 33 538 38 560 q 28 468 28 517 l 28 160 m 106 1176 q 119 1135 106 1150 l 254 997 q 307 972 278 972 l 399 972 q 453 996 429 972 l 589 1136 q 600 1176 600 1149 q 594 1207 600 1200 q 574 1214 589 1214 l 464 1214 q 399 1197 418 1214 q 381 1131 381 1181 q 353 1092 381 1092 q 325 1131 325 1092 q 306 1197 325 1181 q 242 1214 288 1214 l 132 1214 q 111 1207 117 1214 q 106 1176 106 1200 z "},"Ż":{"ha":710,"x_min":-28,"x_max":738,"o":"m 132 0 q 6 38 39 0 q -28 160 -28 75 l -28 478 q -20 552 -28 522 q 8 600 -12 582 q -20 651 -12 619 q -28 731 -28 683 l -28 813 q 6 935 -28 897 q 132 972 39 972 l 174 972 q 168 999 169 983 q 167 1032 167 1014 l 167 1076 q 195 1165 167 1138 q 313 1193 224 1193 l 399 1193 q 517 1166 489 1193 q 544 1076 544 1139 l 544 1033 q 536 972 544 997 l 576 972 q 703 935 669 972 q 736 813 736 897 l 738 504 q 730 423 738 456 q 700 372 722 390 q 728 322 721 354 q 736 242 736 290 l 736 160 q 703 38 736 75 q 576 0 669 0 l 132 0 m 28 160 q 35 93 28 115 q 64 63 42 71 q 132 56 86 56 l 576 56 q 644 63 622 56 q 674 93 667 71 q 681 160 681 115 l 681 240 q 676 310 681 289 q 652 338 671 332 q 590 344 633 344 l 378 344 q 347 372 347 344 q 378 400 347 400 l 590 400 q 651 406 632 400 q 675 435 669 413 q 681 504 681 457 l 681 813 q 674 879 681 857 q 644 909 667 901 q 576 917 622 917 l 132 917 q 64 909 86 917 q 35 879 42 901 q 28 813 28 857 l 28 732 q 33 663 28 685 q 57 634 38 640 q 118 628 76 628 l 347 628 q 375 600 375 628 q 347 572 375 572 l 118 572 q 57 566 76 572 q 33 538 38 560 q 28 468 28 517 l 28 160 m 222 1056 q 227 1001 222 1018 q 251 978 232 983 q 313 972 271 972 l 399 972 q 460 978 442 972 q 484 1001 479 983 q 489 1056 489 1018 q 484 1110 489 1093 q 460 1133 479 1128 q 399 1138 442 1138 l 313 1138 q 251 1133 271 1138 q 227 1110 232 1128 q 222 1056 222 1093 z "},"a":{"ha":719,"x_min":-28,"x_max":747,"o":"m 269 0 q 48 61 124 0 q -28 271 -28 122 l -28 360 q -20 458 -28 421 q 8 515 -12 496 q -28 632 -28 547 l -28 674 q 3 795 -28 757 q 128 833 35 833 l 449 833 q 671 764 594 833 q 747 547 747 694 l 747 160 q 714 35 747 71 q 590 0 681 0 l 588 0 q 458 40 493 0 q 329 0 426 0 l 269 0 m 28 271 q 90 104 28 153 q 269 56 151 56 l 326 56 q 394 63 372 56 q 424 92 417 69 q 431 160 431 114 l 431 175 q 458 206 431 206 q 486 175 486 206 l 486 160 q 493 92 486 114 q 522 63 500 69 q 589 56 544 56 q 656 63 635 56 q 685 93 678 71 q 692 160 692 115 l 692 547 q 630 722 692 667 q 449 778 568 778 l 132 778 q 64 770 86 778 q 35 740 42 763 q 28 674 28 718 l 28 649 q 33 579 28 601 q 57 551 38 557 q 118 544 76 544 l 325 544 q 356 517 356 544 q 325 489 356 489 l 118 489 q 57 482 76 489 q 33 448 38 475 q 28 360 28 421 l 28 271 m 333 340 l 333 383 q 363 415 333 415 q 390 383 390 415 l 390 340 q 363 308 390 308 q 333 340 333 308 z "},"á":{"ha":719,"x_min":-28,"x_max":747,"o":"m 269 0 q 48 61 124 0 q -28 271 -28 122 l -28 360 q -20 458 -28 421 q 8 515 -12 496 q -28 632 -28 547 l -28 674 q 3 795 -28 757 q 128 833 35 833 l 160 833 q 150 886 150 853 q 177 969 150 938 q 283 1032 204 1000 l 376 1069 q 503 1077 454 1101 q 551 988 551 1053 l 551 900 q 538 826 551 853 q 694 739 640 807 q 747 547 747 671 l 747 160 q 714 35 747 71 q 590 0 681 0 l 588 0 q 458 40 493 0 q 329 0 426 0 l 269 0 m 28 271 q 90 104 28 153 q 269 56 151 56 l 326 56 q 394 63 372 56 q 424 92 417 69 q 431 160 431 114 l 431 175 q 458 206 431 206 q 486 175 486 206 l 486 160 q 493 92 486 114 q 522 63 500 69 q 589 56 544 56 q 656 63 635 56 q 685 93 678 71 q 692 160 692 115 l 692 547 q 630 722 692 667 q 449 778 568 778 l 132 778 q 64 770 86 778 q 35 740 42 763 q 28 674 28 718 l 28 649 q 33 579 28 601 q 57 551 38 557 q 118 544 76 544 l 325 544 q 356 517 356 544 q 325 489 356 489 l 118 489 q 57 482 76 489 q 33 448 38 475 q 28 360 28 421 l 28 271 m 206 892 q 223 847 206 861 q 290 833 240 833 l 408 833 q 478 847 461 833 q 496 900 496 861 l 496 974 q 472 1031 496 1017 q 389 1019 449 1044 l 293 979 q 224 940 242 957 q 206 892 206 922 m 333 340 l 333 383 q 363 415 333 415 q 390 383 390 415 l 390 340 q 363 308 390 308 q 333 340 333 308 z "},"ă":{"ha":719,"x_min":-28,"x_max":747,"o":"m 269 0 q 48 61 124 0 q -28 271 -28 122 l -28 360 q -20 458 -28 421 q 8 515 -12 496 q -28 632 -28 547 l -28 674 q 3 795 -28 757 q 128 833 35 833 l 138 833 q 77 907 99 861 q 56 1018 56 953 q 83 1106 56 1078 q 182 1133 110 1133 l 229 1133 q 357 1092 324 1133 q 486 1133 390 1133 l 532 1133 q 632 1106 606 1133 q 658 1018 658 1078 q 632 897 658 944 q 558 821 606 849 q 699 731 651 799 q 747 547 747 664 l 747 160 q 714 35 747 71 q 590 0 681 0 l 588 0 q 458 40 493 0 q 329 0 426 0 l 269 0 m 28 271 q 90 104 28 153 q 269 56 151 56 l 326 56 q 394 63 372 56 q 424 92 417 69 q 431 160 431 114 l 431 175 q 458 206 431 206 q 486 175 486 206 l 486 160 q 493 92 486 114 q 522 63 500 69 q 589 56 544 56 q 656 63 635 56 q 685 93 678 71 q 692 160 692 115 l 692 547 q 630 722 692 667 q 449 778 568 778 l 132 778 q 64 770 86 778 q 35 740 42 763 q 28 674 28 718 l 28 649 q 33 579 28 601 q 57 551 38 557 q 118 544 76 544 l 325 544 q 356 517 356 544 q 325 489 356 489 l 118 489 q 57 482 76 489 q 33 448 38 475 q 28 360 28 421 l 28 271 m 111 1024 q 176 873 111 913 q 357 833 242 833 q 538 873 472 833 q 603 1024 603 913 q 592 1069 603 1060 q 532 1078 581 1078 l 489 1078 q 421 1072 443 1078 q 392 1050 399 1067 q 385 1001 385 1033 l 385 972 q 357 942 385 942 q 329 972 329 942 l 329 1001 q 312 1064 329 1050 q 228 1078 294 1078 l 182 1078 q 123 1069 135 1078 q 111 1024 111 1060 m 333 340 l 333 383 q 363 415 333 415 q 390 383 390 415 l 390 340 q 363 308 390 308 q 333 340 333 308 z "},"â":{"ha":719,"x_min":-28,"x_max":747,"o":"m 269 0 q 48 61 124 0 q -28 271 -28 122 l -28 360 q -20 458 -28 421 q 8 515 -12 496 q -28 632 -28 547 l -28 674 q -10 776 -28 739 q 57 825 8 813 q 53 860 53 840 q 86 954 53 919 l 228 1100 q 259 1123 243 1115 q 299 1131 275 1131 l 415 1131 q 455 1123 439 1131 q 486 1100 471 1115 l 628 954 q 661 860 661 919 q 635 790 661 807 q 719 697 690 757 q 747 547 747 638 l 747 160 q 714 35 747 71 q 590 0 681 0 l 588 0 q 458 40 493 0 q 329 0 426 0 l 269 0 m 28 271 q 90 104 28 153 q 269 56 151 56 l 326 56 q 394 63 372 56 q 424 92 417 69 q 431 160 431 114 l 431 175 q 458 206 431 206 q 486 175 486 206 l 486 160 q 493 92 486 114 q 522 63 500 69 q 589 56 544 56 q 656 63 635 56 q 685 93 678 71 q 692 160 692 115 l 692 547 q 630 722 692 667 q 449 778 568 778 l 132 778 q 64 770 86 778 q 35 740 42 763 q 28 674 28 718 l 28 649 q 33 579 28 601 q 57 551 38 557 q 118 544 76 544 l 325 544 q 356 517 356 544 q 325 489 356 489 l 118 489 q 57 482 76 489 q 33 448 38 475 q 28 360 28 421 l 28 271 m 110 871 q 115 841 110 849 q 136 833 121 833 l 246 833 q 310 850 292 833 q 329 917 329 867 q 357 956 329 956 q 385 917 385 956 q 403 850 385 867 q 468 833 422 833 l 578 833 q 599 841 593 833 q 604 871 604 849 q 590 913 604 897 l 456 1050 q 403 1075 432 1075 l 311 1075 q 257 1051 281 1075 l 121 911 q 110 871 110 899 m 333 340 l 333 383 q 363 415 333 415 q 390 383 390 415 l 390 340 q 363 308 390 308 q 333 340 333 308 z "},"ä":{"ha":719,"x_min":-28,"x_max":747,"o":"m 269 0 q 48 61 124 0 q -28 271 -28 122 l -28 360 q -20 458 -28 421 q 8 515 -12 496 q -28 632 -28 547 l -28 674 q -13 768 -28 732 q 40 821 1 804 q 25 862 29 838 q 21 917 21 886 q 49 1024 21 993 q 167 1054 78 1054 l 239 1054 q 357 1024 328 1054 q 475 1054 388 1054 l 547 1054 q 638 1042 607 1054 q 681 999 669 1029 q 693 915 693 968 q 681 833 693 863 q 636 790 669 803 q 747 547 747 721 l 747 160 q 714 35 747 71 q 590 0 681 0 l 588 0 q 458 40 493 0 q 329 0 426 0 l 269 0 m 28 271 q 90 104 28 153 q 269 56 151 56 l 326 56 q 394 63 372 56 q 424 92 417 69 q 431 160 431 114 l 431 175 q 458 206 431 206 q 486 175 486 206 l 486 160 q 493 92 486 114 q 522 63 500 69 q 589 56 544 56 q 656 63 635 56 q 685 93 678 71 q 692 160 692 115 l 692 547 q 630 722 692 667 q 449 778 568 778 l 132 778 q 64 770 86 778 q 35 740 42 763 q 28 674 28 718 l 28 649 q 33 579 28 601 q 57 551 38 557 q 118 544 76 544 l 325 544 q 356 517 356 544 q 325 489 356 489 l 118 489 q 57 482 76 489 q 33 448 38 475 q 28 360 28 421 l 28 271 m 76 917 q 81 862 76 879 q 106 839 86 844 q 167 833 125 833 l 239 833 q 301 839 282 833 q 324 862 319 844 q 329 917 329 879 q 324 972 329 954 q 301 994 319 989 q 239 999 282 999 l 167 999 q 106 994 125 999 q 81 972 86 989 q 76 917 76 954 m 333 340 l 333 383 q 363 415 333 415 q 390 383 390 415 l 390 340 q 363 308 390 308 q 333 340 333 308 m 385 917 q 390 862 385 879 q 414 839 394 844 q 475 833 433 833 l 547 833 q 609 839 590 833 q 633 862 628 844 q 638 917 638 879 q 633 972 638 954 q 609 994 628 989 q 547 999 590 999 l 475 999 q 414 994 433 999 q 390 972 394 989 q 385 917 385 954 z "},"à":{"ha":719,"x_min":-28,"x_max":747,"o":"m 269 0 q 48 61 124 0 q -28 271 -28 122 l -28 360 q -20 458 -28 421 q 8 515 -12 496 q -28 632 -28 547 l -28 674 q 3 795 -28 757 q 128 833 35 833 l 164 833 q 154 900 154 857 l 154 988 q 203 1077 154 1053 q 329 1069 251 1101 l 422 1032 q 528 969 501 1000 q 556 886 556 938 q 542 825 556 847 q 695 738 643 806 q 747 547 747 669 l 747 160 q 714 35 747 71 q 590 0 681 0 l 588 0 q 458 40 493 0 q 329 0 426 0 l 269 0 m 28 271 q 90 104 28 153 q 269 56 151 56 l 326 56 q 394 63 372 56 q 424 92 417 69 q 431 160 431 114 l 431 175 q 458 206 431 206 q 486 175 486 206 l 486 160 q 493 92 486 114 q 522 63 500 69 q 589 56 544 56 q 656 63 635 56 q 685 93 678 71 q 692 160 692 115 l 692 547 q 630 722 692 667 q 449 778 568 778 l 132 778 q 64 770 86 778 q 35 740 42 763 q 28 674 28 718 l 28 649 q 33 579 28 601 q 57 551 38 557 q 118 544 76 544 l 325 544 q 356 517 356 544 q 325 489 356 489 l 118 489 q 57 482 76 489 q 33 448 38 475 q 28 360 28 421 l 28 271 m 210 900 q 228 847 210 861 q 297 833 246 833 l 415 833 q 483 847 465 833 q 500 892 500 861 q 482 940 500 922 q 413 979 464 957 l 317 1019 q 233 1031 257 1044 q 210 974 210 1017 l 210 900 m 333 340 l 333 383 q 363 415 333 415 q 390 383 390 415 l 390 340 q 363 308 390 308 q 333 340 333 308 z "},"ā":{"ha":719,"x_min":-28,"x_max":747,"o":"m 269 0 q 48 61 124 0 q -28 271 -28 122 l -28 360 q -20 458 -28 421 q 8 515 -12 496 q -28 632 -28 547 l -28 674 q 2 794 -28 756 q 118 833 32 832 q 108 869 111 849 q 106 917 106 890 q 134 1024 106 993 q 251 1054 163 1054 l 463 1054 q 553 1042 522 1054 q 597 999 585 1029 q 608 915 608 968 q 603 855 608 881 q 586 814 599 829 q 747 547 747 758 l 747 160 q 714 35 747 71 q 590 0 681 0 l 588 0 q 458 40 493 0 q 329 0 426 0 l 269 0 m 28 271 q 90 104 28 153 q 269 56 151 56 l 326 56 q 394 63 372 56 q 424 92 417 69 q 431 160 431 114 l 431 175 q 458 206 431 206 q 486 175 486 206 l 486 160 q 493 92 486 114 q 522 63 500 69 q 589 56 544 56 q 656 63 635 56 q 685 93 678 71 q 692 160 692 115 l 692 547 q 630 722 692 667 q 449 778 568 778 l 132 778 q 64 770 86 778 q 35 740 42 763 q 28 674 28 718 l 28 649 q 33 579 28 601 q 57 551 38 557 q 118 544 76 544 l 325 544 q 356 517 356 544 q 325 489 356 489 l 118 489 q 57 482 76 489 q 33 448 38 475 q 28 360 28 421 l 28 271 m 161 917 q 166 862 161 879 q 190 839 171 844 q 251 833 210 833 l 463 833 q 524 839 506 833 q 548 862 543 844 q 553 917 553 879 q 548 972 553 954 q 524 994 543 989 q 463 999 506 999 l 251 999 q 190 994 210 999 q 166 972 171 989 q 161 917 161 954 m 333 340 l 333 383 q 363 415 333 415 q 390 383 390 415 l 390 340 q 363 308 390 308 q 333 340 333 308 z "},"ą":{"ha":719,"x_min":-28,"x_max":747,"o":"m 583 -204 q 474 -191 514 -218 q 433 -83 433 -164 l 433 13 q 372 0 415 0 l 269 0 q 49 61 126 0 q -28 271 -28 122 l -28 360 q -20 458 -28 421 q 8 515 -12 496 q -28 632 -28 547 l -28 674 q 5 795 -28 757 q 128 833 38 833 l 449 833 q 669 763 592 833 q 747 547 747 693 l 747 124 q 740 65 747 89 q 719 28 732 42 q 747 -56 747 -3 q 724 -150 747 -118 q 650 -192 700 -182 l 583 -204 m 28 271 q 90 104 28 153 q 269 56 153 56 l 326 56 q 394 63 372 56 q 424 92 417 69 q 431 160 431 114 l 431 189 q 458 219 431 219 q 486 189 486 219 l 486 -65 q 512 -144 486 -128 q 594 -147 538 -160 l 640 -137 q 680 -115 668 -131 q 692 -65 692 -100 q 682 -15 692 -26 q 650 -3 672 -3 l 583 -3 q 549 25 549 -3 q 576 53 549 53 l 639 53 q 681 66 669 53 q 692 124 692 79 l 692 547 q 630 722 692 667 q 449 778 568 778 l 132 778 q 64 770 86 778 q 35 740 42 763 q 28 674 28 718 l 28 649 q 33 579 28 601 q 57 551 38 557 q 118 544 76 544 l 339 544 q 369 517 369 544 q 339 489 369 489 l 118 489 q 57 482 76 489 q 33 448 38 475 q 28 360 28 421 l 28 271 m 333 340 l 333 383 q 363 415 333 415 q 390 383 390 415 l 390 340 q 363 308 390 308 q 333 340 333 308 z "},"å":{"ha":719,"x_min":-28,"x_max":747,"o":"m 269 0 q 48 61 124 0 q -28 271 -28 122 l -28 360 q -20 458 -28 421 q 8 515 -12 496 q -28 632 -28 547 l -28 674 q -1 790 -28 751 q 107 833 26 829 q 68 972 68 876 q 88 1083 68 1040 q 158 1145 108 1125 q 297 1165 208 1165 l 411 1165 q 592 1121 543 1165 q 640 971 640 1076 q 628 876 640 915 q 583 814 615 838 q 706 722 664 788 q 747 547 747 656 l 747 160 q 714 35 747 71 q 590 0 681 0 l 588 0 q 458 40 493 0 q 329 0 426 0 l 269 0 m 28 271 q 90 104 28 153 q 269 56 151 56 l 326 56 q 394 63 372 56 q 424 92 417 69 q 431 160 431 114 l 431 175 q 458 206 431 206 q 486 175 486 206 l 486 160 q 493 92 486 114 q 522 63 500 69 q 589 56 544 56 q 656 63 635 56 q 685 93 678 71 q 692 160 692 115 l 692 547 q 630 722 692 667 q 449 778 568 778 l 132 778 q 64 770 86 778 q 35 740 42 763 q 28 674 28 718 l 28 649 q 33 579 28 601 q 57 551 38 557 q 118 544 76 544 l 325 544 q 356 517 356 544 q 325 489 356 489 l 118 489 q 57 482 76 489 q 33 448 38 475 q 28 360 28 421 l 28 271 m 124 972 q 138 890 124 921 q 190 847 151 860 q 297 833 228 833 l 411 833 q 519 847 482 833 q 571 890 557 860 q 585 972 585 921 q 571 1053 585 1024 q 519 1097 557 1083 q 411 1110 482 1110 l 297 1110 q 190 1097 228 1110 q 138 1053 151 1083 q 124 972 124 1024 m 294 971 q 326 1000 294 1000 l 382 1000 q 414 971 414 1000 q 382 943 414 943 l 326 943 q 294 971 294 943 m 333 340 l 333 383 q 363 415 333 415 q 390 383 390 415 l 390 340 q 363 308 390 308 q 333 340 333 308 z "},"ã":{"ha":719,"x_min":-28,"x_max":747,"o":"m 269 0 q 48 61 124 0 q -28 271 -28 122 l -28 360 q -20 458 -28 421 q 8 515 -12 496 q -28 632 -28 547 l -28 674 q -7 781 -28 743 q 72 829 14 819 q 21 1004 21 881 q 49 1114 21 1083 q 158 1144 76 1144 q 263 1104 232 1144 q 332 1136 286 1126 q 454 1146 378 1146 q 592 1126 540 1146 q 669 1056 644 1106 q 693 919 693 1007 q 681 834 693 865 q 636 790 668 803 q 747 547 747 722 l 747 160 q 714 35 747 71 q 590 0 681 0 l 588 0 q 458 40 493 0 q 329 0 426 0 l 269 0 m 28 271 q 90 104 28 153 q 269 56 151 56 l 326 56 q 394 63 372 56 q 424 92 417 69 q 431 160 431 114 l 431 175 q 458 206 431 206 q 486 175 486 206 l 486 160 q 493 92 486 114 q 522 63 500 69 q 589 56 544 56 q 656 63 635 56 q 685 93 678 71 q 692 160 692 115 l 692 547 q 630 722 692 667 q 449 778 568 778 l 132 778 q 64 770 86 778 q 35 740 42 763 q 28 674 28 718 l 28 649 q 33 579 28 601 q 57 551 38 557 q 118 544 76 544 l 325 544 q 356 517 356 544 q 325 489 356 489 l 118 489 q 57 482 76 489 q 33 448 38 475 q 28 360 28 421 l 28 271 m 76 1004 q 92 899 76 936 q 149 847 108 861 q 260 833 189 833 q 367 841 332 835 q 415 867 403 847 q 426 928 426 888 q 433 963 426 954 q 454 971 440 971 q 476 963 469 971 q 482 928 482 954 q 488 866 482 886 q 509 840 493 846 q 556 835 525 835 q 611 840 594 835 q 633 863 628 844 q 638 919 638 881 q 622 1026 638 989 q 566 1076 606 1063 q 454 1090 526 1090 q 347 1083 383 1090 q 299 1057 311 1076 q 288 996 288 1038 q 281 961 288 969 q 260 953 275 953 q 239 961 246 953 q 232 996 232 969 q 226 1058 232 1039 q 205 1083 221 1078 q 158 1089 189 1089 q 103 1084 121 1089 q 81 1061 86 1079 q 76 1004 76 1043 m 333 340 l 333 383 q 363 415 333 415 q 390 383 390 415 l 390 340 q 363 308 390 308 q 333 340 333 308 z "},"æ":{"ha":1121,"x_min":-28,"x_max":1149,"o":"m 269 0 q 43 60 114 0 q -28 271 -28 119 l -28 374 q -20 472 -28 435 q 8 529 -12 510 q -28 646 -28 561 l -28 674 q 5 795 -28 757 q 128 833 38 833 l 419 833 q 547 792 514 833 q 674 833 581 833 l 864 833 q 1078 776 1008 833 q 1149 576 1149 719 l 1149 468 q 1141 385 1149 417 q 1113 336 1133 354 q 1141 281 1133 317 q 1149 190 1149 246 l 1149 160 q 1115 36 1149 72 q 989 0 1082 0 l 675 0 q 547 42 581 0 q 418 0 514 0 l 269 0 m 28 271 q 85 104 28 153 q 269 56 143 56 l 415 56 q 483 63 461 56 q 513 92 506 69 q 519 160 519 114 l 519 189 q 547 219 519 219 q 575 189 575 219 l 575 160 q 582 92 575 114 q 610 63 589 69 q 675 56 632 56 l 989 56 q 1057 63 1035 56 q 1086 92 1079 69 q 1093 160 1093 115 l 1093 190 q 1088 270 1093 246 q 1065 301 1083 294 q 1003 308 1046 308 l 867 308 q 836 336 836 308 q 867 364 836 364 l 1003 364 q 1065 370 1046 364 q 1088 399 1083 376 q 1093 468 1093 421 l 1093 576 q 1069 699 1093 656 q 995 760 1046 743 q 864 778 944 778 l 679 778 q 611 771 633 778 q 582 742 589 764 q 575 674 575 719 l 575 644 q 547 614 575 614 q 519 644 519 614 l 519 674 q 513 742 519 719 q 485 771 506 764 q 419 778 464 778 l 132 778 q 64 770 86 778 q 35 740 42 763 q 28 674 28 718 l 28 663 q 33 593 28 615 q 57 565 38 571 q 118 558 76 558 l 256 558 q 286 531 286 558 q 256 503 286 503 l 118 503 q 57 496 76 503 q 33 462 38 489 q 28 374 28 435 l 28 271 m 292 340 l 292 383 q 321 415 292 415 q 349 383 349 415 l 349 340 q 321 308 349 308 q 292 340 292 308 m 778 492 l 778 549 q 806 581 778 581 q 835 549 835 581 l 835 492 q 806 460 835 460 q 778 492 778 460 z "},"b":{"ha":704,"x_min":-28,"x_max":732,"o":"m 132 0 q 6 35 39 0 q -28 160 -28 69 l -28 882 q 6 996 -28 964 q 132 1028 39 1028 l 215 1028 q 342 994 310 1028 q 375 882 375 961 l 375 857 q 380 838 375 843 q 399 833 385 833 l 419 833 q 654 761 576 833 q 732 507 732 689 l 732 326 q 699 131 732 203 q 597 30 667 60 q 419 0 528 0 l 132 0 m 28 160 q 35 93 28 115 q 64 63 42 71 q 132 56 86 56 l 419 56 q 567 78 511 56 q 650 160 624 101 q 676 326 676 219 l 676 507 q 649 672 676 613 q 564 754 621 731 q 419 778 507 778 l 378 778 q 333 790 347 778 q 319 829 319 801 l 319 882 q 313 939 319 919 q 283 965 306 958 q 215 972 261 972 l 132 972 q 47 955 65 972 q 28 882 28 938 l 28 160 m 324 325 l 324 507 q 353 539 324 539 q 381 507 381 539 l 381 325 q 353 293 381 293 q 324 325 324 293 z "},"c":{"ha":617,"x_min":-28,"x_max":644,"o":"m 304 0 q 110 27 183 0 q 5 124 38 54 q -28 319 -28 193 l -28 529 q 52 762 -28 690 q 288 833 132 833 l 485 833 q 612 799 579 833 q 644 674 644 764 l 644 550 q 637 469 644 501 q 607 418 629 438 q 637 360 629 399 q 644 261 644 322 l 644 160 q 612 35 644 71 q 485 0 579 0 l 304 0 m 28 319 q 53 160 28 218 q 140 79 79 103 q 304 56 200 56 l 485 56 q 553 63 531 56 q 582 93 575 71 q 589 160 589 115 l 589 260 q 584 350 589 322 q 560 385 579 378 q 499 392 542 392 l 333 392 q 303 419 303 392 q 333 447 303 447 l 499 447 q 560 453 542 447 q 584 482 579 460 q 589 551 589 504 l 589 674 q 582 740 589 718 q 553 770 575 763 q 485 778 531 778 l 288 778 q 92 722 157 778 q 28 529 28 667 l 28 319 z "},"ć":{"ha":617,"x_min":-28,"x_max":644,"o":"m 304 0 q 110 27 183 0 q 5 124 38 54 q -28 319 -28 193 l -28 529 q 17 719 -28 649 q 147 815 61 789 q 126 886 126 840 q 153 969 126 938 q 260 1032 181 1000 l 353 1069 q 479 1077 431 1101 q 528 988 528 1053 l 528 900 q 518 832 528 857 q 618 791 592 826 q 644 674 644 756 l 644 550 q 637 469 644 501 q 607 418 629 438 q 637 360 629 399 q 644 261 644 322 l 644 160 q 612 35 644 71 q 485 0 579 0 l 304 0 m 28 319 q 53 160 28 218 q 140 79 79 103 q 304 56 200 56 l 485 56 q 553 63 531 56 q 582 93 575 71 q 589 160 589 115 l 589 260 q 584 350 589 322 q 560 385 579 378 q 499 392 542 392 l 333 392 q 303 419 303 392 q 333 447 303 447 l 499 447 q 560 453 542 447 q 584 482 579 460 q 589 551 589 504 l 589 674 q 582 740 589 718 q 553 770 575 763 q 485 778 531 778 l 288 778 q 92 722 157 778 q 28 529 28 667 l 28 319 m 182 892 q 199 847 182 861 q 267 833 217 833 l 385 833 q 455 847 438 833 q 472 900 472 861 l 472 974 q 449 1031 472 1017 q 365 1019 425 1044 l 269 979 q 200 940 218 957 q 182 892 182 922 z "},"č":{"ha":617,"x_min":-28,"x_max":644,"o":"m 304 0 q 110 27 183 0 q 5 124 38 54 q -28 319 -28 193 l -28 529 q 26 733 -28 661 q 186 825 81 804 l 60 954 q 26 1049 26 989 q 44 1111 26 1092 q 107 1131 63 1131 l 225 1131 q 331 1093 300 1131 q 436 1131 363 1131 l 554 1131 q 617 1111 599 1131 q 635 1049 635 1092 q 601 954 635 989 l 483 833 l 485 833 q 612 799 579 833 q 644 674 644 764 l 644 550 q 637 469 644 501 q 607 418 629 438 q 637 360 629 399 q 644 261 644 322 l 644 160 q 612 35 644 71 q 485 0 579 0 l 304 0 m 28 319 q 53 160 28 218 q 140 79 79 103 q 304 56 200 56 l 485 56 q 553 63 531 56 q 582 93 575 71 q 589 160 589 115 l 589 260 q 584 350 589 322 q 560 385 579 378 q 499 392 542 392 l 333 392 q 303 419 303 392 q 333 447 303 447 l 499 447 q 560 453 542 447 q 584 482 579 460 q 589 551 589 504 l 589 674 q 582 740 589 718 q 553 770 575 763 q 485 778 531 778 l 288 778 q 92 722 157 778 q 28 529 28 667 l 28 319 m 83 1038 q 97 996 83 1011 l 232 858 q 285 833 256 833 l 376 833 q 431 857 407 833 l 567 997 q 578 1038 578 1010 q 572 1068 578 1061 q 551 1075 567 1075 l 442 1075 q 377 1058 396 1075 q 358 992 358 1042 q 331 953 358 953 q 303 992 303 953 q 284 1058 303 1042 q 219 1075 265 1075 l 110 1075 q 89 1068 94 1075 q 83 1038 83 1061 z "},"ç":{"ha":644,"x_min":-28,"x_max":672,"o":"m 236 -331 q 131 -306 160 -331 q 103 -217 103 -281 q 119 -142 103 -168 q 175 -107 136 -115 q 162 -66 165 -92 q 158 3 158 -40 l 158 17 q 19 114 67 42 q -28 329 -28 186 l -28 522 q 46 758 -28 683 q 271 833 119 833 l 513 833 q 640 799 607 833 q 672 674 672 764 l 672 551 q 665 470 672 503 q 635 418 657 438 q 665 360 657 399 q 672 261 672 322 l 672 160 q 658 64 672 99 q 606 14 643 29 q 661 -136 661 -32 q 601 -278 661 -225 q 400 -331 542 -331 l 236 -331 m 28 329 q 69 149 28 208 q 182 69 110 89 q 215 29 215 63 l 215 -17 q 224 -75 215 -61 q 264 -89 233 -89 l 383 -89 q 417 -117 417 -89 q 383 -144 417 -144 l 228 -144 q 174 -160 189 -144 q 158 -217 158 -176 q 173 -262 158 -249 q 236 -275 188 -275 l 400 -275 q 561 -238 517 -275 q 606 -136 606 -201 q 570 -29 606 -58 q 450 0 535 0 l 403 0 q 371 28 371 0 q 403 56 371 56 l 513 56 q 581 63 558 56 q 610 93 603 71 q 617 160 617 115 l 617 260 q 612 350 617 322 q 588 385 607 378 q 526 392 569 392 l 338 392 q 307 419 307 392 q 338 447 307 447 l 526 447 q 588 453 569 447 q 612 482 607 460 q 617 551 617 504 l 617 674 q 610 740 617 718 q 581 770 603 763 q 513 778 558 778 l 271 778 q 86 720 144 778 q 28 522 28 663 l 28 329 z "},"ċ":{"ha":617,"x_min":-28,"x_max":644,"o":"m 304 0 q 110 27 183 0 q 5 124 38 54 q -28 319 -28 193 l -28 529 q 19 723 -28 653 q 158 818 65 793 q 144 893 144 844 l 144 938 q 173 1026 144 999 q 290 1054 201 1054 l 376 1054 q 494 1027 467 1054 q 522 938 522 1000 l 522 894 q 514 832 522 857 q 617 792 590 828 q 644 674 644 756 l 644 550 q 637 469 644 501 q 607 418 629 438 q 637 360 629 399 q 644 261 644 322 l 644 160 q 612 35 644 71 q 485 0 579 0 l 304 0 m 28 319 q 53 160 28 218 q 140 79 79 103 q 304 56 200 56 l 485 56 q 553 63 531 56 q 582 93 575 71 q 589 160 589 115 l 589 260 q 584 350 589 322 q 560 385 579 378 q 499 392 542 392 l 333 392 q 303 419 303 392 q 333 447 303 447 l 499 447 q 560 453 542 447 q 584 482 579 460 q 589 551 589 504 l 589 674 q 582 740 589 718 q 553 770 575 763 q 485 778 531 778 l 288 778 q 92 722 157 778 q 28 529 28 667 l 28 319 m 200 917 q 205 862 200 879 q 229 839 210 844 q 290 833 249 833 l 376 833 q 438 839 419 833 q 462 862 457 844 q 467 917 467 879 q 462 972 467 954 q 438 994 457 989 q 376 999 419 999 l 290 999 q 229 994 249 999 q 205 972 210 989 q 200 917 200 954 z "},"d":{"ha":704,"x_min":-28,"x_max":732,"o":"m 285 0 q 108 30 176 0 q 6 131 39 60 q -28 326 -28 203 l -28 507 q 50 761 -28 689 q 285 833 128 833 l 306 833 q 325 838 321 833 q 329 857 329 843 l 329 882 q 362 994 329 961 q 489 1028 394 1028 l 572 1028 q 699 996 665 1028 q 732 882 732 964 l 732 160 q 699 35 732 69 q 572 0 667 0 l 285 0 m 28 326 q 54 160 28 219 q 137 78 81 101 q 285 56 193 56 l 572 56 q 640 63 618 56 q 669 93 663 71 q 676 160 676 115 l 676 882 q 658 955 676 938 q 572 972 639 972 l 489 972 q 421 965 443 972 q 392 939 399 958 q 385 882 385 919 l 385 829 q 371 790 385 801 q 326 778 357 778 l 285 778 q 141 754 199 778 q 56 672 83 731 q 28 507 28 613 l 28 326 m 324 325 l 324 507 q 351 539 324 539 q 381 507 381 539 l 381 325 q 351 293 381 293 q 324 325 324 293 z "},"ð":{"ha":826,"x_min":-28,"x_max":858,"o":"m 229 0 q 31 67 89 0 q -28 271 -28 133 l -28 410 q 35 622 -28 549 q 229 694 97 694 l 242 694 q 233 744 233 715 l 233 833 q 251 893 233 874 q 313 913 269 913 l 342 913 q 357 1008 331 972 q 451 1049 383 1043 l 554 1057 q 647 1035 613 1061 q 700 944 681 1010 l 733 954 q 840 883 826 981 l 851 804 q 833 722 858 751 q 750 676 807 692 l 750 313 q 682 72 750 144 q 465 0 614 0 l 229 0 m 28 271 q 71 106 28 157 q 229 56 114 56 l 465 56 q 601 81 551 56 q 673 162 651 106 q 694 313 694 218 l 694 685 q 699 708 694 700 q 721 721 704 715 l 751 731 q 792 754 783 740 q 797 799 801 768 l 788 869 q 772 904 783 897 q 733 903 760 911 l 700 892 q 665 890 676 883 q 650 914 654 896 l 647 925 q 615 989 635 974 q 557 1001 596 1004 l 458 993 q 403 972 414 989 q 399 919 392 956 l 401 906 q 394 874 406 883 q 351 864 382 864 l 329 864 q 298 854 307 864 q 289 817 289 844 l 289 744 q 298 704 289 714 q 331 694 307 694 l 413 694 q 451 684 440 694 q 461 643 461 674 l 461 538 q 433 507 461 507 q 406 538 406 507 l 406 563 q 399 615 406 599 q 372 635 393 631 q 301 639 350 639 l 229 639 q 74 584 119 639 q 28 410 28 529 l 28 271 m 279 357 l 279 400 q 308 432 279 432 q 336 400 336 432 l 336 357 q 308 325 336 325 q 279 357 279 325 z "},"ď":{"ha":925,"x_min":-28,"x_max":961,"o":"m 776 642 q 732 646 751 642 l 732 160 q 699 35 732 69 q 572 0 667 0 l 285 0 q 108 30 176 0 q 6 131 39 60 q -28 326 -28 203 l -28 507 q 50 761 -28 689 q 285 833 128 833 l 306 833 q 325 838 321 833 q 329 857 329 843 l 329 882 q 362 994 329 961 q 489 1028 394 1028 l 572 1028 q 707 986 674 1028 q 751 1016 724 1007 q 814 1025 778 1025 l 839 1025 q 935 992 908 1025 q 946 868 961 958 l 931 782 q 887 672 917 701 q 797 642 857 642 l 776 642 m 28 326 q 54 160 28 219 q 137 78 81 101 q 285 56 193 56 l 572 56 q 640 63 618 56 q 669 93 663 71 q 676 160 676 115 l 676 882 q 658 955 676 938 q 572 972 639 972 l 489 972 q 421 965 443 972 q 392 939 399 958 q 385 882 385 919 l 385 829 q 371 790 385 801 q 326 778 357 778 l 285 778 q 141 754 199 778 q 56 672 83 731 q 28 507 28 613 l 28 326 m 324 325 l 324 507 q 351 539 324 539 q 381 507 381 539 l 381 325 q 351 293 381 293 q 324 325 324 293 m 732 754 q 743 710 732 722 q 782 697 754 697 l 803 697 q 851 715 835 697 q 875 782 867 732 l 890 868 q 890 949 901 929 q 833 969 878 969 l 808 969 q 748 951 764 969 q 732 868 732 932 l 732 754 z "},"đ":{"ha":824,"x_min":-28,"x_max":851,"o":"m 285 0 q 50 75 128 0 q -28 326 -28 150 l -28 382 q 28 609 -28 532 q 200 703 83 686 q 185 771 185 731 l 185 786 q 215 875 185 846 q 289 904 246 904 l 300 904 q 330 909 324 904 q 336 928 336 914 l 336 929 q 369 1013 336 985 q 496 1042 403 1042 l 565 1042 q 690 1014 656 1042 q 725 929 725 986 l 725 928 q 729 909 725 914 q 747 904 733 904 l 758 904 q 822 875 793 904 q 851 786 851 846 l 851 771 q 822 682 851 711 q 758 653 793 653 l 754 653 q 736 648 740 653 q 732 628 732 643 l 732 160 q 699 35 732 71 q 572 0 667 0 l 285 0 m 28 326 q 90 115 28 175 q 285 56 151 56 l 572 56 q 640 63 618 56 q 669 93 663 71 q 676 160 676 115 l 676 647 q 688 694 676 681 q 725 708 700 708 l 758 708 q 785 721 775 708 q 796 771 796 733 l 796 786 q 785 836 796 824 q 758 849 775 849 l 726 849 q 683 863 696 849 q 669 910 669 876 l 669 924 q 651 972 669 958 q 565 986 632 986 l 496 986 q 410 973 428 986 q 392 924 392 960 l 392 910 q 379 863 392 876 q 335 849 367 849 l 289 849 q 252 836 264 849 q 240 786 240 824 l 240 771 q 252 721 240 733 q 289 708 264 708 l 356 708 q 388 681 388 708 q 356 653 388 653 l 271 653 q 86 592 144 653 q 28 382 28 532 l 28 326 m 324 325 l 324 382 q 351 414 324 414 q 381 382 381 414 l 381 325 q 351 293 381 293 q 324 325 324 293 z "},"e":{"ha":690,"x_min":-28,"x_max":718,"o":"m 271 0 q 93 24 158 0 q 0 106 28 47 q -28 271 -28 165 l -28 576 q -1 727 -28 671 q 84 808 25 783 q 243 833 143 833 l 433 833 q 652 771 586 833 q 718 576 718 708 l 718 482 q 710 399 718 431 q 682 350 703 368 q 710 295 703 331 q 718 204 718 260 l 718 160 q 685 35 718 71 q 558 0 651 0 l 271 0 m 28 271 q 49 139 28 186 q 124 74 71 92 q 271 56 176 56 l 558 56 q 626 63 604 56 q 656 92 649 69 q 663 160 663 115 l 663 204 q 658 284 663 260 q 634 315 653 308 q 572 322 615 322 l 381 322 q 350 350 350 322 q 381 378 350 378 l 572 378 q 634 384 615 378 q 658 413 653 390 q 663 482 663 435 l 663 576 q 614 731 663 685 q 433 778 565 778 l 243 778 q 112 759 158 778 q 47 697 65 740 q 28 576 28 653 l 28 271 m 319 478 l 319 549 q 347 581 319 581 q 376 549 376 581 l 376 478 q 347 446 376 446 q 319 478 319 446 z "},"é":{"ha":690,"x_min":-28,"x_max":718,"o":"m 271 0 q 93 24 158 0 q 0 106 28 47 q -28 271 -28 165 l -28 576 q 13 753 -28 693 q 151 828 54 813 q 139 886 139 851 q 166 969 139 938 q 272 1032 193 1000 l 365 1069 q 492 1077 443 1101 q 540 988 540 1053 l 540 900 q 528 826 540 854 q 674 747 629 808 q 718 576 718 686 l 718 482 q 710 399 718 431 q 682 350 703 368 q 710 295 703 331 q 718 204 718 260 l 718 160 q 685 35 718 71 q 558 0 651 0 l 271 0 m 28 271 q 49 139 28 186 q 124 74 71 92 q 271 56 176 56 l 558 56 q 626 63 604 56 q 656 92 649 69 q 663 160 663 115 l 663 204 q 658 284 663 260 q 634 315 653 308 q 572 322 615 322 l 381 322 q 350 350 350 322 q 381 378 350 378 l 572 378 q 634 384 615 378 q 658 413 653 390 q 663 482 663 435 l 663 576 q 614 731 663 685 q 433 778 565 778 l 243 778 q 112 759 158 778 q 47 697 65 740 q 28 576 28 653 l 28 271 m 194 892 q 212 847 194 861 q 279 833 229 833 l 397 833 q 467 847 450 833 q 485 900 485 861 l 485 974 q 461 1031 485 1017 q 378 1019 438 1044 l 282 979 q 213 940 231 957 q 194 892 194 922 m 319 478 l 319 549 q 347 581 319 581 q 376 549 376 581 l 376 478 q 347 446 376 446 q 319 478 319 446 z "},"ě":{"ha":690,"x_min":-28,"x_max":718,"o":"m 271 0 q 93 24 158 0 q 0 106 28 47 q -28 271 -28 165 l -28 576 q 22 763 -28 704 q 192 832 71 822 l 72 954 q 39 1049 39 989 q 57 1111 39 1092 q 119 1131 75 1131 l 238 1131 q 343 1093 313 1131 q 449 1131 375 1131 l 567 1131 q 629 1111 611 1131 q 647 1049 647 1092 q 614 954 647 989 l 494 831 q 666 758 614 819 q 718 576 718 696 l 718 482 q 710 399 718 431 q 682 350 703 368 q 710 295 703 331 q 718 204 718 260 l 718 160 q 685 35 718 71 q 558 0 651 0 l 271 0 m 28 271 q 49 139 28 186 q 124 74 71 92 q 271 56 176 56 l 558 56 q 626 63 604 56 q 656 92 649 69 q 663 160 663 115 l 663 204 q 658 284 663 260 q 634 315 653 308 q 572 322 615 322 l 381 322 q 350 350 350 322 q 381 378 350 378 l 572 378 q 634 384 615 378 q 658 413 653 390 q 663 482 663 435 l 663 576 q 614 731 663 685 q 433 778 565 778 l 243 778 q 112 759 158 778 q 47 697 65 740 q 28 576 28 653 l 28 271 m 96 1038 q 110 996 96 1011 l 244 858 q 297 833 268 833 l 389 833 q 443 857 419 833 l 579 997 q 590 1038 590 1010 q 585 1068 590 1061 q 564 1075 579 1075 l 454 1075 q 390 1058 408 1075 q 371 992 371 1042 q 343 953 371 953 q 315 992 315 953 q 297 1058 315 1042 q 232 1075 278 1075 l 122 1075 q 101 1068 107 1075 q 96 1038 96 1061 m 319 478 l 319 549 q 347 581 319 581 q 376 549 376 581 l 376 478 q 347 446 376 446 q 319 478 319 446 z "},"ê":{"ha":690,"x_min":-28,"x_max":718,"o":"m 271 0 q 93 24 158 0 q 0 106 28 47 q -28 271 -28 165 l -28 576 q -7 715 -28 661 q 61 796 14 768 q 42 860 42 815 q 75 954 42 919 l 217 1100 q 248 1123 232 1115 q 288 1131 264 1131 l 404 1131 q 444 1123 428 1131 q 475 1100 460 1115 l 617 954 q 650 860 650 919 q 625 792 650 808 q 696 708 674 761 q 718 576 718 654 l 718 482 q 710 399 718 431 q 682 350 703 368 q 710 295 703 331 q 718 204 718 260 l 718 160 q 685 35 718 71 q 558 0 651 0 l 271 0 m 28 271 q 49 139 28 186 q 124 74 71 92 q 271 56 176 56 l 558 56 q 626 63 604 56 q 656 92 649 69 q 663 160 663 115 l 663 204 q 658 284 663 260 q 634 315 653 308 q 572 322 615 322 l 381 322 q 350 350 350 322 q 381 378 350 378 l 572 378 q 634 384 615 378 q 658 413 653 390 q 663 482 663 435 l 663 576 q 614 731 663 685 q 433 778 565 778 l 243 778 q 112 759 158 778 q 47 697 65 740 q 28 576 28 653 l 28 271 m 99 871 q 104 841 99 849 q 125 833 110 833 l 235 833 q 299 850 281 833 q 318 917 318 867 q 346 956 318 956 q 374 917 374 956 q 392 850 374 867 q 457 833 411 833 l 567 833 q 588 841 582 833 q 593 871 593 849 q 579 913 593 897 l 444 1050 q 392 1075 421 1075 l 300 1075 q 246 1051 269 1075 l 110 911 q 99 871 99 899 m 319 478 l 319 549 q 347 581 319 581 q 376 549 376 581 l 376 478 q 347 446 376 446 q 319 478 319 446 z "},"ë":{"ha":690,"x_min":-28,"x_max":718,"o":"m 271 0 q 93 24 158 0 q 0 106 28 47 q -28 271 -28 165 l -28 576 q -8 713 -28 660 q 58 794 13 767 q 19 840 29 810 q 10 917 10 869 q 38 1024 10 993 q 156 1054 67 1054 l 228 1054 q 346 1024 317 1054 q 464 1054 376 1054 l 536 1054 q 627 1042 596 1054 q 670 999 658 1029 q 682 915 682 968 q 671 834 682 864 q 628 790 660 804 q 718 576 718 732 l 718 482 q 710 399 718 431 q 682 350 703 368 q 710 295 703 331 q 718 204 718 260 l 718 160 q 685 35 718 71 q 558 0 651 0 l 271 0 m 28 271 q 49 139 28 186 q 124 74 71 92 q 271 56 176 56 l 558 56 q 626 63 604 56 q 656 92 649 69 q 663 160 663 115 l 663 204 q 658 284 663 260 q 634 315 653 308 q 572 322 615 322 l 381 322 q 350 350 350 322 q 381 378 350 378 l 572 378 q 634 384 615 378 q 658 413 653 390 q 663 482 663 435 l 663 576 q 614 731 663 685 q 433 778 565 778 l 243 778 q 112 759 158 778 q 47 697 65 740 q 28 576 28 653 l 28 271 m 65 917 q 70 862 65 879 q 94 839 75 844 q 156 833 114 833 l 228 833 q 290 839 271 833 q 313 862 308 844 q 318 917 318 879 q 313 972 318 954 q 290 994 308 989 q 228 999 271 999 l 156 999 q 94 994 114 999 q 70 972 75 989 q 65 917 65 954 m 319 478 l 319 549 q 347 581 319 581 q 376 549 376 581 l 376 478 q 347 446 376 446 q 319 478 319 446 m 374 917 q 378 862 374 879 q 403 839 383 844 q 464 833 422 833 l 536 833 q 598 839 579 833 q 622 862 617 844 q 626 917 626 879 q 622 972 626 954 q 598 994 617 989 q 536 999 579 999 l 464 999 q 403 994 422 999 q 378 972 383 989 q 374 917 374 954 z "},"ė":{"ha":690,"x_min":-28,"x_max":718,"o":"m 271 0 q 93 24 158 0 q 0 106 28 47 q -28 271 -28 165 l -28 576 q 17 756 -28 697 q 167 829 61 815 q 157 893 157 853 l 157 938 q 185 1026 157 999 q 303 1054 214 1054 l 389 1054 q 507 1027 479 1054 q 535 938 535 1000 l 535 894 q 524 826 535 850 q 672 749 626 810 q 718 576 718 688 l 718 482 q 710 399 718 431 q 682 350 703 368 q 710 295 703 331 q 718 204 718 260 l 718 160 q 685 35 718 71 q 558 0 651 0 l 271 0 m 28 271 q 49 139 28 186 q 124 74 71 92 q 271 56 176 56 l 558 56 q 626 63 604 56 q 656 92 649 69 q 663 160 663 115 l 663 204 q 658 284 663 260 q 634 315 653 308 q 572 322 615 322 l 381 322 q 350 350 350 322 q 381 378 350 378 l 572 378 q 634 384 615 378 q 658 413 653 390 q 663 482 663 435 l 663 576 q 614 731 663 685 q 433 778 565 778 l 243 778 q 112 759 158 778 q 47 697 65 740 q 28 576 28 653 l 28 271 m 213 917 q 217 862 213 879 q 242 839 222 844 q 303 833 261 833 l 389 833 q 451 839 432 833 q 474 862 469 844 q 479 917 479 879 q 474 972 479 954 q 451 994 469 989 q 389 999 432 999 l 303 999 q 242 994 261 999 q 217 972 222 989 q 213 917 213 954 m 319 478 l 319 549 q 347 581 319 581 q 376 549 376 581 l 376 478 q 347 446 376 446 q 319 478 319 446 z "},"è":{"ha":690,"x_min":-28,"x_max":718,"o":"m 271 0 q 93 24 158 0 q 0 106 28 47 q -28 271 -28 165 l -28 576 q 14 753 -28 694 q 156 828 56 813 q 143 900 143 856 l 143 988 q 192 1077 143 1053 q 318 1069 240 1101 l 411 1032 q 517 969 490 1000 q 544 886 544 938 q 531 825 544 849 q 674 747 631 807 q 718 576 718 686 l 718 482 q 710 399 718 431 q 682 350 703 368 q 710 295 703 331 q 718 204 718 260 l 718 160 q 685 35 718 71 q 558 0 651 0 l 271 0 m 28 271 q 49 139 28 186 q 124 74 71 92 q 271 56 176 56 l 558 56 q 626 63 604 56 q 656 92 649 69 q 663 160 663 115 l 663 204 q 658 284 663 260 q 634 315 653 308 q 572 322 615 322 l 381 322 q 350 350 350 322 q 381 378 350 378 l 572 378 q 634 384 615 378 q 658 413 653 390 q 663 482 663 435 l 663 576 q 614 731 663 685 q 433 778 565 778 l 243 778 q 112 759 158 778 q 47 697 65 740 q 28 576 28 653 l 28 271 m 199 900 q 217 847 199 861 q 286 833 235 833 l 404 833 q 472 847 454 833 q 489 892 489 861 q 471 940 489 922 q 401 979 453 957 l 306 1019 q 222 1031 246 1044 q 199 974 199 1017 l 199 900 m 319 478 l 319 549 q 347 581 319 581 q 376 549 376 581 l 376 478 q 347 446 376 446 q 319 478 319 446 z "},"ē":{"ha":690,"x_min":-28,"x_max":718,"o":"m 271 0 q 93 24 158 0 q 0 106 28 47 q -28 271 -28 165 l -28 576 q 5 740 -28 682 q 115 819 38 797 q 99 860 103 836 q 94 917 94 885 q 123 1024 94 993 q 240 1054 151 1054 l 451 1054 q 542 1042 511 1054 q 585 999 574 1029 q 597 915 597 968 q 592 856 597 881 q 575 814 588 831 q 685 731 651 790 q 718 576 718 672 l 718 482 q 710 399 718 431 q 682 350 703 368 q 710 295 703 331 q 718 204 718 260 l 718 160 q 685 35 718 71 q 558 0 651 0 l 271 0 m 28 271 q 49 139 28 186 q 124 74 71 92 q 271 56 176 56 l 558 56 q 626 63 604 56 q 656 92 649 69 q 663 160 663 115 l 663 204 q 658 284 663 260 q 634 315 653 308 q 572 322 615 322 l 381 322 q 350 350 350 322 q 381 378 350 378 l 572 378 q 634 384 615 378 q 658 413 653 390 q 663 482 663 435 l 663 576 q 614 731 663 685 q 433 778 565 778 l 243 778 q 112 759 158 778 q 47 697 65 740 q 28 576 28 653 l 28 271 m 150 917 q 155 862 150 879 q 179 839 160 844 q 240 833 199 833 l 451 833 q 513 839 494 833 q 537 862 532 844 q 542 917 542 879 q 537 972 542 954 q 513 994 532 989 q 451 999 494 999 l 240 999 q 179 994 199 999 q 155 972 160 989 q 150 917 150 954 m 319 478 l 319 549 q 347 581 319 581 q 376 549 376 581 l 376 478 q 347 446 376 446 q 319 478 319 446 z "},"ę":{"ha":690,"x_min":-28,"x_max":718,"o":"m 543 -228 q 394 -204 447 -244 q 342 -67 342 -164 l 342 0 l 285 0 q 97 24 165 0 q 1 106 29 47 q -28 271 -28 165 l -28 576 q 37 778 -28 722 q 243 833 101 833 l 433 833 q 646 771 574 833 q 718 576 718 708 l 718 482 q 710 399 718 431 q 682 350 703 368 q 710 295 703 331 q 718 204 718 260 l 718 160 q 711 84 718 117 q 686 32 704 51 q 718 -69 718 1 q 694 -173 718 -140 q 617 -215 669 -206 l 543 -228 m 28 271 q 50 140 28 186 q 128 74 72 93 q 285 56 183 56 l 358 56 q 394 13 394 56 l 394 -69 q 432 -160 394 -137 q 551 -169 469 -183 l 611 -160 q 651 -139 639 -156 q 663 -79 663 -122 q 653 -14 663 -28 q 621 0 643 0 l 547 0 q 516 7 525 0 q 507 28 507 14 q 540 56 507 56 l 599 56 q 651 77 639 56 q 663 160 663 99 l 663 204 q 658 284 663 260 q 634 315 653 308 q 572 322 615 322 l 367 322 q 336 350 336 322 q 367 378 336 378 l 572 378 q 634 384 615 378 q 658 413 653 390 q 663 482 663 435 l 663 576 q 608 733 663 688 q 433 778 553 778 l 243 778 q 118 760 165 778 q 49 699 71 743 q 28 576 28 656 l 28 271 m 319 478 l 319 549 q 347 581 319 581 q 376 549 376 581 l 376 478 q 347 446 376 446 q 319 478 319 446 z "},"ə":{"ha":675,"x_min":-28,"x_max":703,"o":"m 132 0 q 32 17 67 0 q -15 69 -3 33 q -28 160 -28 104 l -28 188 q -20 266 -28 235 q 10 315 -12 297 q -20 367 -12 335 q -28 446 -28 399 l -28 526 q 49 760 -28 688 q 285 833 125 833 l 404 833 q 632 759 561 833 q 703 513 703 685 l 703 322 q 630 73 703 146 q 404 0 557 0 l 132 0 m 28 160 q 35 93 28 115 q 64 63 42 71 q 132 56 86 56 l 404 56 q 542 80 489 56 q 622 163 596 104 q 647 322 647 221 l 647 513 q 624 669 647 611 q 548 752 601 726 q 404 778 494 778 l 285 778 q 88 720 147 778 q 28 526 28 663 l 28 447 q 35 378 28 400 q 63 349 42 356 q 125 343 83 343 l 325 343 q 353 315 353 343 q 325 288 353 288 l 125 288 q 63 281 83 288 q 35 253 42 275 q 28 183 28 232 l 28 160 m 308 492 l 308 536 q 338 567 308 567 q 365 536 365 567 l 365 492 q 338 460 365 460 q 308 492 308 460 z "},"f":{"ha":575,"x_min":-28,"x_max":603,"o":"m 131 0 q 6 35 40 0 q -28 160 -28 69 l -28 785 q -1 928 -28 875 q 86 1005 25 982 q 250 1028 147 1028 l 325 1028 q 489 1005 428 1028 q 576 928 550 982 q 603 785 603 875 l 603 713 q 594 632 603 664 q 565 581 586 600 q 594 531 586 563 q 603 449 603 499 l 603 396 q 569 269 603 303 q 471 236 536 236 l 413 236 q 398 233 401 236 q 394 219 394 231 l 394 132 q 360 31 394 63 q 235 0 325 0 l 131 0 m 28 160 q 35 93 28 115 q 63 63 42 71 q 131 56 85 56 l 235 56 q 322 71 304 56 q 339 132 339 86 l 339 231 q 353 279 339 267 q 397 292 367 292 l 471 292 q 532 310 517 292 q 547 396 547 328 l 547 449 q 542 519 547 497 q 519 547 538 540 q 457 553 500 553 l 390 553 q 286 580 314 553 q 258 685 258 607 l 258 726 q 286 760 258 760 q 314 726 314 760 l 314 696 q 318 637 314 656 q 339 613 322 618 q 390 608 356 608 l 457 608 q 519 615 500 608 q 542 643 538 621 q 547 713 547 665 l 547 785 q 529 897 547 856 q 463 955 511 938 q 325 972 415 972 l 250 972 q 115 956 163 972 q 47 898 67 939 q 28 785 28 857 l 28 160 z "},"g":{"ha":700,"x_min":-28,"x_max":728,"o":"m 132 -167 q 7 -133 42 -167 q -28 -7 -28 -99 l -28 69 q -19 147 -28 117 q 8 196 -11 178 q -20 247 -12 214 q -28 329 -28 279 l -28 576 q 35 776 -28 719 q 206 833 99 833 l 281 833 q 413 789 378 833 q 544 833 447 833 l 568 833 q 693 798 658 833 q 728 674 728 763 l 728 104 q 654 -106 728 -46 q 415 -167 581 -167 l 132 -167 m 28 -7 q 35 -74 28 -51 q 64 -104 42 -97 q 132 -111 86 -111 l 415 -111 q 563 -92 507 -111 q 646 -27 619 -74 q 672 104 672 19 l 672 674 q 665 740 672 718 q 636 770 658 763 q 568 778 614 778 l 544 778 q 476 770 499 778 q 447 740 454 763 q 440 674 440 718 l 440 642 q 413 614 440 614 q 385 642 385 614 l 385 674 q 378 740 385 718 q 349 770 371 763 q 281 778 326 778 l 211 778 q 113 760 154 778 q 49 699 71 743 q 28 576 28 656 l 28 329 q 33 260 28 282 q 57 231 38 238 q 118 225 76 225 l 325 225 q 356 197 356 225 q 325 169 356 169 l 118 169 q 57 163 76 169 q 33 135 38 156 q 28 72 28 114 l 28 -7 m 324 394 l 324 479 q 353 511 324 511 q 381 479 381 511 l 381 394 q 353 363 381 363 q 324 394 324 363 z "},"ğ":{"ha":700,"x_min":-28,"x_max":728,"o":"m 132 -167 q 7 -133 42 -167 q -28 -7 -28 -99 l -28 69 q -19 147 -28 117 q 8 196 -11 178 q -20 247 -12 214 q -28 329 -28 279 l -28 576 q 17 756 -28 697 q 143 828 63 814 q 78 903 101 856 q 54 1018 54 950 q 81 1106 54 1078 q 181 1133 108 1133 l 228 1133 q 356 1092 322 1133 q 485 1133 389 1133 l 531 1133 q 631 1106 604 1133 q 657 1018 657 1078 q 635 907 657 953 q 575 833 614 861 q 694 796 661 832 q 728 674 728 760 l 728 104 q 654 -106 728 -46 q 415 -167 581 -167 l 132 -167 m 28 -7 q 35 -74 28 -51 q 64 -104 42 -97 q 132 -111 86 -111 l 415 -111 q 563 -92 507 -111 q 646 -27 619 -74 q 672 104 672 19 l 672 674 q 665 740 672 718 q 636 770 658 763 q 568 778 614 778 l 544 778 q 476 770 499 778 q 447 740 454 763 q 440 674 440 718 l 440 642 q 413 614 440 614 q 385 642 385 614 l 385 674 q 378 740 385 718 q 349 770 371 763 q 281 778 326 778 l 211 778 q 113 760 154 778 q 49 699 71 743 q 28 576 28 656 l 28 329 q 33 260 28 282 q 57 231 38 238 q 118 225 76 225 l 325 225 q 356 197 356 225 q 325 169 356 169 l 118 169 q 57 163 76 169 q 33 135 38 156 q 28 72 28 114 l 28 -7 m 110 1024 q 175 873 110 913 q 356 833 240 833 q 536 873 471 833 q 601 1024 601 913 q 590 1069 601 1060 q 531 1078 579 1078 l 488 1078 q 419 1072 442 1078 q 390 1050 397 1067 q 383 1001 383 1033 l 383 972 q 356 942 383 942 q 328 972 328 942 l 328 1001 q 310 1064 328 1050 q 226 1078 293 1078 l 181 1078 q 122 1069 133 1078 q 110 1024 110 1060 m 324 394 l 324 479 q 353 511 324 511 q 381 479 381 511 l 381 394 q 353 363 381 363 q 324 394 324 363 z "},"ģ":{"ha":700,"x_min":-28,"x_max":728,"o":"m 132 -167 q 7 -133 42 -167 q -28 -7 -28 -99 l -28 69 q -19 147 -28 117 q 8 196 -11 178 q -20 247 -12 214 q -28 329 -28 279 l -28 576 q 31 773 -28 715 q 192 833 90 831 q 168 936 168 872 l 168 1010 q 213 1144 168 1097 q 342 1190 257 1190 l 390 1190 q 495 1167 468 1190 q 522 1093 522 1143 q 493 1018 522 1042 q 522 926 522 990 l 522 907 q 508 832 522 860 q 526 833 517 833 q 544 833 535 833 l 568 833 q 693 798 658 833 q 728 674 728 763 l 728 104 q 654 -106 728 -46 q 415 -167 581 -167 l 132 -167 m 28 -7 q 35 -74 28 -51 q 64 -104 42 -97 q 132 -111 86 -111 l 415 -111 q 563 -92 507 -111 q 646 -27 619 -74 q 672 104 672 19 l 672 674 q 665 740 672 718 q 636 770 658 763 q 568 778 614 778 l 544 778 q 476 770 499 778 q 447 740 454 763 q 440 674 440 718 l 440 642 q 413 614 440 614 q 385 642 385 614 l 385 674 q 378 740 385 718 q 349 770 371 763 q 281 778 326 778 l 211 778 q 113 760 154 778 q 49 699 71 743 q 28 576 28 656 l 28 329 q 33 260 28 282 q 57 231 38 238 q 118 225 76 225 l 325 225 q 356 197 356 225 q 325 169 356 169 l 118 169 q 57 163 76 169 q 33 135 38 156 q 28 72 28 114 l 28 -7 m 224 938 q 251 856 224 878 q 329 833 278 833 l 376 833 q 450 845 433 833 q 467 896 467 857 l 467 926 q 453 979 467 967 q 389 992 440 992 l 371 992 q 342 1019 342 992 q 371 1047 342 1047 l 389 1047 q 454 1058 442 1047 q 467 1090 467 1068 q 454 1124 467 1114 q 390 1135 442 1135 l 342 1135 q 255 1104 286 1135 q 224 1007 224 1074 l 224 938 m 324 394 l 324 479 q 353 511 324 511 q 381 479 381 511 l 381 394 q 353 363 381 363 q 324 394 324 363 z "},"ġ":{"ha":700,"x_min":-28,"x_max":728,"o":"m 132 -167 q 7 -133 42 -167 q -28 -7 -28 -99 l -28 69 q -19 147 -28 117 q 8 196 -11 178 q -20 247 -12 214 q -28 329 -28 279 l -28 576 q 27 767 -28 708 q 175 832 82 825 q 167 893 167 857 l 167 938 q 195 1026 167 999 q 313 1054 224 1054 l 399 1054 q 517 1027 489 1054 q 544 938 544 1000 l 544 894 q 536 833 544 858 l 544 833 l 568 833 q 693 798 658 833 q 728 674 728 763 l 728 104 q 654 -106 728 -46 q 415 -167 581 -167 l 132 -167 m 28 -7 q 35 -74 28 -51 q 64 -104 42 -97 q 132 -111 86 -111 l 415 -111 q 563 -92 507 -111 q 646 -27 619 -74 q 672 104 672 19 l 672 674 q 665 740 672 718 q 636 770 658 763 q 568 778 614 778 l 544 778 q 476 770 499 778 q 447 740 454 763 q 440 674 440 718 l 440 642 q 413 614 440 614 q 385 642 385 614 l 385 674 q 378 740 385 718 q 349 770 371 763 q 281 778 326 778 l 211 778 q 113 760 154 778 q 49 699 71 743 q 28 576 28 656 l 28 329 q 33 260 28 282 q 57 231 38 238 q 118 225 76 225 l 325 225 q 356 197 356 225 q 325 169 356 169 l 118 169 q 57 163 76 169 q 33 135 38 156 q 28 72 28 114 l 28 -7 m 222 917 q 227 862 222 879 q 251 839 232 844 q 313 833 271 833 l 399 833 q 460 839 442 833 q 484 862 479 844 q 489 917 489 879 q 484 972 489 954 q 460 994 479 989 q 399 999 442 999 l 313 999 q 251 994 271 999 q 227 972 232 989 q 222 917 222 954 m 324 394 l 324 479 q 353 511 324 511 q 381 479 381 511 l 381 394 q 353 363 381 363 q 324 394 324 363 z "},"h":{"ha":694,"x_min":-28,"x_max":722,"o":"m 132 0 q 7 34 42 0 q -28 160 -28 68 l -28 882 q 4 981 -28 947 q 132 1014 36 1014 l 215 1014 q 343 981 311 1014 q 375 882 375 947 l 375 857 q 380 838 375 843 q 399 833 385 833 l 551 833 q 676 794 629 833 q 722 649 722 756 l 722 160 q 688 34 722 68 q 563 0 653 0 l 479 0 q 347 43 382 0 q 215 0 314 0 l 132 0 m 28 160 q 35 93 28 115 q 64 63 42 71 q 132 56 86 56 l 215 56 q 283 63 261 56 q 313 93 306 71 q 319 160 319 115 l 319 454 q 347 490 319 490 q 375 454 375 490 l 375 160 q 382 93 375 115 q 411 63 389 71 q 479 56 433 56 l 563 56 q 631 63 608 56 q 660 93 653 71 q 667 160 667 115 l 667 650 q 639 756 667 729 q 554 782 611 782 l 381 782 q 333 794 346 782 q 319 838 319 807 l 319 882 q 302 943 319 928 q 215 958 285 958 l 132 958 q 46 943 64 958 q 28 882 28 928 l 28 160 z "},"ħ":{"ha":800,"x_min":-28,"x_max":828,"o":"m 251 0 q 125 35 158 0 q 92 160 92 71 l 92 628 q 88 648 92 643 q 69 653 85 653 l 65 653 q -1 682 26 653 q -28 771 -28 711 l -28 786 q -1 875 -28 846 q 65 904 25 904 l 69 904 q 88 909 83 904 q 92 928 92 914 l 92 929 q 126 1015 92 989 q 251 1042 161 1042 l 335 1042 q 461 1014 428 1042 q 494 929 494 986 l 494 928 q 501 909 494 914 q 531 904 507 904 l 535 904 q 610 875 581 904 q 639 786 639 846 l 639 771 q 626 708 639 733 l 671 708 q 786 663 744 708 q 828 519 828 617 l 828 160 q 794 35 828 71 q 668 0 760 0 l 599 0 q 467 46 500 0 q 335 0 433 0 l 251 0 m 28 771 q 35 721 28 733 q 65 708 43 708 l 99 708 q 135 694 124 708 q 147 647 147 681 l 147 160 q 154 93 147 115 q 183 63 161 71 q 251 56 206 56 l 335 56 q 403 63 381 56 q 432 93 425 71 q 439 160 439 115 l 439 457 q 467 490 439 490 q 494 457 494 490 l 494 160 q 501 93 494 115 q 531 63 508 71 q 599 56 553 56 l 668 56 q 735 63 713 56 q 765 93 757 71 q 772 160 772 115 l 772 521 q 745 624 772 594 q 660 653 718 653 l 485 653 q 451 681 451 653 q 485 708 451 708 l 535 708 q 572 721 561 708 q 583 771 583 733 l 583 786 q 573 836 583 824 q 535 849 563 849 l 496 849 q 452 863 465 849 q 439 910 439 876 l 439 924 q 422 973 439 960 q 335 986 404 986 l 251 986 q 166 972 185 986 q 147 924 147 958 l 147 910 q 135 863 147 876 q 90 849 122 849 l 65 849 q 37 836 46 849 q 28 786 28 824 l 28 771 z "},"i":{"ha":367,"x_min":-28,"x_max":394,"o":"m 135 0 q 8 33 44 0 q -28 160 -28 67 l -28 664 q 21 803 -28 764 q -28 939 -28 836 l -28 951 q 1 1075 -28 1039 q 104 1111 31 1111 l 235 1111 q 362 1076 329 1111 q 394 951 394 1042 l 394 939 q 346 803 394 836 q 382 750 369 785 q 394 660 394 715 l 394 158 q 360 33 394 65 q 235 0 325 0 l 135 0 m 28 160 q 35 93 28 115 q 66 63 43 71 q 135 56 89 56 l 235 56 q 303 63 281 56 q 332 93 325 71 q 339 160 339 115 l 339 661 q 320 755 339 731 q 240 779 301 779 l 129 779 q 49 755 69 779 q 28 661 28 731 l 28 160 m 28 939 q 35 872 28 894 q 64 842 42 850 q 132 835 86 835 l 235 835 q 303 842 281 835 q 332 872 325 850 q 339 939 339 894 l 339 951 q 332 1019 339 997 q 303 1049 325 1042 q 235 1056 281 1056 l 104 1056 q 42 1038 57 1056 q 28 951 28 1019 l 28 939 z "},"ı":{"ha":350,"x_min":-28,"x_max":378,"o":"m 135 0 q 8 33 44 0 q -28 160 -28 67 l -28 664 q 15 799 -28 763 q 153 835 58 835 l 207 835 q 335 799 293 835 q 378 674 378 764 l 378 158 q 342 33 378 65 q 218 0 307 0 l 135 0 m 28 160 q 35 93 28 115 q 66 63 43 71 q 135 56 89 56 l 218 56 q 285 63 263 56 q 315 93 307 71 q 322 160 322 115 l 322 661 q 300 755 322 731 q 210 779 278 779 l 143 779 q 51 755 75 779 q 28 661 28 731 l 28 160 z "},"í":{"ha":350,"x_min":-28,"x_max":378,"o":"m 135 0 q 8 33 44 0 q -28 160 -28 67 l -28 664 q 17 799 -28 760 q -26 888 -26 825 q 1 970 -26 939 q 107 1033 28 1001 l 200 1071 q 326 1078 278 1103 q 375 989 375 1054 l 375 901 q 367 838 375 863 q 336 799 358 813 q 378 674 378 761 l 378 158 q 342 33 378 65 q 218 0 307 0 l 135 0 m 28 160 q 35 93 28 115 q 66 63 43 71 q 135 56 89 56 l 218 56 q 285 63 263 56 q 315 93 307 71 q 322 160 322 115 l 322 661 q 300 755 322 731 q 210 779 278 779 l 143 779 q 51 755 75 779 q 28 661 28 731 l 28 160 m 29 893 q 47 849 29 863 q 114 835 64 835 l 232 835 q 302 849 285 835 q 319 901 319 863 l 319 975 q 296 1032 319 1018 q 213 1021 272 1046 l 117 981 q 47 941 65 958 q 29 893 29 924 z "},"î":{"ha":351,"x_min":-28,"x_max":379,"o":"m 135 0 q 8 33 44 0 q -28 160 -28 67 l -28 650 q 10 790 -28 751 q -21 861 -21 811 q 3 969 -21 926 l 67 1089 q 93 1122 78 1111 q 135 1132 108 1132 l 224 1132 q 266 1122 251 1132 q 292 1089 281 1111 l 356 969 q 379 865 379 926 q 343 789 379 807 q 378 660 378 749 l 378 158 q 343 33 378 65 q 218 0 308 0 l 135 0 m 28 160 q 35 93 28 115 q 66 63 43 71 q 135 56 89 56 l 218 56 q 286 63 264 56 q 315 93 308 71 q 322 160 322 115 l 322 647 q 300 753 322 726 q 210 779 278 779 l 143 779 q 51 753 75 779 q 28 647 28 726 l 28 160 m 36 869 q 42 842 36 849 q 67 835 49 835 l 94 835 q 136 843 121 835 q 151 890 151 851 q 179 929 151 929 q 207 890 207 929 q 222 842 207 850 q 264 835 238 835 l 292 835 q 316 842 310 835 q 322 869 322 849 q 320 903 322 889 q 310 933 318 917 l 253 1044 q 233 1069 243 1063 q 194 1076 222 1076 l 164 1076 q 126 1069 138 1076 q 106 1044 114 1063 l 51 935 q 39 903 42 917 q 36 869 36 889 z "},"ï":{"ha":350,"x_min":-28,"x_max":382,"o":"m 135 0 q 8 33 44 0 q -28 160 -28 67 l -28 664 q 13 796 -28 757 q -24 917 -24 822 q 1 1024 -24 994 q 89 1054 25 1054 l 92 1054 q 181 1028 156 1054 q 267 1054 206 1054 l 269 1054 q 358 1026 335 1054 q 382 917 382 997 q 342 793 382 818 q 378 674 378 753 l 378 158 q 342 33 378 65 q 218 0 307 0 l 135 0 m 28 160 q 35 93 28 115 q 66 63 43 71 q 135 56 89 56 l 218 56 q 285 63 263 56 q 315 93 307 71 q 322 160 322 115 l 322 661 q 300 755 322 731 q 210 779 278 779 l 143 779 q 51 755 75 779 q 28 661 28 731 l 28 160 m 32 917 q 41 847 32 861 q 89 833 50 833 l 92 833 q 142 847 132 833 q 151 917 151 861 q 142 985 151 972 q 92 999 132 999 l 89 999 q 41 985 50 999 q 32 917 32 972 m 207 917 q 217 847 207 861 q 267 833 226 833 l 269 833 q 317 847 308 833 q 326 917 326 861 q 317 985 326 972 q 269 999 308 999 l 267 999 q 217 985 226 999 q 207 917 207 972 z "},"ì":{"ha":350,"x_min":-28,"x_max":378,"o":"m 135 0 q 8 33 44 0 q -28 160 -28 67 l -28 664 q 19 801 -28 763 q -12 844 -3 817 q -22 915 -22 872 l -22 967 q 23 1063 -22 1036 q 153 1068 68 1089 l 226 1050 q 346 996 315 1028 q 376 903 376 964 q 333 801 376 829 q 378 674 378 764 l 378 158 q 342 33 378 65 q 218 0 307 0 l 135 0 m 28 160 q 35 93 28 115 q 66 63 43 71 q 135 56 89 56 l 218 56 q 285 63 263 56 q 315 93 307 71 q 322 160 322 115 l 322 661 q 300 755 322 731 q 210 779 278 779 l 143 779 q 51 755 75 779 q 28 661 28 731 l 28 160 m 33 915 q 55 850 33 865 q 139 835 76 835 l 225 835 q 301 849 281 835 q 321 903 321 864 q 302 961 321 943 q 226 993 283 979 l 153 1013 q 58 1017 83 1032 q 33 953 33 1001 l 33 915 z "},"ĳ":{"ha":733,"x_min":-28,"x_max":761,"o":"m 135 0 q 8 33 44 0 q -28 160 -28 67 l -28 664 q 21 803 -28 764 q -28 939 -28 836 l -28 951 q 1 1075 -28 1039 q 104 1111 31 1111 l 235 1111 q 365 1072 332 1111 q 485 1111 396 1111 l 601 1111 q 728 1076 696 1111 q 761 953 761 1042 l 761 938 q 711 800 761 833 q 748 742 735 779 q 761 646 761 706 l 761 144 q 728 -44 761 24 q 638 -140 696 -112 q 501 -167 579 -167 l 474 -167 q 370 -131 401 -167 q 339 -7 339 -96 l 339 18 q 235 0 303 0 l 135 0 m 28 160 q 35 93 28 115 q 66 63 43 71 q 135 56 89 56 l 235 56 q 303 63 281 56 q 332 93 325 71 q 339 160 339 115 l 339 661 q 320 755 339 731 q 240 779 301 779 l 129 779 q 49 755 69 779 q 28 661 28 731 l 28 160 m 28 939 q 35 872 28 894 q 64 842 42 850 q 132 835 86 835 l 235 835 q 303 842 281 835 q 332 872 325 850 q 339 939 339 894 l 339 951 q 332 1019 339 997 q 303 1049 325 1042 q 235 1056 281 1056 l 104 1056 q 42 1038 57 1056 q 28 951 28 1019 l 28 939 m 346 803 q 358 791 353 797 q 368 778 364 785 q 389 800 378 793 q 367 821 375 808 q 357 811 361 815 q 346 803 353 807 m 394 -7 q 410 -92 394 -74 q 474 -111 426 -111 l 501 -111 q 612 -90 567 -111 q 681 -12 657 -68 q 706 146 706 43 l 706 646 q 685 751 706 725 q 604 778 664 778 l 496 778 q 415 751 436 778 q 394 646 394 725 l 394 -7 m 394 938 q 401 871 394 893 q 431 841 408 849 q 499 833 453 833 l 601 833 q 669 841 647 833 q 699 871 692 849 q 706 938 706 893 l 706 951 q 699 1019 706 997 q 669 1049 692 1042 q 601 1056 647 1056 l 485 1056 q 426 1049 446 1056 q 401 1019 407 1042 q 394 951 394 997 l 394 938 z "},"ī":{"ha":350,"x_min":-28,"x_max":378,"o":"m 135 0 q 8 33 44 0 q -28 160 -28 67 l -28 664 q 15 799 -28 760 q -19 844 -11 814 q -28 918 -28 874 q 1 1025 -28 994 q 118 1056 29 1056 l 232 1056 q 323 1043 292 1056 q 366 1000 354 1031 q 378 917 378 969 q 369 842 378 871 q 336 799 360 814 q 378 674 378 761 l 378 158 q 342 33 378 65 q 218 0 307 0 l 135 0 m 28 160 q 35 93 28 115 q 66 63 43 71 q 135 56 89 56 l 218 56 q 285 63 263 56 q 315 93 307 71 q 322 160 322 115 l 322 661 q 300 755 322 731 q 210 779 278 779 l 143 779 q 51 755 75 779 q 28 661 28 731 l 28 160 m 28 918 q 33 863 28 881 q 57 840 38 846 q 118 835 76 835 l 232 835 q 294 840 275 835 q 317 863 313 846 q 322 918 322 881 q 317 973 322 956 q 294 995 313 990 q 232 1000 275 1000 l 118 1000 q 57 995 76 1000 q 33 973 38 990 q 28 918 28 956 z "},"į":{"ha":350,"x_min":-28,"x_max":378,"o":"m 233 -196 q 95 -174 140 -210 q 50 -60 50 -139 l 50 1 q -6 40 17 8 q -28 136 -28 72 l -28 650 q -16 747 -28 710 q 19 803 -4 783 q -3 839 3 817 q -10 894 -10 861 l -10 939 q 19 1028 -10 1000 q 136 1056 47 1056 l 222 1056 q 340 1028 313 1056 q 368 939 368 1001 l 368 896 q 360 838 368 861 q 333 801 353 815 q 378 660 378 763 l 378 158 q 347 32 378 68 q 378 -60 378 3 q 354 -149 378 -117 q 276 -189 331 -181 l 233 -196 m 28 136 q 38 72 28 88 q 67 56 49 56 q 103 13 103 56 l 103 -49 q 131 -129 103 -108 q 228 -140 160 -150 l 271 -133 q 310 -115 299 -129 q 322 -69 322 -100 q 313 -12 322 -25 q 281 0 303 0 l 256 0 q 224 7 233 0 q 215 28 215 14 q 249 56 215 56 l 260 56 q 310 74 297 56 q 322 160 322 93 l 322 647 q 297 753 322 726 q 210 779 272 779 l 143 779 q 54 753 81 779 q 28 647 28 726 l 28 136 m 46 918 q 51 863 46 881 q 75 840 56 846 q 136 835 94 835 l 222 835 q 284 840 265 835 q 308 863 303 846 q 313 918 313 881 q 308 973 313 956 q 284 995 303 990 q 222 1000 265 1000 l 136 1000 q 75 995 94 1000 q 51 973 56 990 q 46 918 46 956 z "},"j":{"ha":367,"x_min":-28,"x_max":394,"o":"m 107 -167 q 3 -131 35 -167 q -28 -7 -28 -96 l -28 649 q -15 744 -28 707 q 22 800 -3 781 q -28 938 -28 833 l -28 953 q 3 1076 -28 1042 q 118 1111 33 1111 l 235 1111 q 362 1076 329 1111 q 394 953 394 1042 l 394 938 q 344 800 394 833 q 381 742 368 779 q 394 646 394 706 l 394 144 q 362 -44 394 24 q 271 -140 329 -112 q 135 -167 213 -167 l 107 -167 m 28 -7 q 44 -92 28 -74 q 107 -111 60 -111 l 135 -111 q 245 -90 200 -111 q 315 -12 290 -68 q 339 146 339 43 l 339 646 q 318 751 339 725 q 238 778 297 778 l 129 778 q 49 751 69 778 q 28 646 28 725 l 28 -7 m 28 938 q 35 871 28 893 q 64 841 42 849 q 132 833 86 833 l 235 833 q 303 841 281 833 q 332 871 325 849 q 339 938 339 893 l 339 951 q 332 1019 339 997 q 303 1049 325 1042 q 235 1056 281 1056 l 118 1056 q 60 1049 79 1056 q 34 1019 40 1042 q 28 951 28 997 l 28 938 z "},"ȷ":{"ha":353,"x_min":-28,"x_max":381,"o":"m 107 -167 q 3 -132 35 -167 q -28 -7 -28 -97 l -28 649 q 16 796 -28 758 q 143 833 60 833 l 207 833 q 301 818 263 833 q 360 762 339 803 q 381 646 381 721 l 381 144 q 349 -39 381 29 q 258 -137 317 -107 q 121 -167 200 -167 l 107 -167 m 28 -7 q 44 -92 28 -74 q 107 -111 60 -111 l 121 -111 q 228 -90 182 -111 q 299 -12 274 -68 q 325 146 325 43 l 325 646 q 299 751 325 725 q 210 778 272 778 l 143 778 q 54 751 81 778 q 28 646 28 725 l 28 -7 z "},"k":{"ha":708,"x_min":-28,"x_max":736,"o":"m 132 0 q 5 37 38 0 q -28 160 -28 74 l -28 868 q 6 992 -28 957 q 132 1028 39 1028 l 221 1028 q 347 991 314 1028 q 381 868 381 954 l 381 814 q 485 833 414 833 l 576 833 q 703 797 671 833 q 736 674 736 760 l 736 622 q 728 546 736 576 q 701 497 721 515 q 728 449 721 479 q 736 371 736 418 l 736 160 q 703 38 736 75 q 576 0 671 0 l 485 0 q 403 10 435 0 q 353 42 371 19 q 303 10 335 19 q 221 0 271 0 l 132 0 m 28 160 q 35 93 28 115 q 64 63 42 71 q 132 56 86 56 l 221 56 q 289 63 267 56 q 318 93 311 71 q 325 160 325 115 l 325 300 q 353 331 325 331 q 381 300 381 331 l 381 160 q 388 93 381 115 q 417 63 394 71 q 485 56 439 56 l 576 56 q 644 63 622 56 q 674 93 667 71 q 681 160 681 115 l 681 365 q 676 435 681 414 q 652 463 671 457 q 590 469 633 469 l 535 469 q 507 497 507 469 q 535 525 507 525 l 590 525 q 652 531 633 525 q 676 560 671 538 q 681 629 681 582 l 681 674 q 674 740 681 718 q 644 770 667 763 q 576 778 622 778 l 485 778 q 417 770 439 778 q 388 740 394 763 q 381 674 381 718 l 381 524 q 353 493 381 493 q 325 524 325 493 l 325 868 q 318 935 325 913 q 289 965 311 957 q 221 972 267 972 l 132 972 q 64 965 86 972 q 35 935 42 957 q 28 868 28 913 l 28 160 z "}}}
